<svg width="18" height="18" viewBox="0 0 18 18" fill="none" xmlns="http://www.w3.org/2000/svg">
<path fill-rule="evenodd" clip-rule="evenodd" d="M14.382 3.6185C13.8663 3.10295 13.1669 2.81333 12.4377 2.81333C11.7085 2.81333 11.0092 3.10295 10.4935 3.6185L3.6185 10.4935C3.35584 10.7472 3.14634 11.0506 3.00222 11.3861C2.85809 11.7216 2.78223 12.0825 2.77906 12.4476C2.77588 12.8128 2.84546 13.1749 2.98374 13.5129C3.12201 13.8508 3.3262 14.1579 3.58441 14.4161C3.84261 14.6743 4.14966 14.8785 4.48762 15.0168C4.82559 15.155 5.18771 15.2246 5.55285 15.2214C5.91799 15.2183 6.27885 15.1424 6.61436 14.9983C6.94987 14.8541 7.25332 14.6446 7.507 14.382L8.2715 13.6189C8.46699 13.4367 8.72555 13.3375 8.99271 13.3423C9.25988 13.347 9.51478 13.4552 9.70372 13.6441C9.89267 13.8331 10.0009 14.088 10.0056 14.3552C10.0103 14.6223 9.91115 14.8809 9.72899 15.0764L8.96587 15.8409C8.06331 16.7434 6.83917 17.2505 5.56275 17.2505C4.28633 17.2505 3.06219 16.7434 2.15962 15.8409C1.25706 14.9383 0.75 13.7142 0.75 12.4377C0.75 11.1613 1.25706 9.93718 2.15962 9.03462L9.03462 2.15962C9.93718 1.25706 11.1613 0.75 12.4377 0.75C13.7142 0.75 14.9383 1.25706 15.8409 2.15962C16.7434 3.06219 17.2505 4.28633 17.2505 5.56275C17.2505 6.83917 16.7434 8.06331 15.8409 8.96587L13.1294 11.6774C12.5814 12.2255 11.8382 12.5335 11.0632 12.5336C10.2882 12.5337 9.54491 12.226 8.99681 11.6781C8.44871 11.1301 8.14071 10.3869 8.14058 9.61192C8.14045 8.83691 8.4482 8.0936 8.99612 7.5455L11.709 4.834C11.8034 4.73268 11.9173 4.65141 12.0438 4.59505C12.1703 4.53868 12.3068 4.50838 12.4453 4.50593C12.5837 4.50349 12.7213 4.52896 12.8497 4.58083C12.9781 4.63269 13.0947 4.70989 13.1927 4.80782C13.2906 4.90574 13.3678 5.02239 13.4197 5.1508C13.4715 5.27921 13.497 5.41675 13.4946 5.55521C13.4921 5.69368 13.4618 5.83024 13.4054 5.95674C13.3491 6.08323 13.2678 6.19709 13.1665 6.2915L10.455 9.00437C10.3017 9.16711 10.2179 9.38316 10.2214 9.60667C10.2248 9.83018 10.3151 10.0436 10.4733 10.2015C10.6315 10.3595 10.8449 10.4497 11.0685 10.4528C11.292 10.456 11.5079 10.3719 11.6705 10.2185L14.382 7.507C14.8975 6.99129 15.1872 6.29195 15.1872 5.56275C15.1872 4.83354 14.8975 4.1342 14.382 3.6185Z" fill="#919EAB"/>
</svg>
