<svg width="18" height="18" viewBox="0 0 18 18" fill="none" xmlns="http://www.w3.org/2000/svg">
<path fill-rule="evenodd" clip-rule="evenodd" d="M12.8011 2.34373V1.05374C12.8011 0.720585 12.5399 0.450195 12.218 0.450195C11.8961 0.450195 11.6348 0.720585 11.6348 1.05374V3.67958C11.6348 3.88881 11.7445 4.06504 11.9015 4.17288C11.809 4.23726 11.704 4.28313 11.5843 4.28313C11.2624 4.28313 11.0011 4.01274 11.0011 3.67958V1.93653C10.3776 1.85928 9.69799 1.81985 8.94922 1.81985C8.0675 1.81985 7.28141 1.87457 6.57464 1.98482V1.05374C6.57464 0.720585 6.31338 0.450195 5.99149 0.450195C5.66959 0.450195 5.40834 0.720585 5.40834 1.05374V3.67958C5.40834 3.88881 5.51797 4.06504 5.67503 4.17288C5.5825 4.23726 5.47754 4.28313 5.3578 4.28313C5.0359 4.28313 4.77465 4.01274 4.77465 3.67958V2.44834C3.11539 3.11063 2.14192 4.34268 1.68162 6.30461H16.2176C15.7293 4.22358 14.6501 2.97463 12.8011 2.34373Z" fill="#323B44"/>
<path fill-rule="evenodd" clip-rule="evenodd" d="M12.3805 10.6794C12.0586 10.6794 11.7942 10.409 11.7942 10.0759C11.7942 9.7427 12.0516 9.47231 12.3735 9.47231H12.3805C12.7024 9.47231 12.9636 9.7427 12.9636 10.0759C12.9636 10.409 12.7024 10.6794 12.3805 10.6794ZM12.3805 13.78C12.0586 13.78 11.7942 13.5096 11.7942 13.1765C11.7942 12.8425 12.0516 12.5729 12.3735 12.5729H12.3805C12.7024 12.5729 12.9636 12.8425 12.9636 13.1765C12.9636 13.5096 12.7024 13.78 12.3805 13.78ZM8.96011 10.6794C8.63821 10.6794 8.37307 10.409 8.37307 10.0759C8.37307 9.7427 8.63121 9.47231 8.95311 9.47231H8.96011C9.28201 9.47231 9.54326 9.7427 9.54326 10.0759C9.54326 10.409 9.28201 10.6794 8.96011 10.6794ZM8.96011 13.78C8.63821 13.78 8.37307 13.5096 8.37307 13.1765C8.37307 12.8425 8.63121 12.5729 8.95311 12.5729H8.96011C9.28201 12.5729 9.54326 12.8425 9.54326 13.1765C9.54326 13.5096 9.28201 13.78 8.96011 13.78ZM5.53274 10.6794C5.21084 10.6794 4.9457 10.409 4.9457 10.0759C4.9457 9.7427 5.20384 9.47231 5.52574 9.47231H5.53274C5.85464 9.47231 6.11589 9.7427 6.11589 10.0759C6.11589 10.409 5.85464 10.6794 5.53274 10.6794ZM5.53274 13.78C5.21084 13.78 4.9457 13.5096 4.9457 13.1765C4.9457 12.8425 5.20384 12.5729 5.52574 12.5729H5.53274C5.85464 12.5729 6.11589 12.8425 6.11589 13.1765C6.11589 13.5096 5.85464 13.78 5.53274 13.78ZM16.4291 7.51118H1.47013C1.39082 8.17106 1.34961 8.88969 1.34961 9.68556C1.34961 15.4917 3.33854 17.5502 8.94922 17.5502C14.5607 17.5502 16.5496 15.4917 16.5496 9.68556C16.5496 8.88969 16.5084 8.17106 16.4291 7.51118Z" fill="#323B44"/>
</svg>
