<svg width="21" height="20" viewBox="0 0 21 20" fill="none" xmlns="http://www.w3.org/2000/svg">
<path fill-rule="evenodd" clip-rule="evenodd" d="M3.53174 8.59797C3.53174 4.76475 6.73497 1.6665 10.6096 1.6665C14.4952 1.6665 17.6984 4.76475 17.6984 8.59797C17.6984 10.5296 16.9959 12.3229 15.8397 13.8428C14.5641 15.5194 12.9919 16.9802 11.2222 18.1269C10.8172 18.3919 10.4516 18.4119 10.0071 18.1269C8.22735 16.9802 6.65514 15.5194 5.39049 13.8428C4.23339 12.3229 3.53174 10.5296 3.53174 8.59797ZM8.27693 8.8138C8.27693 10.0979 9.32479 11.1079 10.6096 11.1079C11.8953 11.1079 12.9532 10.0979 12.9532 8.8138C12.9532 7.53967 11.8953 6.48053 10.6096 6.48053C9.32479 6.48053 8.27693 7.53967 8.27693 8.8138Z" fill="#00142D"/>
<path d="M7.32126 14.5302C7.93852 14.5302 8.43891 14.0298 8.43891 13.4126C8.43891 12.7953 7.93852 12.2949 7.32126 12.2949C6.704 12.2949 6.20361 12.7953 6.20361 13.4126C6.20361 14.0298 6.704 14.5302 7.32126 14.5302Z" fill="#00142D"/>
</svg>
