<svg width="20" height="20" viewBox="0 0 20 20" fill="none" xmlns="http://www.w3.org/2000/svg">
<path d="M10 1C5.0372 1 1 5.0372 1 10C1 14.9628 5.0372 19 10 19C14.9628 19 19 14.9628 19 10C19 5.0372 14.9628 1 10 1ZM14.2803 14.6552C14.134 14.8014 13.942 14.875 13.75 14.875C13.5581 14.875 13.3659 14.8014 13.2198 14.6552L9.46977 10.9053C9.32874 10.7651 9.25005 10.5744 9.25005 10.375V5.5C9.25005 5.08527 9.58595 4.75005 10 4.75005C10.414 4.75005 10.75 5.08527 10.75 5.5V10.0645L14.2803 13.5947C14.5735 13.8881 14.5735 14.362 14.2803 14.6552Z" fill="#1F73BB"/>
</svg>
