<svg width="20" height="20" viewBox="0 0 20 20" fill="none" xmlns="http://www.w3.org/2000/svg">
<path fill-rule="evenodd" clip-rule="evenodd" d="M14.561 2.21466V0.705904C14.561 0.316245 14.2516 0 13.8704 0C13.4892 0 13.1799 0.316245 13.1799 0.705904V3.77706C13.1799 4.02177 13.3097 4.22789 13.4957 4.35401C13.3861 4.42931 13.2618 4.48296 13.12 4.48296C12.7388 4.48296 12.4294 4.16672 12.4294 3.77706V1.73841C11.691 1.64805 10.8862 1.60193 9.99954 1.60193C8.9554 1.60193 8.0245 1.66593 7.18753 1.79488V0.705904C7.18753 0.316245 6.87815 0 6.49696 0C6.11576 0 5.80639 0.316245 5.80639 0.705904V3.77706C5.80639 4.02177 5.93621 4.22789 6.12221 4.35401C6.01264 4.42931 5.88833 4.48296 5.74654 4.48296C5.36534 4.48296 5.05596 4.16672 5.05596 3.77706V2.33701C3.09105 3.11162 1.93826 4.55261 1.39317 6.84727H18.6068C18.0286 4.41331 16.7506 2.95256 14.561 2.21466Z" fill="#1F73BB"/>
<path fill-rule="evenodd" clip-rule="evenodd" d="M14.0629 11.964C13.6817 11.964 13.3686 11.6477 13.3686 11.2581C13.3686 10.8684 13.6734 10.5522 14.0546 10.5522H14.0629C14.4441 10.5522 14.7534 10.8684 14.7534 11.2581C14.7534 11.6477 14.4441 11.964 14.0629 11.964ZM14.0629 15.5905C13.6817 15.5905 13.3686 15.2742 13.3686 14.8845C13.3686 14.4939 13.6734 14.1786 14.0546 14.1786H14.0629C14.4441 14.1786 14.7534 14.4939 14.7534 14.8845C14.7534 15.2742 14.4441 15.5905 14.0629 15.5905ZM10.0124 11.964C9.63123 11.964 9.31725 11.6477 9.31725 11.2581C9.31725 10.8684 9.62295 10.5522 10.0041 10.5522H10.0124C10.3936 10.5522 10.703 10.8684 10.703 11.2581C10.703 11.6477 10.3936 11.964 10.0124 11.964ZM10.0124 15.5905C9.63123 15.5905 9.31725 15.2742 9.31725 14.8845C9.31725 14.4939 9.62295 14.1786 10.0041 14.1786H10.0124C10.3936 14.1786 10.703 14.4939 10.703 14.8845C10.703 15.2742 10.3936 15.5905 10.0124 15.5905ZM5.95371 11.964C5.57251 11.964 5.25853 11.6477 5.25853 11.2581C5.25853 10.8684 5.56422 10.5522 5.94542 10.5522H5.95371C6.3349 10.5522 6.64428 10.8684 6.64428 11.2581C6.64428 11.6477 6.3349 11.964 5.95371 11.964ZM5.95371 15.5905C5.57251 15.5905 5.25853 15.2742 5.25853 14.8845C5.25853 14.4939 5.56422 14.1786 5.94542 14.1786H5.95371C6.3349 14.1786 6.64428 14.4939 6.64428 14.8845C6.64428 15.2742 6.3349 15.5905 5.95371 15.5905ZM18.8573 8.25847H1.14272C1.0488 9.03025 1 9.87075 1 10.8016C1 17.5924 3.35531 20 9.99954 20C16.6447 20 19 17.5924 19 10.8016C19 9.87075 18.9512 9.03025 18.8573 8.25847Z" fill="#1F73BB"/>
</svg>
