<svg width="11" height="7" viewBox="0 0 11 7" fill="none" xmlns="http://www.w3.org/2000/svg">
<path d="M1.59832 0.940743C1.26788 0.610298 0.732125 0.610297 0.40168 0.94074C0.071236 1.27118 0.0712345 1.80694 0.401677 2.13738L1.59832 0.940743ZM5.58142 6.1205L4.98309 6.71882C5.14178 6.87751 5.357 6.96666 5.58141 6.96666C5.80583 6.96666 6.02105 6.87751 6.17974 6.71882L5.58142 6.1205ZM10.7612 2.13738C11.0916 1.80694 11.0916 1.27119 10.7612 0.940741C10.4307 0.610298 9.89498 0.610298 9.56453 0.940741L10.7612 2.13738ZM0.401677 2.13738L4.98309 6.71882L6.17974 5.52218L1.59832 0.940743L0.401677 2.13738ZM6.17974 6.71882L8.47046 4.4281L7.27381 3.23146L4.98309 5.52218L6.17974 6.71882ZM8.47046 4.4281L10.7612 2.13738L9.56453 0.940741L7.27381 3.23146L8.47046 4.4281Z" fill="#1B75BC"/>
</svg>
