<svg width="18" height="20" viewBox="0 0 18 20" fill="none" xmlns="http://www.w3.org/2000/svg">
<path fill-rule="evenodd" clip-rule="evenodd" d="M13.2239 2.60392V1.17061C13.2239 0.800433 12.9336 0.5 12.576 0.5C12.2183 0.5 11.928 0.800433 11.928 1.17061V4.0882C11.928 4.32068 12.0498 4.5165 12.2243 4.63631C12.1215 4.70785 12.0049 4.75881 11.8719 4.75881C11.5142 4.75881 11.2239 4.45838 11.2239 4.0882V2.15149C10.531 2.06565 9.77598 2.02183 8.94401 2.02183C7.96432 2.02183 7.09089 2.08264 6.30558 2.20513V1.17061C6.30558 0.800433 6.01531 0.5 5.65764 0.5C5.29997 0.5 5.0097 0.800433 5.0097 1.17061V4.0882C5.0097 4.32068 5.13151 4.5165 5.30602 4.63631C5.20322 4.70785 5.08659 4.75881 4.95354 4.75881C4.59587 4.75881 4.3056 4.45838 4.3056 4.0882V2.72016C2.46198 3.45604 1.38034 4.82498 0.868898 7.0049H17.02C16.4774 4.69265 15.2783 3.30493 13.2239 2.60392Z" fill="#1F73BB"/>
<path fill-rule="evenodd" clip-rule="evenodd" d="M12.7565 11.8658C12.3989 11.8658 12.1051 11.5654 12.1051 11.1952C12.1051 10.825 12.3911 10.5246 12.7487 10.5246H12.7565C13.1142 10.5246 13.4045 10.825 13.4045 11.1952C13.4045 11.5654 13.1142 11.8658 12.7565 11.8658ZM12.7565 15.3109C12.3989 15.3109 12.1051 15.0105 12.1051 14.6403C12.1051 14.2693 12.3911 13.9697 12.7487 13.9697H12.7565C13.1142 13.9697 13.4045 14.2693 13.4045 14.6403C13.4045 15.0105 13.1142 15.3109 12.7565 15.3109ZM8.95611 11.8658C8.59844 11.8658 8.30384 11.5654 8.30384 11.1952C8.30384 10.825 8.59067 10.5246 8.94833 10.5246H8.95611C9.31377 10.5246 9.60405 10.825 9.60405 11.1952C9.60405 11.5654 9.31377 11.8658 8.95611 11.8658ZM8.95611 15.3109C8.59844 15.3109 8.30384 15.0105 8.30384 14.6403C8.30384 14.2693 8.59067 13.9697 8.94833 13.9697H8.95611C9.31377 13.9697 9.60405 14.2693 9.60405 14.6403C9.60405 15.0105 9.31377 15.3109 8.95611 15.3109ZM5.14792 11.8658C4.79026 11.8658 4.49566 11.5654 4.49566 11.1952C4.49566 10.825 4.78248 10.5246 5.14015 10.5246H5.14792C5.50559 10.5246 5.79587 10.825 5.79587 11.1952C5.79587 11.5654 5.50559 11.8658 5.14792 11.8658ZM5.14792 15.3109C4.79026 15.3109 4.49566 15.0105 4.49566 14.6403C4.49566 14.2693 4.78248 13.9697 5.14015 13.9697H5.14792C5.50559 13.9697 5.79587 14.2693 5.79587 14.6403C5.79587 15.0105 5.50559 15.3109 5.14792 15.3109ZM17.255 8.34554H0.633909C0.545788 9.07874 0.5 9.87721 0.5 10.7615C0.5 17.2128 2.70992 19.5 8.94401 19.5C15.179 19.5 17.3889 17.2128 17.3889 10.7615C17.3889 9.87721 17.3431 9.07874 17.255 8.34554Z" fill="#1F73BB"/>
</svg>
