<svg width="26" height="30" viewBox="0 0 26 30" fill="none" xmlns="http://www.w3.org/2000/svg">
<path fill-rule="evenodd" clip-rule="evenodd" d="M19.2487 1.92188L19.2501 2.98385C23.1526 3.2897 25.7304 5.94886 25.7346 10.0268L25.75 21.9633C25.7556 26.4095 22.9623 29.1451 18.4851 29.1522L7.5485 29.1663C3.09919 29.172 0.27099 26.3712 0.265395 21.9124L0.250009 10.116C0.244415 6.01117 2.73133 3.35908 6.63374 3.00084L6.63234 1.93887C6.63094 1.31585 7.09252 0.847171 7.70796 0.847171C8.32339 0.845755 8.78496 1.31302 8.78636 1.93604L8.78776 2.92721L17.0961 2.91588L17.0947 1.92471C17.0933 1.30169 17.5549 0.834427 18.1703 0.833011C18.7718 0.831595 19.2474 1.29886 19.2487 1.92188ZM2.40543 10.5536L23.582 10.5252V10.0297C23.5218 6.98535 21.9944 5.38815 19.253 5.15027L19.2543 6.24055C19.2543 6.84942 18.7802 7.33226 18.1787 7.33226C17.5633 7.33367 17.1003 6.85225 17.1003 6.24339L17.0989 5.09646L8.79056 5.10779L8.79196 6.2533C8.79196 6.86357 8.33179 7.345 7.71635 7.345C7.10092 7.34642 6.63794 6.86641 6.63794 6.25613L6.63654 5.16584C3.90905 5.43912 2.39984 7.04199 2.40403 10.1132L2.40543 10.5536ZM17.5899 16.9891V17.0047C17.6039 17.656 18.1354 18.1502 18.7802 18.136C19.4096 18.1204 19.9117 17.581 19.8978 16.9296C19.8684 16.3066 19.3634 15.7983 18.7354 15.7997C18.092 15.8138 17.5885 16.3377 17.5899 16.9891ZM18.7452 23.3467C18.1018 23.3326 17.5829 22.7959 17.5815 22.1446C17.5675 21.4932 18.0836 20.9538 18.727 20.9382H18.741C19.3984 20.9382 19.9313 21.4748 19.9313 22.1403C19.9327 22.8058 19.4012 23.3453 18.7452 23.3467ZM11.8272 17.0117C11.8551 17.6631 12.3881 18.1714 13.0315 18.1431C13.6609 18.1134 14.163 17.5753 14.135 16.924C14.1197 16.2868 13.6021 15.7912 12.9727 15.7926C12.3293 15.8209 11.8258 16.3604 11.8272 17.0117ZM13.0371 23.283C12.3937 23.3113 11.8621 22.803 11.8328 22.1517C11.8328 21.5003 12.3349 20.9623 12.9783 20.9325C13.6077 20.9311 14.1267 21.4267 14.1406 22.0625C14.17 22.7152 13.6665 23.2533 13.0371 23.283ZM6.06447 17.0613C6.09244 17.7126 6.62535 18.2224 7.26876 18.1927C7.89818 18.1643 8.40032 17.6249 8.37095 16.9735C8.35696 16.3363 7.83944 15.8407 7.20862 15.8422C6.56521 15.8705 6.06307 16.41 6.06447 17.0613ZM7.27436 23.2901C6.63095 23.3198 6.09944 22.8101 6.07006 22.1587C6.06867 21.5074 6.5722 20.9679 7.21561 20.9396C7.84503 20.9382 8.36396 21.4338 8.37794 22.071C8.40732 22.7223 7.90518 23.2618 7.27436 23.2901Z" fill="white"/>
</svg>
