<svg width="34" height="34" viewBox="0 0 34 34" fill="none" xmlns="http://www.w3.org/2000/svg">
<path d="M20.4252 7.77732C19.7508 7.65274 19.1315 8.08311 19.0031 8.74141C18.8747 9.39971 19.3064 10.0424 19.9625 10.1713C21.9377 10.5563 23.4628 12.0853 23.8494 14.0673V14.0687C23.9594 14.6392 24.4617 15.054 25.0401 15.054C25.1177 15.054 25.1953 15.0469 25.2743 15.0328C25.9304 14.9011 26.3621 14.2598 26.2337 13.6001C25.6567 10.6399 23.3782 8.35351 20.4252 7.77732Z" fill="white"/>
<path d="M20.3371 2.84424C20.0211 2.79894 19.7037 2.89238 19.4511 3.0934C19.1915 3.29726 19.0293 3.59173 18.994 3.92159C18.9192 4.58838 19.4003 5.19146 20.0662 5.26649C24.6586 5.77898 28.2281 9.35644 28.7444 13.9631C28.8136 14.5803 29.3314 15.0461 29.9493 15.0461C29.9959 15.0461 30.041 15.0433 30.0876 15.0376C30.4107 15.0022 30.6985 14.8423 30.9017 14.5874C31.1034 14.3326 31.1951 14.0155 31.1584 13.6913C30.5151 7.94357 26.0666 3.48272 20.3371 2.84424Z" fill="white"/>
<path fill-rule="evenodd" clip-rule="evenodd" d="M15.629 18.3775C21.2802 24.0272 22.5622 17.4912 26.1603 21.0868C29.6292 24.5547 31.6229 25.2495 27.2279 29.6434C26.6774 30.0858 23.1796 35.4085 10.8872 23.1195C-1.40678 10.829 3.9129 7.32763 4.35544 6.77726C8.76113 2.37128 9.44396 4.37663 12.9128 7.84455C16.511 11.4417 9.97775 12.7279 15.629 18.3775Z" fill="white"/>
</svg>
