<svg width="32" height="33" viewBox="0 0 32 33" fill="none" xmlns="http://www.w3.org/2000/svg">
<g filter="url(#filter0_b_620_1298)">
<rect x="0.660156" y="0.701172" width="31.3402" height="31.3402" rx="15.6701" fill="#1B75BC"/>
<path fill-rule="evenodd" clip-rule="evenodd" d="M19.6402 15.1118C19.3618 15.1118 19.1331 14.8858 19.1331 14.6073C19.1331 14.3289 19.3558 14.1029 19.6342 14.1029H19.6402C19.9187 14.1029 20.1447 14.3289 20.1447 14.6073C20.1447 14.8858 19.9187 15.1118 19.6402 15.1118ZM16.3305 19.5803C14.8859 19.5803 13.7109 18.4047 13.7109 16.96C13.7109 15.516 14.8859 14.341 16.3305 14.341C17.7752 14.341 18.9502 15.516 18.9502 16.96C18.9502 18.4047 17.7752 19.5803 16.3305 19.5803ZM20.1097 12.3381C19.996 12.3025 19.8306 12.2278 19.6914 12.0751C19.6335 12.0119 19.5555 11.8539 19.4802 11.7019C19.2771 11.2909 18.9993 10.7287 18.4404 10.4933C17.7221 10.1919 14.9646 10.1906 14.2227 10.4919C13.6712 10.7186 13.3901 11.2835 13.185 11.6958C13.1076 11.8505 13.0282 12.0106 12.9691 12.0751C12.8305 12.2285 12.6651 12.3025 12.5622 12.3354C10.3447 12.9488 9.93848 14.3901 9.93848 17.0064C9.93848 20.7889 10.8612 22.4764 16.3305 22.4764C21.7992 22.4764 22.7219 20.7889 22.7219 17.0064C22.7219 14.3901 22.3164 12.9488 20.1097 12.3381Z" fill="white"/>
<path fill-rule="evenodd" clip-rule="evenodd" d="M16.3306 15.3495C15.4422 15.3495 14.7198 16.0719 14.7198 16.9603C14.7198 17.8488 15.4422 18.5711 16.3306 18.5711C17.2191 18.5711 17.9414 17.8488 17.9414 16.9603C17.9414 16.0719 17.2191 15.3495 16.3306 15.3495Z" fill="white"/>
</g>
<defs>
<filter id="filter0_b_620_1298" x="-2.24219" y="-2.20118" width="37.1445" height="37.1445" filterUnits="userSpaceOnUse" color-interpolation-filters="sRGB">
<feFlood flood-opacity="0" result="BackgroundImageFix"/>
<feGaussianBlur in="BackgroundImageFix" stdDeviation="1.45117"/>
<feComposite in2="SourceAlpha" operator="in" result="effect1_backgroundBlur_620_1298"/>
<feBlend mode="normal" in="SourceGraphic" in2="effect1_backgroundBlur_620_1298" result="shape"/>
</filter>
</defs>
</svg>
