<svg width="21" height="21" viewBox="0 0 21 21" fill="none" xmlns="http://www.w3.org/2000/svg">
<g clip-path="url(#clip0_1418_3057)">
<path d="M10.5 0C8.42327 0 6.3932 0.615814 4.66649 1.76957C2.93977 2.92332 1.59396 4.5632 0.799238 6.48182C0.00451827 8.40044 -0.203416 10.5116 0.201729 12.5484C0.606874 14.5852 1.6069 16.4562 3.07535 17.9246C4.5438 19.3931 6.41472 20.3931 8.45152 20.7982C10.4883 21.2034 12.5995 20.9955 14.5181 20.2007C16.4368 19.406 18.0766 18.0602 19.2304 16.3335C20.3842 14.6068 21 12.5767 21 10.5C20.9966 7.71626 19.8893 5.04751 17.9209 3.07911C15.9525 1.11072 13.2837 0.00338272 10.5 0ZM15.4422 8.64174L10.5548 13.5292C10.4278 13.6566 10.277 13.7577 10.1109 13.8267C9.94485 13.8957 9.76677 13.9313 9.58693 13.9313C9.40708 13.9313 9.22901 13.8957 9.06292 13.8267C8.89684 13.7577 8.74601 13.6566 8.6191 13.5292L6.55772 11.4678C6.42316 11.3424 6.31524 11.1912 6.24038 11.0232C6.16553 10.8552 6.12528 10.6739 6.12203 10.49C6.11879 10.3061 6.15262 10.1234 6.2215 9.95291C6.29038 9.78237 6.39291 9.62746 6.52296 9.49741C6.65301 9.36735 6.80792 9.26483 6.97846 9.19595C7.14899 9.12707 7.33165 9.09324 7.51554 9.09648C7.69944 9.09973 7.88079 9.13998 8.04879 9.21483C8.21679 9.28969 8.36799 9.39761 8.49338 9.53217L9.58693 10.6239L13.5066 6.70609C13.632 6.57153 13.7832 6.4636 13.9512 6.38875C14.1192 6.31389 14.3005 6.27364 14.4844 6.2704C14.6683 6.26715 14.851 6.30098 15.0215 6.36986C15.192 6.43874 15.3469 6.54127 15.477 6.67132C15.607 6.80137 15.7096 6.95628 15.7784 7.12682C15.8473 7.29735 15.8812 7.48002 15.8779 7.66391C15.8747 7.8478 15.8344 8.02916 15.7596 8.19716C15.6847 8.36515 15.5768 8.51635 15.4422 8.64174Z" fill="white"/>
</g>
<defs>
<clipPath id="clip0_1418_3057">
<rect width="21" height="21" fill="white"/>
</clipPath>
</defs>
</svg>
