<svg width="56" height="61" viewBox="0 0 56 61" fill="none" xmlns="http://www.w3.org/2000/svg">
<path d="M35.1274 10.1488L33.0841 6.41697C33.8018 5.22511 33.9007 3.70164 33.1854 2.3953L32.7003 1.50929C32.4321 1.01951 31.8188 0.840193 31.329 1.10836L1.20275 17.6037C0.712972 17.8719 0.533652 18.4852 0.801823 18.975L1.287 19.8611C2.00222 21.1673 3.33905 21.9047 4.72985 21.9421L6.77311 25.6738C8.69574 29.1852 12.0329 31.7264 15.9285 32.6459L21.7167 34.0126L19.7501 39.6253C18.4262 43.4027 18.7693 47.5832 20.692 51.0946L22.7352 54.8263C22.0176 56.0182 21.9186 57.5417 22.6339 58.8481L23.1191 59.7342C23.3872 60.2238 24.0005 60.4032 24.4903 60.135L54.6167 43.6396C55.1065 43.3714 55.2858 42.7581 55.0176 42.2684L54.5324 41.3823C53.8172 40.076 52.4804 39.3387 51.0896 39.3012L49.0463 35.5695C47.1237 32.0581 43.7865 29.5169 39.8909 28.5974L34.1026 27.2308L36.0693 21.618C37.3932 17.8406 37.05 13.6601 35.1274 10.1488ZM32.2562 20.2821L29.5474 28.0132C29.3574 28.5536 29.4065 29.1486 29.6818 29.6514C29.957 30.1541 30.432 30.5161 30.9896 30.6471L38.9622 32.5297C41.7447 33.187 44.1289 35.0026 45.5019 37.5102L47.2753 40.749L45.0597 41.9622L31.7235 35.9049C31.145 35.6413 30.3957 36.0516 30.3061 36.6809L28.2253 51.1797L26.0097 52.3928L24.2363 49.154C22.8632 46.6463 22.618 43.6595 23.5632 40.9611L26.272 33.2301C26.4619 32.6896 26.4129 32.0946 26.1376 31.5919C25.8623 31.0891 25.3874 30.7271 24.8298 30.5961L16.8572 28.7136C14.0747 28.0564 11.6904 26.2408 10.3174 23.7332L8.54401 20.4943L29.8097 8.85055L31.5831 12.0894C32.9561 14.597 33.2013 17.5838 32.2562 20.2821Z" fill="#47525A"/>
<path d="M29.1654 18.4173L16.9499 25.1057C16.5995 25.2976 16.3951 25.6783 16.4286 26.0762C16.4625 26.4749 16.7268 26.8161 17.1052 26.9463L26.3914 29.2602C26.6439 29.321 26.8985 29.2805 27.1113 29.164C27.3242 29.0474 27.4954 28.8547 27.5802 28.6092L30.6324 19.5396C30.7265 19.1507 30.5815 18.7442 30.2638 18.5008C29.9467 18.2583 29.5159 18.2254 29.1654 18.4173Z" fill="#47525A"/>
</svg>
