<svg width="106" height="33" viewBox="0 0 106 33" fill="none" xmlns="http://www.w3.org/2000/svg">
<rect width="106" height="33" rx="10" fill="white"/>
<rect width="106" height="33" rx="10" fill="#8DC63F"/>
<g clip-path="url(#clip0_1207_3183)">
<path d="M20.5 8C18.8189 8 17.1755 8.49852 15.7777 9.43251C14.3798 10.3665 13.2904 11.694 12.647 13.2472C12.0037 14.8004 11.8354 16.5094 12.1633 18.1583C12.4913 19.8071 13.3008 21.3217 14.4896 22.5104C15.6783 23.6992 17.1929 24.5087 18.8417 24.8367C20.4906 25.1646 22.1996 24.9963 23.7528 24.353C25.306 23.7096 26.6335 22.6202 27.5675 21.2223C28.5015 19.8245 29 18.1811 29 16.5C28.9973 14.2465 28.1008 12.0861 26.5074 10.4926C24.9139 8.89915 22.7535 8.00274 20.5 8ZM24.5009 15.8052L20.5444 19.7617C20.4416 19.8649 20.3195 19.9467 20.1851 20.0026C20.0506 20.0585 19.9065 20.0872 19.7609 20.0872C19.6153 20.0872 19.4711 20.0585 19.3367 20.0026C19.2022 19.9467 19.0801 19.8649 18.9774 19.7617L16.4991 17.2835C16.3902 17.182 16.3028 17.0596 16.2422 16.9236C16.1816 16.7876 16.1491 16.6408 16.1464 16.4919C16.1438 16.343 16.1712 16.1952 16.227 16.0571C16.2827 15.9191 16.3657 15.7937 16.471 15.6884C16.5763 15.5831 16.7017 15.5001 16.8397 15.4443C16.9778 15.3886 17.1256 15.3612 17.2745 15.3638C17.4234 15.3664 17.5702 15.399 17.7062 15.4596C17.8422 15.5202 17.9646 15.6076 18.0661 15.7165L19.7609 17.4098L22.9339 14.2383C23.0354 14.1293 23.1578 14.042 23.2938 13.9814C23.4298 13.9208 23.5766 13.8882 23.7255 13.8856C23.8744 13.8829 24.0222 13.9103 24.1603 13.9661C24.2983 14.0218 24.4237 14.1048 24.529 14.2101C24.6343 14.3154 24.7173 14.4408 24.7731 14.5789C24.8288 14.7169 24.8562 14.8648 24.8536 15.0136C24.8509 15.1625 24.8184 15.3093 24.7578 15.4453C24.6972 15.5813 24.6098 15.7037 24.5009 15.8052Z" fill="white"/>
</g>
<path d="M42.4576 19.074C42.5336 19.074 42.5996 19.104 42.6556 19.164L43.2136 19.77C42.8616 20.194 42.4296 20.522 41.9176 20.754C41.4056 20.982 40.7936 21.096 40.0816 21.096C39.4496 21.096 38.8776 20.988 38.3656 20.772C37.8576 20.552 37.4236 20.248 37.0636 19.86C36.7036 19.468 36.4256 19.002 36.2296 18.462C36.0376 17.922 35.9416 17.328 35.9416 16.68C35.9416 16.032 36.0436 15.438 36.2476 14.898C36.4556 14.354 36.7456 13.888 37.1176 13.5C37.4936 13.108 37.9416 12.804 38.4616 12.588C38.9856 12.372 39.5616 12.264 40.1896 12.264C40.8136 12.264 41.3636 12.366 41.8396 12.57C42.3196 12.77 42.7356 13.038 43.0876 13.374L42.6256 14.028C42.5936 14.072 42.5556 14.11 42.5116 14.142C42.4676 14.174 42.4076 14.19 42.3316 14.19C42.2516 14.19 42.1596 14.154 42.0556 14.082C41.9556 14.006 41.8256 13.924 41.6656 13.836C41.5096 13.744 41.3116 13.662 41.0716 13.59C40.8356 13.514 40.5396 13.476 40.1836 13.476C39.7716 13.476 39.3936 13.548 39.0496 13.692C38.7056 13.836 38.4096 14.046 38.1616 14.322C37.9136 14.598 37.7196 14.934 37.5796 15.33C37.4436 15.726 37.3756 16.176 37.3756 16.68C37.3756 17.188 37.4476 17.642 37.5916 18.042C37.7356 18.438 37.9336 18.774 38.1856 19.05C38.4376 19.322 38.7336 19.53 39.0736 19.674C39.4136 19.818 39.7796 19.89 40.1716 19.89C40.4116 19.89 40.6256 19.878 40.8136 19.854C41.0056 19.826 41.1816 19.784 41.3416 19.728C41.5016 19.668 41.6516 19.594 41.7916 19.506C41.9356 19.418 42.0776 19.31 42.2176 19.182C42.2976 19.11 42.3776 19.074 42.4576 19.074ZM46.7035 14.784C47.1555 14.784 47.5635 14.858 47.9275 15.006C48.2955 15.154 48.6075 15.364 48.8635 15.636C49.1235 15.908 49.3235 16.238 49.4635 16.626C49.6035 17.014 49.6735 17.45 49.6735 17.934C49.6735 18.418 49.6035 18.854 49.4635 19.242C49.3235 19.63 49.1235 19.962 48.8635 20.238C48.6075 20.51 48.2955 20.72 47.9275 20.868C47.5635 21.016 47.1555 21.09 46.7035 21.09C46.2475 21.09 45.8355 21.016 45.4675 20.868C45.1035 20.72 44.7915 20.51 44.5315 20.238C44.2715 19.962 44.0715 19.63 43.9315 19.242C43.7915 18.854 43.7215 18.418 43.7215 17.934C43.7215 17.45 43.7915 17.014 43.9315 16.626C44.0715 16.238 44.2715 15.908 44.5315 15.636C44.7915 15.364 45.1035 15.154 45.4675 15.006C45.8355 14.858 46.2475 14.784 46.7035 14.784ZM46.7035 20.082C47.2555 20.082 47.6655 19.898 47.9335 19.53C48.2055 19.158 48.3415 18.628 48.3415 17.94C48.3415 17.252 48.2055 16.722 47.9335 16.35C47.6655 15.974 47.2555 15.786 46.7035 15.786C46.1435 15.786 45.7275 15.974 45.4555 16.35C45.1835 16.722 45.0475 17.252 45.0475 17.94C45.0475 18.628 45.1835 19.158 45.4555 19.53C45.7275 19.898 46.1435 20.082 46.7035 20.082ZM50.913 21V14.88H51.693C51.869 14.88 51.981 14.962 52.029 15.126L52.113 15.66C52.225 15.532 52.341 15.416 52.461 15.312C52.581 15.204 52.709 15.112 52.845 15.036C52.985 14.956 53.133 14.894 53.289 14.85C53.449 14.806 53.621 14.784 53.805 14.784C54.001 14.784 54.181 14.812 54.345 14.868C54.509 14.924 54.653 15.004 54.777 15.108C54.905 15.212 55.015 15.338 55.107 15.486C55.199 15.634 55.275 15.8 55.335 15.984C55.427 15.772 55.543 15.59 55.683 15.438C55.823 15.286 55.979 15.162 56.151 15.066C56.323 14.97 56.505 14.9 56.697 14.856C56.893 14.808 57.091 14.784 57.291 14.784C57.619 14.784 57.911 14.836 58.167 14.94C58.427 15.044 58.645 15.196 58.821 15.396C59.001 15.592 59.137 15.834 59.229 16.122C59.321 16.41 59.367 16.738 59.367 17.106V21H58.077V17.106C58.077 16.674 57.983 16.35 57.795 16.134C57.611 15.914 57.337 15.804 56.973 15.804C56.809 15.804 56.655 15.832 56.511 15.888C56.367 15.944 56.241 16.026 56.133 16.134C56.025 16.242 55.939 16.378 55.875 16.542C55.815 16.702 55.785 16.89 55.785 17.106V21H54.495V17.106C54.495 16.658 54.405 16.33 54.225 16.122C54.045 15.91 53.781 15.804 53.433 15.804C53.193 15.804 52.971 15.866 52.767 15.99C52.563 16.11 52.375 16.276 52.203 16.488V21H50.913ZM62.1639 19.464C62.3439 19.696 62.5399 19.86 62.7519 19.956C62.9679 20.048 63.2059 20.094 63.4659 20.094C63.9699 20.094 64.3619 19.91 64.6419 19.542C64.9259 19.174 65.0679 18.626 65.0679 17.898C65.0679 17.522 65.0359 17.202 64.9719 16.938C64.9079 16.67 64.8159 16.452 64.6959 16.284C64.5759 16.116 64.4299 15.994 64.2579 15.918C64.0859 15.842 63.8919 15.804 63.6759 15.804C63.3479 15.804 63.0639 15.876 62.8239 16.02C62.5879 16.16 62.3679 16.362 62.1639 16.626V19.464ZM62.0979 15.768C62.3539 15.468 62.6439 15.226 62.9679 15.042C63.2959 14.858 63.6759 14.766 64.1079 14.766C64.4519 14.766 64.7639 14.836 65.0439 14.976C65.3239 15.112 65.5639 15.312 65.7639 15.576C65.9639 15.84 66.1179 16.168 66.2259 16.56C66.3379 16.948 66.3939 17.394 66.3939 17.898C66.3939 18.35 66.3319 18.772 66.2079 19.164C66.0879 19.552 65.9139 19.89 65.6859 20.178C65.4579 20.462 65.1819 20.686 64.8579 20.85C64.5339 21.01 64.1679 21.09 63.7599 21.09C63.3999 21.09 63.0939 21.032 62.8419 20.916C62.5939 20.8 62.3679 20.64 62.1639 20.436V23.034H60.8739V14.88H61.6539C61.8299 14.88 61.9419 14.962 61.9899 15.126L62.0979 15.768ZM68.9613 12.12V21H67.6713V12.12H68.9613ZM74.5676 17.25C74.5676 17.034 74.5356 16.834 74.4716 16.65C74.4116 16.462 74.3216 16.3 74.2016 16.164C74.0816 16.024 73.9316 15.916 73.7516 15.84C73.5756 15.76 73.3716 15.72 73.1396 15.72C72.6716 15.72 72.3036 15.854 72.0356 16.122C71.7676 16.39 71.5976 16.766 71.5256 17.25H74.5676ZM71.4896 18.042C71.5056 18.39 71.5596 18.692 71.6516 18.948C71.7436 19.2 71.8656 19.41 72.0176 19.578C72.1736 19.746 72.3576 19.872 72.5696 19.956C72.7856 20.036 73.0256 20.076 73.2896 20.076C73.5416 20.076 73.7596 20.048 73.9436 19.992C74.1276 19.932 74.2876 19.868 74.4236 19.8C74.5596 19.728 74.6756 19.664 74.7716 19.608C74.8676 19.548 74.9556 19.518 75.0356 19.518C75.1396 19.518 75.2196 19.558 75.2756 19.638L75.6416 20.112C75.4896 20.292 75.3176 20.444 75.1256 20.568C74.9336 20.692 74.7296 20.794 74.5136 20.874C74.2976 20.95 74.0756 21.004 73.8476 21.036C73.6196 21.072 73.3976 21.09 73.1816 21.09C72.7576 21.09 72.3636 21.02 71.9996 20.88C71.6396 20.736 71.3256 20.526 71.0576 20.25C70.7936 19.974 70.5856 19.632 70.4336 19.224C70.2856 18.816 70.2116 18.346 70.2116 17.814C70.2116 17.39 70.2776 16.994 70.4096 16.626C70.5456 16.258 70.7376 15.938 70.9856 15.666C71.2376 15.394 71.5416 15.18 71.8976 15.024C72.2576 14.864 72.6636 14.784 73.1156 14.784C73.4916 14.784 73.8396 14.846 74.1596 14.97C74.4796 15.09 74.7556 15.268 74.9876 15.504C75.2196 15.74 75.3996 16.03 75.5276 16.374C75.6596 16.714 75.7256 17.102 75.7256 17.538C75.7256 17.738 75.7036 17.872 75.6596 17.94C75.6156 18.008 75.5356 18.042 75.4196 18.042H71.4896ZM78.832 21.096C78.324 21.096 77.932 20.954 77.656 20.67C77.384 20.382 77.248 19.978 77.248 19.458V15.894H76.576C76.504 15.894 76.442 15.872 76.39 15.828C76.338 15.78 76.312 15.71 76.312 15.618V15.096L77.302 14.952L77.584 13.182C77.604 13.114 77.638 13.06 77.686 13.02C77.734 12.976 77.798 12.954 77.878 12.954H78.538V14.964H80.236V15.894H78.538V19.368C78.538 19.588 78.592 19.756 78.7 19.872C78.808 19.988 78.952 20.046 79.132 20.046C79.232 20.046 79.318 20.034 79.39 20.01C79.462 19.982 79.524 19.954 79.576 19.926C79.628 19.894 79.672 19.866 79.708 19.842C79.748 19.814 79.786 19.8 79.822 19.8C79.894 19.8 79.952 19.84 79.996 19.92L80.38 20.55C80.18 20.726 79.944 20.862 79.672 20.958C79.4 21.05 79.12 21.096 78.832 21.096ZM85.2199 17.25C85.2199 17.034 85.1879 16.834 85.1239 16.65C85.0639 16.462 84.9739 16.3 84.8539 16.164C84.7339 16.024 84.5839 15.916 84.4039 15.84C84.2279 15.76 84.0239 15.72 83.7919 15.72C83.3239 15.72 82.9559 15.854 82.6879 16.122C82.4199 16.39 82.2499 16.766 82.1779 17.25H85.2199ZM82.1419 18.042C82.1579 18.39 82.2119 18.692 82.3039 18.948C82.3959 19.2 82.5179 19.41 82.6699 19.578C82.8259 19.746 83.0099 19.872 83.2219 19.956C83.4379 20.036 83.6779 20.076 83.9419 20.076C84.1939 20.076 84.4119 20.048 84.5959 19.992C84.7799 19.932 84.9399 19.868 85.0759 19.8C85.2119 19.728 85.3279 19.664 85.4239 19.608C85.5199 19.548 85.6079 19.518 85.6879 19.518C85.7919 19.518 85.8719 19.558 85.9279 19.638L86.2939 20.112C86.1419 20.292 85.9699 20.444 85.7779 20.568C85.5859 20.692 85.3819 20.794 85.1659 20.874C84.9499 20.95 84.7279 21.004 84.4999 21.036C84.2719 21.072 84.0499 21.09 83.8339 21.09C83.4099 21.09 83.0159 21.02 82.6519 20.88C82.2919 20.736 81.9779 20.526 81.7099 20.25C81.4459 19.974 81.2379 19.632 81.0859 19.224C80.9379 18.816 80.8639 18.346 80.8639 17.814C80.8639 17.39 80.9299 16.994 81.0619 16.626C81.1979 16.258 81.3899 15.938 81.6379 15.666C81.8899 15.394 82.1939 15.18 82.5499 15.024C82.9099 14.864 83.3159 14.784 83.7679 14.784C84.1439 14.784 84.4919 14.846 84.8119 14.97C85.1319 15.09 85.4079 15.268 85.6399 15.504C85.8719 15.74 86.0519 16.03 86.1799 16.374C86.3119 16.714 86.3779 17.102 86.3779 17.538C86.3779 17.738 86.3559 17.872 86.3119 17.94C86.2679 18.008 86.1879 18.042 86.0719 18.042H82.1419ZM91.4869 16.386C91.3069 16.154 91.1089 15.992 90.8929 15.9C90.6769 15.808 90.4429 15.762 90.1909 15.762C89.6869 15.762 89.2929 15.948 89.0089 16.32C88.7249 16.688 88.5829 17.234 88.5829 17.958C88.5829 18.334 88.6149 18.656 88.6789 18.924C88.7429 19.188 88.8349 19.404 88.9549 19.572C89.0749 19.74 89.2209 19.862 89.3929 19.938C89.5649 20.014 89.7589 20.052 89.9749 20.052C90.3029 20.052 90.5849 19.982 90.8209 19.842C91.0609 19.698 91.2829 19.496 91.4869 19.236V16.386ZM92.7769 12.12V21H91.9969C91.8249 21 91.7149 20.918 91.6669 20.754L91.5529 20.088C91.2969 20.388 91.0049 20.63 90.6769 20.814C90.3529 20.998 89.9749 21.09 89.5429 21.09C89.1989 21.09 88.8869 21.022 88.6069 20.886C88.3269 20.746 88.0869 20.544 87.8869 20.28C87.6869 20.016 87.5309 19.69 87.4189 19.302C87.3109 18.91 87.2569 18.462 87.2569 17.958C87.2569 17.502 87.3169 17.08 87.4369 16.692C87.5609 16.304 87.7369 15.968 87.9649 15.684C88.1929 15.396 88.4689 15.172 88.7929 15.012C89.1209 14.848 89.4869 14.766 89.8909 14.766C90.2509 14.766 90.5569 14.824 90.8089 14.94C91.0609 15.052 91.2869 15.21 91.4869 15.414V12.12H92.7769Z" fill="white"/>
<defs>
<clipPath id="clip0_1207_3183">
<rect width="17" height="17" fill="white" transform="translate(12 8)"/>
</clipPath>
</defs>
</svg>
