<svg width="93" height="93" viewBox="0 0 93 93" fill="none" xmlns="http://www.w3.org/2000/svg">
<circle cx="46.5" cy="46.5" r="46.5" fill="#F0F8FF"/>
<path d="M69.4508 39.3541V36.6365C69.4508 33.5235 67.2031 31 64.4305 31H28.5711C25.7984 31 23.5508 33.5235 23.5508 36.6365V39.3541C23.5508 39.632 23.7515 39.8574 23.999 39.8574H69.0025C69.2501 39.8574 69.4508 39.632 69.4508 39.3541Z" fill="#1F73BB"/>
<path d="M23.5508 42.5008V57.1899C23.5508 59.8466 25.7984 62.0004 28.5711 62.0004H64.4305C67.2031 62.0004 69.4508 59.8466 69.4508 57.1899V42.5008C69.4508 42.2636 69.2501 42.0713 69.0025 42.0713H23.999C23.7515 42.0713 23.5508 42.2636 23.5508 42.5008ZM35.0258 53.7538C35.0258 54.5129 34.3835 55.1283 33.5914 55.1283H32.157C31.3649 55.1283 30.7227 54.5129 30.7227 53.7538V52.3794C30.7227 51.6204 31.3649 51.005 32.157 51.005H33.5914C34.3835 51.005 35.0258 51.6204 35.0258 52.3794V53.7538Z" fill="#1F73BB"/>
</svg>
