<svg width="35" height="51" viewBox="0 0 35 51" fill="none" xmlns="http://www.w3.org/2000/svg">
<g filter="url(#filter0_b_552_636)">
<path d="M29.3396 9.02933C28.9768 7.87451 28.1395 5.28865 25.6257 3.22985C22.8082 0.894739 19.6219 0.718172 18.4506 0.718829C18.4005 0.718855 18.3542 0.719205 18.3117 0.719724C17.7904 0.666272 17.2883 0.641661 16.8057 0.641602C11.2802 0.640745 8.30801 3.85805 8.30801 3.85805C5.93216 5.54039 7.44485 8.0759 7.44485 8.0759C7.2074 8.28296 6.96984 8.48696 6.73228 8.69095C6.49477 8.89491 6.2571 9.099 6.0197 9.30601C5.96391 9.43937 5.88453 9.63849 5.80062 9.88251C5.40573 11.0341 5.27648 12.1313 5.27657 13.1232C5.27657 13.7989 5.33662 14.4258 5.41378 14.9878L5.42097 15.0397H5.40056C5.44363 15.2982 5.49161 15.5496 5.53945 15.8004L5.54707 15.8403L5.55098 15.8623L5.57 15.973L5.40211 15.8047C3.77103 16.598 2.94869 18.4604 3.44581 20.1613C3.91708 21.7761 5.46924 22.8792 7.18423 22.7907L6.1995 18.6274C7.23492 22.3542 8.67871 25.0998 9.78351 26.88C12.2805 30.9014 14.1628 31.8095 15.2727 32.1896C15.8229 32.3778 17.8985 32.9929 20.2118 32.1896C21.5911 31.7106 23.1601 30.6737 25.2883 27.0932C26.1582 25.6299 27.2355 23.5466 28.1553 20.8342C28.1529 20.8667 28.1506 20.9019 28.1484 20.936L28.144 21.0029C28.7223 19.7175 29.4576 17.7109 29.7275 15.1554L29.7351 15.0828C29.8965 13.5537 30.1138 11.4957 29.3396 9.02933Z" fill="url(#paint0_linear_552_636)"/>
<path d="M6.96984 49.9239H29.2569C29.3541 49.9239 29.98 49.9239 30.7497 49.9239C32.5445 49.9239 33.9998 48.469 33.9998 46.6742C33.9998 40.788 29.8241 35.7229 24.0696 34.6307C24.041 34.6248 23.997 34.6189 23.982 34.6225L23.9058 34.6227L21.6255 31.7712L19.7821 32.4543C19.075 32.716 18.3352 32.857 17.5899 32.8929C16.402 32.95 15.2254 32.6348 14.1477 32.13L13.1072 31.5612L11.4018 34.6549L10.9389 34.6561C10.908 34.6561 10.8772 34.6597 10.8468 34.6661C5.19653 35.8272 1.0957 40.8778 1.0957 46.6742C1.0957 48.469 2.55109 49.9239 4.3459 49.9239C5.67821 49.9239 6.83044 49.9239 6.96984 49.9239Z" fill="url(#paint1_linear_552_636)"/>
<path d="M31.4982 20.0913C31.9926 18.1786 31.3086 16.3457 29.9719 15.9978L27.7103 22.924C29.048 23.2723 31.0042 22.0041 31.4982 20.0913Z" fill="url(#paint2_linear_552_636)"/>
</g>
<ellipse cx="17.6948" cy="16.4128" rx="9.38229" ry="14.7952" fill="#2C8BD7"/>
<g filter="url(#filter1_b_552_636)">
<path d="M29.3396 9.02933C28.9768 7.87451 28.1395 5.28865 25.6257 3.22985C22.8082 0.894739 19.6219 0.718172 18.4506 0.718829C18.4005 0.718855 18.3542 0.719205 18.3117 0.719724C17.7904 0.666272 17.2883 0.641661 16.8057 0.641602C11.2802 0.640745 8.30801 3.85805 8.30801 3.85805C5.93216 5.54039 7.44485 8.0759 7.44485 8.0759C7.2074 8.28296 6.96984 8.48695 6.73228 8.69095C6.49477 8.89491 6.2571 9.09899 6.0197 9.30601C5.96391 9.43936 5.88453 9.63849 5.80062 9.88251C5.40573 11.0341 5.27648 12.1313 5.27657 13.1232C5.27657 13.7989 5.33662 14.4258 5.41378 14.9878L5.42097 15.0397H5.40056C5.44363 15.2982 5.49162 15.5496 5.53945 15.8004L5.54707 15.8403L5.55098 15.8623L5.57 15.973L5.40211 15.8047C3.77103 16.598 2.94869 18.4604 3.44581 20.1613C3.91708 21.776 5.46924 22.8792 7.18423 22.7907L6.1995 18.6274C7.23492 22.3542 8.67871 25.0998 9.78351 26.88C12.2805 30.9014 14.1628 31.8095 15.2727 32.1896C15.8229 32.3778 17.8985 32.9929 20.2118 32.1896C21.5911 31.7106 23.1601 30.6737 25.2883 27.0932C26.1582 25.6299 27.2355 23.5466 28.1553 20.8342C28.1529 20.8667 28.1506 20.9019 28.1484 20.936L28.144 21.0029C28.7223 19.7175 29.4576 17.7109 29.7275 15.1554L29.7351 15.0828C29.8965 13.5537 30.1138 11.4957 29.3396 9.02933Z" fill="white" fill-opacity="0.15"/>
<path d="M6.96984 49.9239H30.2569C30.3125 49.9239 30.4939 49.9239 30.7497 49.9239C32.5445 49.9239 33.9998 48.469 33.9998 46.6742C33.9998 40.788 29.8241 35.7229 24.0696 34.6307C24.041 34.6248 23.997 34.6189 23.982 34.6225L23.9058 34.6227L21.6255 31.7712L19.7821 32.4543C19.075 32.716 18.3352 32.857 17.5899 32.8929C16.402 32.95 15.2254 32.6348 14.1477 32.13L13.1072 31.5612L11.4018 34.6549L10.9389 34.6561C10.908 34.6561 10.8772 34.6597 10.8468 34.6661C5.19653 35.8272 1.0957 40.8778 1.0957 46.6742C1.0957 48.469 2.55109 49.9239 4.3459 49.9239C5.67821 49.9239 6.83044 49.9239 6.96984 49.9239Z" fill="white" fill-opacity="0.15"/>
<path d="M31.4982 20.0913C31.9926 18.1786 31.3086 16.3457 29.9719 15.9978L27.7103 22.924C29.048 23.2723 31.0042 22.0041 31.4982 20.0913Z" fill="white" fill-opacity="0.15"/>
<path d="M29.3396 9.02933C28.9768 7.87451 28.1395 5.28865 25.6257 3.22985C22.8082 0.894739 19.6219 0.718172 18.4506 0.718829C18.4005 0.718855 18.3542 0.719205 18.3117 0.719724C17.7904 0.666272 17.2883 0.641661 16.8057 0.641602C11.2802 0.640745 8.30801 3.85805 8.30801 3.85805C5.93216 5.54039 7.44485 8.0759 7.44485 8.0759C7.2074 8.28296 6.96984 8.48695 6.73228 8.69095C6.49477 8.89491 6.2571 9.09899 6.0197 9.30601C5.96391 9.43936 5.88453 9.63849 5.80062 9.88251C5.40573 11.0341 5.27648 12.1313 5.27657 13.1232C5.27657 13.7989 5.33662 14.4258 5.41378 14.9878L5.42097 15.0397H5.40056C5.44363 15.2982 5.49162 15.5496 5.53945 15.8004L5.54707 15.8403L5.55098 15.8623L5.57 15.973L5.40211 15.8047C3.77103 16.598 2.94869 18.4604 3.44581 20.1613C3.91708 21.776 5.46924 22.8792 7.18423 22.7907L6.1995 18.6274C7.23492 22.3542 8.67871 25.0998 9.78351 26.88C12.2805 30.9014 14.1628 31.8095 15.2727 32.1896C15.8229 32.3778 17.8985 32.9929 20.2118 32.1896C21.5911 31.7106 23.1601 30.6737 25.2883 27.0932C26.1582 25.6299 27.2355 23.5466 28.1553 20.8342C28.1529 20.8667 28.1506 20.9019 28.1484 20.936L28.144 21.0029C28.7223 19.7175 29.4576 17.7109 29.7275 15.1554L29.7351 15.0828C29.8965 13.5537 30.1138 11.4957 29.3396 9.02933Z" stroke="white" stroke-opacity="0.5"/>
<path d="M6.96984 49.9239H30.2569C30.3125 49.9239 30.4939 49.9239 30.7497 49.9239C32.5445 49.9239 33.9998 48.469 33.9998 46.6742C33.9998 40.788 29.8241 35.7229 24.0696 34.6307C24.041 34.6248 23.997 34.6189 23.982 34.6225L23.9058 34.6227L21.6255 31.7712L19.7821 32.4543C19.075 32.716 18.3352 32.857 17.5899 32.8929C16.402 32.95 15.2254 32.6348 14.1477 32.13L13.1072 31.5612L11.4018 34.6549L10.9389 34.6561C10.908 34.6561 10.8772 34.6597 10.8468 34.6661C5.19653 35.8272 1.0957 40.8778 1.0957 46.6742C1.0957 48.469 2.55109 49.9239 4.3459 49.9239C5.67821 49.9239 6.83044 49.9239 6.96984 49.9239Z" stroke="white" stroke-opacity="0.5"/>
<path d="M31.4982 20.0913C31.9926 18.1786 31.3086 16.3457 29.9719 15.9978L27.7103 22.924C29.048 23.2723 31.0042 22.0041 31.4982 20.0913Z" stroke="white" stroke-opacity="0.5"/>
</g>
<defs>
<filter id="filter0_b_552_636" x="-18.9043" y="-19.3584" width="72.9043" height="89.2822" filterUnits="userSpaceOnUse" color-interpolation-filters="sRGB">
<feFlood flood-opacity="0" result="BackgroundImageFix"/>
<feGaussianBlur in="BackgroundImageFix" stdDeviation="10"/>
<feComposite in2="SourceAlpha" operator="in" result="effect1_backgroundBlur_552_636"/>
<feBlend mode="normal" in="SourceGraphic" in2="effect1_backgroundBlur_552_636" result="shape"/>
</filter>
<filter id="filter1_b_552_636" x="-19.1043" y="-19.5584" width="73.3043" height="89.6822" filterUnits="userSpaceOnUse" color-interpolation-filters="sRGB">
<feFlood flood-opacity="0" result="BackgroundImageFix"/>
<feGaussianBlur in="BackgroundImageFix" stdDeviation="9.85"/>
<feComposite in2="SourceAlpha" operator="in" result="effect1_backgroundBlur_552_636"/>
<feBlend mode="normal" in="SourceGraphic" in2="effect1_backgroundBlur_552_636" result="shape"/>
</filter>
<linearGradient id="paint0_linear_552_636" x1="17.6951" y1="21.1048" x2="17.6951" y2="50.3342" gradientUnits="userSpaceOnUse">
<stop stop-color="#1B75BC"/>
<stop offset="1" stop-color="#CCE9FF"/>
</linearGradient>
<linearGradient id="paint1_linear_552_636" x1="17.6951" y1="21.1048" x2="17.6951" y2="50.3342" gradientUnits="userSpaceOnUse">
<stop stop-color="#1B75BC"/>
<stop offset="1" stop-color="#CCE9FF"/>
</linearGradient>
<linearGradient id="paint2_linear_552_636" x1="17.6951" y1="21.1048" x2="17.6951" y2="50.3342" gradientUnits="userSpaceOnUse">
<stop stop-color="#1B75BC"/>
<stop offset="1" stop-color="#CCE9FF"/>
</linearGradient>
</defs>
</svg>
