<svg width="86" height="33" viewBox="0 0 86 33" fill="none" xmlns="http://www.w3.org/2000/svg">
<rect x="0.00878906" width="86" height="33" rx="10" fill="white"/>
<rect x="0.00878906" width="86" height="33" rx="10" fill="#FB3342" fill-opacity="0.1"/>
<g clip-path="url(#clip0_5812_6251)">
<path d="M20.5089 24.1497C24.7339 24.1497 28.1589 20.7246 28.1589 16.4996C28.1589 12.2746 24.7339 8.84961 20.5089 8.84961C16.2839 8.84961 12.8589 12.2746 12.8589 16.4996C12.8589 20.7246 16.2839 24.1497 20.5089 24.1497Z" fill="#FB3342"/>
<path d="M21.3198 16.5L23.2093 14.6104C23.3107 14.5016 23.3659 14.3578 23.3632 14.2091C23.3606 14.0605 23.3004 13.9187 23.1953 13.8136C23.0902 13.7084 22.9483 13.6482 22.7997 13.6456C22.6511 13.643 22.5072 13.6981 22.3984 13.7995L20.5089 15.6891L18.6193 13.7995C18.5106 13.6981 18.3667 13.643 18.2181 13.6456C18.0694 13.6482 17.9276 13.7084 17.8225 13.8136C17.7174 13.9187 17.6571 14.0605 17.6545 14.2091C17.6519 14.3578 17.7071 14.5016 17.8084 14.6104L19.698 16.5L17.8084 18.3895C17.701 18.4971 17.6406 18.6429 17.6406 18.795C17.6406 18.947 17.701 19.0928 17.8084 19.2004C17.916 19.3079 18.0618 19.3682 18.2139 19.3682C18.3659 19.3682 18.5117 19.3079 18.6193 19.2004L20.5089 17.3109L22.3984 19.2004C22.506 19.3079 22.6518 19.3682 22.8039 19.3682C22.9559 19.3682 23.1018 19.3079 23.2093 19.2004C23.3168 19.0928 23.3771 18.947 23.3771 18.795C23.3771 18.6429 23.3168 18.4971 23.2093 18.3895L21.3198 16.5Z" fill="#EDEBEA"/>
</g>
<path d="M43.9879 16.68C43.9879 17.32 43.8839 17.906 43.6759 18.438C43.4679 18.966 43.1739 19.42 42.7939 19.8C42.4179 20.18 41.9639 20.476 41.4319 20.688C40.9039 20.896 40.3159 21 39.6679 21H36.4039V12.36H39.6679C40.3159 12.36 40.9039 12.466 41.4319 12.678C41.9639 12.886 42.4179 13.18 42.7939 13.56C43.1739 13.94 43.4679 14.396 43.6759 14.928C43.8839 15.456 43.9879 16.04 43.9879 16.68ZM42.5539 16.68C42.5539 16.184 42.4859 15.738 42.3499 15.342C42.2179 14.946 42.0259 14.612 41.7739 14.34C41.5259 14.068 41.2239 13.86 40.8679 13.716C40.5119 13.568 40.1119 13.494 39.6679 13.494H37.8139V19.866H39.6679C40.1119 19.866 40.5119 19.794 40.8679 19.65C41.2239 19.506 41.5259 19.298 41.7739 19.026C42.0259 18.75 42.2179 18.416 42.3499 18.024C42.4859 17.628 42.5539 17.18 42.5539 16.68ZM49.2248 17.25C49.2248 17.034 49.1928 16.834 49.1288 16.65C49.0688 16.462 48.9788 16.3 48.8588 16.164C48.7388 16.024 48.5888 15.916 48.4088 15.84C48.2328 15.76 48.0288 15.72 47.7968 15.72C47.3288 15.72 46.9608 15.854 46.6928 16.122C46.4248 16.39 46.2548 16.766 46.1828 17.25H49.2248ZM46.1468 18.042C46.1628 18.39 46.2168 18.692 46.3088 18.948C46.4008 19.2 46.5228 19.41 46.6748 19.578C46.8308 19.746 47.0148 19.872 47.2268 19.956C47.4428 20.036 47.6828 20.076 47.9468 20.076C48.1988 20.076 48.4168 20.048 48.6008 19.992C48.7848 19.932 48.9448 19.868 49.0808 19.8C49.2168 19.728 49.3328 19.664 49.4288 19.608C49.5248 19.548 49.6128 19.518 49.6928 19.518C49.7968 19.518 49.8768 19.558 49.9328 19.638L50.2988 20.112C50.1468 20.292 49.9748 20.444 49.7828 20.568C49.5908 20.692 49.3868 20.794 49.1708 20.874C48.9548 20.95 48.7328 21.004 48.5048 21.036C48.2768 21.072 48.0548 21.09 47.8388 21.09C47.4148 21.09 47.0208 21.02 46.6568 20.88C46.2968 20.736 45.9828 20.526 45.7148 20.25C45.4508 19.974 45.2428 19.632 45.0908 19.224C44.9428 18.816 44.8688 18.346 44.8688 17.814C44.8688 17.39 44.9348 16.994 45.0668 16.626C45.2028 16.258 45.3948 15.938 45.6428 15.666C45.8948 15.394 46.1988 15.18 46.5548 15.024C46.9148 14.864 47.3208 14.784 47.7728 14.784C48.1488 14.784 48.4968 14.846 48.8168 14.97C49.1368 15.09 49.4128 15.268 49.6448 15.504C49.8768 15.74 50.0568 16.03 50.1848 16.374C50.3168 16.714 50.3828 17.102 50.3828 17.538C50.3828 17.738 50.3608 17.872 50.3168 17.94C50.2728 18.008 50.1928 18.042 50.0768 18.042H46.1468ZM52.7918 15.69C52.9238 15.554 53.0598 15.432 53.1998 15.324C53.3438 15.212 53.4958 15.116 53.6558 15.036C53.8158 14.956 53.9858 14.894 54.1658 14.85C54.3458 14.806 54.5418 14.784 54.7538 14.784C55.0898 14.784 55.3838 14.84 55.6358 14.952C55.8918 15.064 56.1058 15.222 56.2778 15.426C56.4538 15.63 56.5858 15.876 56.6738 16.164C56.7618 16.448 56.8058 16.762 56.8058 17.106V21H55.5218V17.106C55.5218 16.694 55.4258 16.374 55.2338 16.146C55.0458 15.918 54.7578 15.804 54.3698 15.804C54.0818 15.804 53.8138 15.87 53.5658 16.002C53.3218 16.134 53.0918 16.314 52.8758 16.542V21H51.5858V14.88H52.3658C52.5418 14.88 52.6538 14.962 52.7018 15.126L52.7918 15.69ZM59.6564 14.88V21H58.3664V14.88H59.6564ZM59.8724 13.032C59.8724 13.148 59.8484 13.258 59.8004 13.362C59.7564 13.466 59.6944 13.558 59.6144 13.638C59.5344 13.714 59.4404 13.776 59.3324 13.824C59.2284 13.868 59.1164 13.89 58.9964 13.89C58.8804 13.89 58.7704 13.868 58.6664 13.824C58.5664 13.776 58.4784 13.714 58.4024 13.638C58.3264 13.558 58.2644 13.466 58.2164 13.362C58.1724 13.258 58.1504 13.148 58.1504 13.032C58.1504 12.912 58.1724 12.8 58.2164 12.696C58.2644 12.592 58.3264 12.502 58.4024 12.426C58.4784 12.346 58.5664 12.284 58.6664 12.24C58.7704 12.192 58.8804 12.168 58.9964 12.168C59.1164 12.168 59.2284 12.192 59.3324 12.24C59.4404 12.284 59.5344 12.346 59.6144 12.426C59.6944 12.502 59.7564 12.592 59.8004 12.696C59.8484 12.8 59.8724 12.912 59.8724 13.032ZM65.2912 17.25C65.2912 17.034 65.2592 16.834 65.1952 16.65C65.1352 16.462 65.0452 16.3 64.9252 16.164C64.8052 16.024 64.6552 15.916 64.4752 15.84C64.2992 15.76 64.0952 15.72 63.8632 15.72C63.3952 15.72 63.0272 15.854 62.7592 16.122C62.4912 16.39 62.3212 16.766 62.2492 17.25H65.2912ZM62.2132 18.042C62.2292 18.39 62.2832 18.692 62.3752 18.948C62.4672 19.2 62.5892 19.41 62.7412 19.578C62.8972 19.746 63.0812 19.872 63.2932 19.956C63.5092 20.036 63.7492 20.076 64.0132 20.076C64.2652 20.076 64.4832 20.048 64.6672 19.992C64.8512 19.932 65.0112 19.868 65.1472 19.8C65.2832 19.728 65.3992 19.664 65.4952 19.608C65.5912 19.548 65.6792 19.518 65.7592 19.518C65.8632 19.518 65.9432 19.558 65.9992 19.638L66.3652 20.112C66.2132 20.292 66.0412 20.444 65.8492 20.568C65.6572 20.692 65.4532 20.794 65.2372 20.874C65.0212 20.95 64.7992 21.004 64.5712 21.036C64.3432 21.072 64.1212 21.09 63.9052 21.09C63.4812 21.09 63.0872 21.02 62.7232 20.88C62.3632 20.736 62.0492 20.526 61.7812 20.25C61.5172 19.974 61.3092 19.632 61.1572 19.224C61.0092 18.816 60.9352 18.346 60.9352 17.814C60.9352 17.39 61.0012 16.994 61.1332 16.626C61.2692 16.258 61.4612 15.938 61.7092 15.666C61.9612 15.394 62.2652 15.18 62.6212 15.024C62.9812 14.864 63.3872 14.784 63.8392 14.784C64.2152 14.784 64.5632 14.846 64.8832 14.97C65.2032 15.09 65.4792 15.268 65.7112 15.504C65.9432 15.74 66.1232 16.03 66.2512 16.374C66.3832 16.714 66.4492 17.102 66.4492 17.538C66.4492 17.738 66.4272 17.872 66.3832 17.94C66.3392 18.008 66.2592 18.042 66.1432 18.042H62.2132ZM71.5582 16.386C71.3782 16.154 71.1802 15.992 70.9642 15.9C70.7482 15.808 70.5142 15.762 70.2622 15.762C69.7582 15.762 69.3642 15.948 69.0802 16.32C68.7962 16.688 68.6542 17.234 68.6542 17.958C68.6542 18.334 68.6862 18.656 68.7502 18.924C68.8142 19.188 68.9062 19.404 69.0262 19.572C69.1462 19.74 69.2922 19.862 69.4642 19.938C69.6362 20.014 69.8302 20.052 70.0462 20.052C70.3742 20.052 70.6562 19.982 70.8922 19.842C71.1322 19.698 71.3542 19.496 71.5582 19.236V16.386ZM72.8482 12.12V21H72.0682C71.8962 21 71.7862 20.918 71.7382 20.754L71.6242 20.088C71.3682 20.388 71.0762 20.63 70.7482 20.814C70.4242 20.998 70.0462 21.09 69.6142 21.09C69.2702 21.09 68.9582 21.022 68.6782 20.886C68.3982 20.746 68.1582 20.544 67.9582 20.28C67.7582 20.016 67.6022 19.69 67.4902 19.302C67.3822 18.91 67.3282 18.462 67.3282 17.958C67.3282 17.502 67.3882 17.08 67.5082 16.692C67.6322 16.304 67.8082 15.968 68.0362 15.684C68.2642 15.396 68.5402 15.172 68.8642 15.012C69.1922 14.848 69.5582 14.766 69.9622 14.766C70.3222 14.766 70.6282 14.824 70.8802 14.94C71.1322 15.052 71.3582 15.21 71.5582 15.414V12.12H72.8482Z" fill="#4D5A65"/>
<defs>
<clipPath id="clip0_5812_6251">
<rect width="17" height="17" fill="white" transform="translate(12.0088 8)"/>
</clipPath>
</defs>
</svg>
