<svg width="24" height="24" viewBox="0 0 24 24" fill="none" xmlns="http://www.w3.org/2000/svg">
<path d="M6 0C5.175 0 4.5 0.675 4.5 1.5V22.5C4.5 23.325 5.175 24 6 24H21C21.825 24 22.5 23.325 22.5 22.5V6L16.5 0H6Z" fill="#E2E5E7"/>
<path d="M18 6H22.5L16.5 0V4.5C16.5 5.325 17.175 6 18 6Z" fill="#B0B7BD"/>
<path d="M22.5 10.5L18 6H22.5V10.5Z" fill="#CAD1D8"/>
<path d="M19.5 19.5C19.5 19.9125 19.1625 20.25 18.75 20.25H2.25C1.8375 20.25 1.5 19.9125 1.5 19.5V12C1.5 11.5875 1.8375 11.25 2.25 11.25H18.75C19.1625 11.25 19.5 11.5875 19.5 12V19.5Z" fill="#F15642"/>
<path d="M4.76953 14.2109C4.76953 14.0129 4.92553 13.7969 5.17678 13.7969H6.56203C7.34203 13.7969 8.04403 14.3189 8.04403 15.3194C8.04403 16.2674 7.34203 16.7954 6.56203 16.7954H5.56078V17.5874C5.56078 17.8514 5.39278 18.0006 5.17678 18.0006C4.97878 18.0006 4.76953 17.8514 4.76953 17.5874V14.2109ZM5.56078 14.5521V16.0461H6.56203C6.96403 16.0461 7.28203 15.6914 7.28203 15.3194C7.28203 14.9001 6.96403 14.5521 6.56203 14.5521H5.56078Z" fill="white"/>
<path d="M9.21869 18.0013C9.02069 18.0013 8.80469 17.8933 8.80469 17.6301V14.2236C8.80469 14.0083 9.02069 13.8516 9.21869 13.8516H10.5919C13.3324 13.8516 13.2724 18.0013 10.6459 18.0013H9.21869ZM9.59669 14.5836V17.2701H10.5919C12.2112 17.2701 12.2832 14.5836 10.5919 14.5836H9.59669Z" fill="white"/>
<path d="M14.2445 14.6323V15.5856H15.7737C15.9897 15.5856 16.2057 15.8016 16.2057 16.0108C16.2057 16.2088 15.9897 16.3708 15.7737 16.3708H14.2445V17.6301C14.2445 17.8401 14.0952 18.0013 13.8852 18.0013C13.6212 18.0013 13.46 17.8401 13.46 17.6301V14.2236C13.46 14.0083 13.622 13.8516 13.8852 13.8516H15.9905C16.2545 13.8516 16.4105 14.0083 16.4105 14.2236C16.4105 14.4156 16.2545 14.6316 15.9905 14.6316H14.2445V14.6323Z" fill="white"/>
<path d="M18.75 20.25H4.5V21H18.75C19.1625 21 19.5 20.6625 19.5 20.25V19.5C19.5 19.9125 19.1625 20.25 18.75 20.25Z" fill="#CAD1D8"/>
</svg>
