<svg width="185" height="40" viewBox="0 0 185 40" fill="none" xmlns="http://www.w3.org/2000/svg">
<path opacity="0.5" d="M147.844 1.55859C140.347 1.76716 178.641 1.55859 106.844 1.55859C92.3442 1.55859 69.8442 1.55859 69.8442 1.55859C39.3444 1.55859 59.2728 1.55859 0 1.55859C23.4781 24.7452 55.7396 39.0586 91.3442 39.0586C124.08 39.0586 153.989 26.9591 176.844 6.98829C180.147 4.0614 182.611 1.76926 184.344 0.000396729C183.844 0.000396729 183.791 0.558594 147.844 1.55859Z" fill="#00142D"/>
<path d="M71.088 17.792C71.4707 17.792 71.8067 17.7453 72.096 17.652C72.39 17.5587 72.635 17.428 72.831 17.26C73.027 17.0873 73.174 16.8843 73.272 16.651C73.37 16.413 73.419 16.1517 73.419 15.867C73.419 15.2883 73.2277 14.852 72.845 14.558C72.467 14.264 71.8977 14.117 71.137 14.117H69.73V17.792H71.088ZM75.778 23H74.448C74.182 23 73.9883 22.895 73.867 22.685L71.382 19.199C71.3027 19.0823 71.2163 19.0007 71.123 18.954C71.0297 18.9027 70.8897 18.877 70.703 18.877H69.73V23H68.239V12.948H71.137C71.7857 12.948 72.3433 13.0157 72.81 13.151C73.2813 13.2817 73.6687 13.4707 73.972 13.718C74.28 13.9607 74.5063 14.2547 74.651 14.6C74.8003 14.9453 74.875 15.3327 74.875 15.762C74.875 16.112 74.8213 16.441 74.714 16.749C74.6067 17.057 74.448 17.3347 74.238 17.582C74.0327 17.8247 73.7807 18.0347 73.482 18.212C73.1833 18.3893 72.845 18.5247 72.467 18.618C72.6537 18.73 72.8147 18.8863 72.95 19.087L75.778 23ZM81.0372 18.653C81.0372 18.3823 80.9975 18.1327 80.9182 17.904C80.8435 17.6753 80.7315 17.477 80.5822 17.309C80.4329 17.141 80.2509 17.0103 80.0362 16.917C79.8215 16.8237 79.5742 16.777 79.2942 16.777C78.7202 16.777 78.2675 16.9427 77.9362 17.274C77.6095 17.6053 77.4019 18.065 77.3132 18.653H81.0372ZM82.1642 21.985C81.9962 22.181 81.8025 22.3513 81.5832 22.496C81.3639 22.636 81.1305 22.7503 80.8832 22.839C80.6359 22.9277 80.3792 22.993 80.1132 23.035C79.8519 23.077 79.5929 23.098 79.3362 23.098C78.8462 23.098 78.3912 23.0163 77.9712 22.853C77.5559 22.685 77.1942 22.4423 76.8862 22.125C76.5829 21.803 76.3449 21.4063 76.1722 20.935C76.0042 20.459 75.9202 19.913 75.9202 19.297C75.9202 18.8023 75.9972 18.3427 76.1512 17.918C76.3052 17.4887 76.5245 17.1153 76.8092 16.798C77.0985 16.4807 77.4509 16.231 77.8662 16.049C78.2815 15.867 78.7482 15.776 79.2662 15.776C79.7002 15.776 80.0992 15.8483 80.4632 15.993C80.8319 16.133 81.1492 16.3383 81.4152 16.609C81.6812 16.8797 81.8889 17.2133 82.0382 17.61C82.1922 18.0067 82.2692 18.4593 82.2692 18.968C82.2692 19.178 82.2459 19.3203 82.1992 19.395C82.1525 19.465 82.0662 19.5 81.9402 19.5H77.2782C77.2922 19.9247 77.3529 20.2957 77.4602 20.613C77.5675 20.9257 77.7145 21.187 77.9012 21.397C78.0925 21.607 78.3189 21.7633 78.5802 21.866C78.8415 21.9687 79.1332 22.02 79.4552 22.02C79.7585 22.02 80.0199 21.985 80.2392 21.915C80.4632 21.845 80.6545 21.7703 80.8132 21.691C80.9765 21.607 81.1119 21.53 81.2192 21.46C81.3312 21.39 81.4292 21.355 81.5132 21.355C81.6252 21.355 81.7115 21.397 81.7722 21.481L82.1642 21.985ZM83.7363 23V15.888H84.5553C84.7467 15.888 84.8657 15.979 84.9123 16.161L85.0103 16.84C85.2717 16.5273 85.561 16.273 85.8783 16.077C86.2003 15.8763 86.576 15.776 87.0053 15.776C87.4767 15.776 87.8593 15.9067 88.1533 16.168C88.4473 16.4247 88.662 16.7747 88.7973 17.218C88.9 16.966 89.033 16.749 89.1963 16.567C89.3597 16.385 89.5417 16.2357 89.7423 16.119C89.943 16.0023 90.1553 15.916 90.3793 15.86C90.608 15.804 90.839 15.776 91.0723 15.776C91.4503 15.776 91.7863 15.8367 92.0803 15.958C92.379 16.0747 92.631 16.2473 92.8363 16.476C93.0417 16.7047 93.198 16.987 93.3053 17.323C93.4127 17.659 93.4663 18.0417 93.4663 18.471V23H92.0943V18.471C92.0943 17.939 91.9777 17.5377 91.7443 17.267C91.5157 16.9963 91.1797 16.861 90.7363 16.861C90.5403 16.861 90.3537 16.896 90.1763 16.966C89.999 17.0313 89.8427 17.1317 89.7073 17.267C89.5767 17.4023 89.4717 17.5703 89.3923 17.771C89.3177 17.9717 89.2803 18.205 89.2803 18.471V23H87.9083V18.471C87.9083 17.9203 87.7987 17.5143 87.5793 17.253C87.36 16.9917 87.038 16.861 86.6133 16.861C86.3193 16.861 86.0463 16.938 85.7943 17.092C85.5423 17.246 85.3113 17.456 85.1013 17.722V23H83.7363ZM98.3338 15.776C98.8564 15.776 99.3278 15.8623 99.7478 16.035C100.172 16.203 100.532 16.448 100.826 16.77C101.124 17.0873 101.353 17.4723 101.512 17.925C101.67 18.373 101.75 18.877 101.75 19.437C101.75 19.997 101.67 20.5033 101.512 20.956C101.353 21.4087 101.124 21.7937 100.826 22.111C100.532 22.4283 100.172 22.6733 99.7478 22.846C99.3278 23.014 98.8564 23.098 98.3338 23.098C97.8064 23.098 97.3304 23.014 96.9058 22.846C96.4858 22.6733 96.1264 22.4283 95.8278 22.111C95.5291 21.7937 95.2981 21.4087 95.1348 20.956C94.9761 20.5033 94.8968 19.997 94.8968 19.437C94.8968 18.877 94.9761 18.373 95.1348 17.925C95.2981 17.4723 95.5291 17.0873 95.8278 16.77C96.1264 16.448 96.4858 16.203 96.9058 16.035C97.3304 15.8623 97.8064 15.776 98.3338 15.776ZM98.3338 22.034C99.0058 22.034 99.5074 21.8077 99.8388 21.355C100.17 20.9023 100.336 20.2653 100.336 19.444C100.336 18.6227 100.17 17.9857 99.8388 17.533C99.5074 17.0757 99.0058 16.847 98.3338 16.847C97.6524 16.847 97.1438 17.0757 96.8078 17.533C96.4764 17.9857 96.3108 18.6227 96.3108 19.444C96.3108 20.2653 96.4764 20.9023 96.8078 21.355C97.1438 21.8077 97.6524 22.034 98.3338 22.034ZM109.242 15.888L106.358 23H105.126L102.242 15.888H103.369C103.477 15.888 103.565 15.9137 103.635 15.965C103.705 16.0163 103.752 16.0817 103.775 16.161L105.476 20.529C105.537 20.711 105.588 20.893 105.63 21.075C105.677 21.2523 105.719 21.4297 105.756 21.607C105.794 21.4297 105.836 21.2523 105.882 21.075C105.929 20.8977 105.985 20.7157 106.05 20.529L107.772 16.161C107.8 16.0817 107.849 16.0163 107.919 15.965C107.989 15.9137 108.073 15.888 108.171 15.888H109.242ZM114.834 18.653C114.834 18.3823 114.794 18.1327 114.715 17.904C114.64 17.6753 114.528 17.477 114.379 17.309C114.23 17.141 114.048 17.0103 113.833 16.917C113.618 16.8237 113.371 16.777 113.091 16.777C112.517 16.777 112.064 16.9427 111.733 17.274C111.406 17.6053 111.199 18.065 111.11 18.653H114.834ZM115.961 21.985C115.793 22.181 115.599 22.3513 115.38 22.496C115.161 22.636 114.927 22.7503 114.68 22.839C114.433 22.9277 114.176 22.993 113.91 23.035C113.649 23.077 113.39 23.098 113.133 23.098C112.643 23.098 112.188 23.0163 111.768 22.853C111.353 22.685 110.991 22.4423 110.683 22.125C110.38 21.803 110.142 21.4063 109.969 20.935C109.801 20.459 109.717 19.913 109.717 19.297C109.717 18.8023 109.794 18.3427 109.948 17.918C110.102 17.4887 110.321 17.1153 110.606 16.798C110.895 16.4807 111.248 16.231 111.663 16.049C112.078 15.867 112.545 15.776 113.063 15.776C113.497 15.776 113.896 15.8483 114.26 15.993C114.629 16.133 114.946 16.3383 115.212 16.609C115.478 16.8797 115.686 17.2133 115.835 17.61C115.989 18.0067 116.066 18.4593 116.066 18.968C116.066 19.178 116.043 19.3203 115.996 19.395C115.949 19.465 115.863 19.5 115.737 19.5H111.075C111.089 19.9247 111.15 20.2957 111.257 20.613C111.364 20.9257 111.511 21.187 111.698 21.397C111.889 21.607 112.116 21.7633 112.377 21.866C112.638 21.9687 112.93 22.02 113.252 22.02C113.555 22.02 113.817 21.985 114.036 21.915C114.26 21.845 114.451 21.7703 114.61 21.691C114.773 21.607 114.909 21.53 115.016 21.46C115.128 21.39 115.226 21.355 115.31 21.355C115.422 21.355 115.508 21.397 115.569 21.481L115.961 21.985Z" fill="white"/>
<path d="M67 26.57H116.577V27.214H67V26.57Z" fill="white"/>
</svg>
