<svg width="19" height="19" viewBox="0 0 19 19" fill="none" xmlns="http://www.w3.org/2000/svg">
<path d="M7.02462 10.2063C6.96173 10.2063 5.57802 10.2063 4.94906 10.2063C4.61362 10.2063 4.50879 10.0805 4.50879 9.76605C4.50879 8.92744 4.50879 8.06786 4.50879 7.22925C4.50879 6.89381 4.63458 6.78898 4.94906 6.78898H7.02462C7.02462 6.72609 7.02462 5.5101 7.02462 4.94404C7.02462 4.10542 7.17138 3.30874 7.59069 2.57496C8.03096 1.82021 8.65992 1.31704 9.4566 1.02353C9.98073 0.834838 10.5049 0.750977 11.0709 0.750977H13.1255C13.419 0.750977 13.5448 0.876768 13.5448 1.17028V3.56033C13.5448 3.85384 13.419 3.97963 13.1255 3.97963C12.5595 3.97963 11.9934 3.97963 11.4273 4.0006C10.8613 4.0006 10.5678 4.27315 10.5678 4.86017C10.5468 5.48913 10.5678 6.09713 10.5678 6.74705H12.9997C13.3352 6.74705 13.461 6.87284 13.461 7.20829V9.74509C13.461 10.0805 13.3561 10.1854 12.9997 10.1854C12.245 10.1854 10.6307 10.1854 10.5678 10.1854V17.02C10.5678 17.3765 10.4629 17.5022 10.0856 17.5022C9.20501 17.5022 8.34544 17.5022 7.4649 17.5022C7.15042 17.5022 7.02462 17.3765 7.02462 17.062C7.02462 14.8606 7.02462 10.2692 7.02462 10.2063Z" fill="#1B75BC"/>
</svg>
