<svg width="17" height="17" viewBox="0 0 17 17" fill="none" xmlns="http://www.w3.org/2000/svg">
<path fill-rule="evenodd" clip-rule="evenodd" d="M8.25 16.5C12.8063 16.5 16.5 12.8063 16.5 8.25C16.5 3.69365 12.8063 0 8.25 0C3.69365 0 0 3.69365 0 8.25C0 12.8063 3.69365 16.5 8.25 16.5ZM9.25 3.20896C9.25 2.65668 8.80229 2.20896 8.25 2.20896C7.69772 2.20896 7.25 2.65668 7.25 3.20896V8.00063C7.25 8.69098 7.80964 9.25063 8.5 9.25063H11.4583C12.0106 9.25063 12.4583 8.80291 12.4583 8.25063C12.4583 7.69834 12.0106 7.25063 11.4583 7.25063H9.25V3.20896Z" fill="#919EAB"/>
</svg>
