<svg width="14" height="16" viewBox="0 0 14 16" fill="none" xmlns="http://www.w3.org/2000/svg">
<path fill-rule="evenodd" clip-rule="evenodd" d="M10.5474 1.77172V0.564723C10.5474 0.252996 10.3068 0 10.0103 0C9.71385 0 9.47322 0.252996 9.47322 0.564723V3.02164C9.47322 3.21742 9.5742 3.38231 9.71886 3.48321C9.63364 3.54345 9.53696 3.58637 9.42667 3.58637C9.13019 3.58637 8.88956 3.33337 8.88956 3.02164V1.39072C8.31521 1.31844 7.68929 1.28154 6.99964 1.28154C6.18753 1.28154 5.4635 1.33275 4.81252 1.4359V0.564723C4.81252 0.252996 4.5719 0 4.27541 0C3.97893 0 3.7383 0.252996 3.7383 0.564723V3.02164C3.7383 3.21742 3.83928 3.38231 3.98394 3.48321C3.89872 3.54345 3.80204 3.58637 3.69175 3.58637C3.39526 3.58637 3.15464 3.33337 3.15464 3.02164V1.86961C1.62638 2.4893 0.729757 3.64209 0.305797 5.47781H13.6942C13.2445 3.53065 12.2504 2.36205 10.5474 1.77172Z" fill="#919EAB"/>
<path fill-rule="evenodd" clip-rule="evenodd" d="M10.16 9.57119C9.86352 9.57119 9.62003 9.3182 9.62003 9.00647C9.62003 8.69474 9.85708 8.44175 10.1536 8.44175H10.16C10.4565 8.44175 10.6971 8.69474 10.6971 9.00647C10.6971 9.3182 10.4565 9.57119 10.16 9.57119ZM10.16 12.4724C9.86352 12.4724 9.62003 12.2194 9.62003 11.9076C9.62003 11.5952 9.85708 11.3429 10.1536 11.3429H10.16C10.4565 11.3429 10.6971 11.5952 10.6971 11.9076C10.6971 12.2194 10.4565 12.4724 10.16 12.4724ZM7.00967 9.57119C6.71318 9.57119 6.46898 9.3182 6.46898 9.00647C6.46898 8.69474 6.70674 8.44175 7.00322 8.44175H7.00967C7.30615 8.44175 7.54678 8.69474 7.54678 9.00647C7.54678 9.3182 7.30615 9.57119 7.00967 9.57119ZM7.00967 12.4724C6.71318 12.4724 6.46898 12.2194 6.46898 11.9076C6.46898 11.5952 6.70674 11.3429 7.00322 11.3429H7.00967C7.30615 11.3429 7.54678 11.5952 7.54678 11.9076C7.54678 12.2194 7.30615 12.4724 7.00967 12.4724ZM3.85288 9.57119C3.5564 9.57119 3.31219 9.3182 3.31219 9.00647C3.31219 8.69474 3.54995 8.44175 3.84644 8.44175H3.85288C4.14937 8.44175 4.38999 8.69474 4.38999 9.00647C4.38999 9.3182 4.14937 9.57119 3.85288 9.57119ZM3.85288 12.4724C3.5564 12.4724 3.31219 12.2194 3.31219 11.9076C3.31219 11.5952 3.54995 11.3429 3.84644 11.3429H3.85288C4.14937 11.3429 4.38999 11.5952 4.38999 11.9076C4.38999 12.2194 4.14937 12.4724 3.85288 12.4724ZM13.889 6.60677H0.111003C0.0379559 7.2242 0 7.8966 0 8.64128C0 14.0739 1.83191 16 6.99964 16C12.1681 16 14 14.0739 14 8.64128C14 7.8966 13.962 7.2242 13.889 6.60677Z" fill="#919EAB"/>
</svg>
