<svg width="18" height="18" viewBox="0 0 18 18" fill="none" xmlns="http://www.w3.org/2000/svg">
<path d="M9.00054 12.6292C10.9182 12.6292 12.4728 11.004 12.4728 8.99919C12.4728 6.99437 10.9182 5.36914 9.00054 5.36914C7.08289 5.36914 5.52832 6.99437 5.52832 8.99919C5.52832 11.004 7.08289 12.6292 9.00054 12.6292Z" fill="#637381"/>
<path d="M16.6392 8.27322H15.9094C15.583 4.84863 12.9705 2.11738 9.69477 1.77616V1.01312C9.69477 0.612362 9.38435 0.287109 9.00033 0.287109C8.6163 0.287109 8.30588 0.612362 8.30588 1.01312V1.77616C5.03019 2.11738 2.41769 4.84863 2.0913 8.27322H1.36144C0.977409 8.27322 0.666992 8.59847 0.666992 8.99923C0.666992 9.39999 0.977409 9.72524 1.36144 9.72524H2.0913C2.41838 13.1498 5.03019 15.8811 8.30588 16.2223V16.9853C8.30588 17.3861 8.6163 17.7114 9.00033 17.7114C9.38435 17.7114 9.69477 17.3861 9.69477 16.9853V16.2223C12.9705 15.8804 15.583 13.1498 15.9094 9.72524H16.6392C17.0232 9.72524 17.3337 9.39999 17.3337 8.99923C17.3337 8.59847 17.0232 8.27322 16.6392 8.27322ZM9.68505 14.7587C9.66005 14.3819 9.36769 14.0813 9.00033 14.0813C8.63296 14.0813 8.3406 14.3819 8.3156 14.7587C5.80033 14.4334 3.8031 12.3454 3.49199 9.7158C3.85241 9.68894 4.13921 9.38256 4.13921 8.99923C4.13921 8.6159 3.85241 8.30952 3.4913 8.28338C3.80241 5.65378 5.79963 3.56577 8.31491 3.24052C8.3406 3.61659 8.63296 3.91716 9.00033 3.91716C9.36769 3.91716 9.66005 3.61659 9.68505 3.23979C12.2003 3.56504 14.1975 5.65305 14.5087 8.28266C14.1482 8.30952 13.8614 8.6159 13.8614 8.99923C13.8614 9.38256 14.1482 9.68894 14.5094 9.71508C14.1975 12.3454 12.201 14.4327 9.68505 14.7587Z" fill="#637381"/>
</svg>
