<svg width="20" height="20" viewBox="0 0 20 20" fill="none" xmlns="http://www.w3.org/2000/svg">
<path d="M10 2C8.40935 2.00211 6.88445 2.63493 5.75969 3.75969C4.63493 4.88445 4.00211 6.40934 4 7.99999C4 12.3075 9.59 17.7025 9.8275 17.93C9.8737 17.9749 9.93558 18 10 18C10.0644 18 10.1263 17.9749 10.1725 17.93C10.41 17.7025 16 12.3075 16 7.99999C15.9979 6.40934 15.3651 4.88445 14.2403 3.75969C13.1155 2.63493 11.5907 2.00211 10 2ZM10 10.75C9.4561 10.75 8.92442 10.5887 8.47218 10.2865C8.01995 9.98436 7.66747 9.55487 7.45933 9.05237C7.25119 8.54988 7.19673 7.99694 7.30284 7.4635C7.40895 6.93005 7.67086 6.44005 8.05546 6.05545C8.44005 5.67086 8.93005 5.40895 9.4635 5.30284C9.99695 5.19673 10.5499 5.25119 11.0524 5.45933C11.5549 5.66747 11.9844 6.01994 12.2865 6.47218C12.5887 6.92441 12.75 7.4561 12.75 7.99999C12.7496 8.7292 12.4597 9.42842 11.9441 9.94405C11.4284 10.4597 10.7292 10.7496 10 10.75Z" fill="#919EAB"/>
</svg>
