<svg width="76" height="76" viewBox="0 0 76 76" fill="none" xmlns="http://www.w3.org/2000/svg">
<path d="M76 38C76 58.9868 58.9868 76 38 76C17.0132 76 0 58.9868 0 38C0 17.0132 17.0132 0 38 0C58.9868 0 76 17.0132 76 38Z" fill="#20293D"/>
<path d="M76 38C76 58.9868 58.9868 76 38 76C17.0132 76 0 58.9868 0 38C0 17.0132 17.0132 0 38 0C58.9868 0 76 17.0132 76 38Z" fill="#EEFFD6"/>
<path d="M69.5318 37.9997C69.5318 55.4143 55.4145 69.5316 37.9999 69.5316C20.5853 69.5316 6.46802 55.4143 6.46802 37.9997C6.46802 20.5851 20.5853 6.46777 37.9999 6.46777C55.4145 6.46777 69.5318 20.5851 69.5318 37.9997Z" fill="#8DC63F"/>
<path d="M62.2553 37.9995C62.2553 51.3953 51.3958 62.2548 37.9999 62.2548C24.6041 62.2548 13.7446 51.3953 13.7446 37.9995C13.7446 24.6036 24.6041 13.7441 37.9999 13.7441C51.3958 13.7441 62.2553 24.6036 62.2553 37.9995Z" fill="#79AC32"/>
<path d="M28.2979 38.4036C28.9447 39.0504 32.0709 42.1766 34.3617 44.4674L47.2979 31.5312" stroke="white" stroke-width="5" stroke-linecap="round" stroke-linejoin="round"/>
</svg>
