<svg width="20" height="20" viewBox="0 0 20 20" fill="none" xmlns="http://www.w3.org/2000/svg">
<path d="M10 1C5.05 1 1 5.05 1 10C1 14.95 5.05 19 10 19C14.95 19 19 14.95 19 10C19 5.05 14.95 1 10 1ZM10.75 10.675V12.25C10.75 12.7 10.45 13 10 13C9.55 13 9.25 12.7 9.25 12.25V10C9.25 9.55 9.55 9.25 10 9.25C10.825 9.25 11.5 8.575 11.5 7.75C11.5 6.925 10.825 6.25 10 6.25C9.175 6.25 8.5 6.925 8.5 7.75C8.5 8.2 8.2 8.5 7.75 8.5C7.3 8.5 7 8.2 7 7.75C7 6.1 8.35 4.75 10 4.75C11.65 4.75 13 6.1 13 7.75C13 9.175 12.025 10.3 10.75 10.675ZM10.75 15.25C10.75 15.7 10.45 16 10 16C9.55 16 9.25 15.7 9.25 15.25C9.25 14.8 9.55 14.5 10 14.5C10.45 14.5 10.75 14.8 10.75 15.25Z" fill="#1F73BB"/>
</svg>
