<svg width="18" height="18" viewBox="0 0 18 18" fill="none" xmlns="http://www.w3.org/2000/svg">
<path d="M9 1.125C11.0887 1.125 13.0919 1.95474 14.5689 3.4317C16.0458 4.90865 16.8756 6.91183 16.8756 9.00056C16.8756 11.0893 16.0458 13.0925 14.5689 14.5694C13.0919 16.0464 11.0887 16.8761 9 16.8761C6.91127 16.8761 4.90809 16.0464 3.43113 14.5694C1.95418 13.0925 1.12444 11.0893 1.12444 9.00056C1.12444 6.91183 1.95418 4.90865 3.43113 3.4317C4.90809 1.95474 6.91127 1.125 9 1.125ZM10.1812 5.96025C10.7662 5.96025 11.241 5.55412 11.241 4.95225C11.241 4.35037 10.7651 3.94425 10.1812 3.94425C9.59625 3.94425 9.12375 4.35037 9.12375 4.95225C9.12375 5.55412 9.59625 5.96025 10.1812 5.96025ZM10.3871 12.2906C10.3871 12.1702 10.4287 11.8575 10.4051 11.6797L9.48037 12.744C9.28912 12.9454 9.0495 13.0849 8.937 13.0477C8.88596 13.029 8.84329 12.9926 8.81669 12.9452C8.79008 12.8977 8.78128 12.8423 8.79187 12.789L10.3331 7.92C10.4591 7.30237 10.1126 6.73875 9.378 6.66675C8.60287 6.66675 7.46212 7.45312 6.768 8.451C6.768 8.57025 6.7455 8.86725 6.76912 9.045L7.69275 7.97962C7.884 7.7805 8.10675 7.63987 8.21925 7.67812C8.27467 7.69802 8.32009 7.73885 8.34575 7.79185C8.37141 7.84486 8.37527 7.90581 8.3565 7.96162L6.82875 12.807C6.65212 13.374 6.98625 13.9297 7.79625 14.0557C8.98875 14.0557 9.693 13.2885 10.3882 12.2906H10.3871Z" fill="#1B75BC"/>
</svg>
