<svg width="703" height="140" viewBox="0 0 703 140" fill="none" xmlns="http://www.w3.org/2000/svg">
<g filter="url(#filter0_bd_1105_4787)">
<path d="M37 45C37 38.3726 42.3726 33 49 33H654C660.627 33 666 38.3726 666 45V87C666 93.6274 660.627 99 654 99H49C42.3726 99 37 93.6274 37 87V45Z" fill="white" fill-opacity="0.2" shape-rendering="crispEdges"/>
<path d="M37.5 45C37.5 38.6487 42.6487 33.5 49 33.5H654C660.351 33.5 665.5 38.6487 665.5 45V87C665.5 93.3513 660.351 98.5 654 98.5H49C42.6487 98.5 37.5 93.3513 37.5 87V45Z" stroke="white" shape-rendering="crispEdges"/>
</g>
<defs>
<filter id="filter0_bd_1105_4787" x="0" y="0" width="703" height="140" filterUnits="userSpaceOnUse" color-interpolation-filters="sRGB">
<feFlood flood-opacity="0" result="BackgroundImageFix"/>
<feGaussianBlur in="BackgroundImageFix" stdDeviation="15.85"/>
<feComposite in2="SourceAlpha" operator="in" result="effect1_backgroundBlur_1105_4787"/>
<feColorMatrix in="SourceAlpha" type="matrix" values="0 0 0 0 0 0 0 0 0 0 0 0 0 0 0 0 0 0 127 0" result="hardAlpha"/>
<feOffset dy="4"/>
<feGaussianBlur stdDeviation="18.5"/>
<feComposite in2="hardAlpha" operator="out"/>
<feColorMatrix type="matrix" values="0 0 0 0 0.105882 0 0 0 0 0.458824 0 0 0 0 0.737255 0 0 0 1 0"/>
<feBlend mode="normal" in2="effect1_backgroundBlur_1105_4787" result="effect2_dropShadow_1105_4787"/>
<feBlend mode="normal" in="SourceGraphic" in2="effect2_dropShadow_1105_4787" result="shape"/>
</filter>
</defs>
</svg>
