<svg width="18" height="18" viewBox="0 0 18 18" fill="none" xmlns="http://www.w3.org/2000/svg">
<path d="M16.3201 5.87357C16.2844 5.06268 16.1532 4.5052 15.9654 4.02214C15.7716 3.50938 15.4735 3.05031 15.0829 2.66868C14.7012 2.28111 14.2391 1.97995 13.7323 1.78919C13.2465 1.60135 12.6919 1.47022 11.881 1.43447C11.0641 1.39569 10.8047 1.38672 8.73271 1.38672C6.6607 1.38672 6.40135 1.39569 5.58744 1.43144C4.77655 1.46719 4.21907 1.59844 3.73612 1.78617C3.22325 1.97995 2.76417 2.27808 2.38254 2.66868C1.99497 3.05031 1.69393 3.51241 1.50306 4.01923C1.31522 4.5052 1.18409 5.05965 1.14833 5.87054C1.10955 6.68749 1.10059 6.94684 1.10059 9.01884C1.10059 11.0908 1.10955 11.3502 1.14531 12.1641C1.18106 12.975 1.3123 13.5325 1.50015 14.0155C1.69393 14.5283 1.99497 14.9874 2.38254 15.369C2.76417 15.7566 3.22627 16.0577 3.73309 16.2485C4.21907 16.4363 4.77352 16.5675 5.58453 16.6032C6.39833 16.6391 6.65779 16.6479 8.72979 16.6479C10.8018 16.6479 11.0611 16.6391 11.8751 16.6032C12.686 16.5675 13.2434 16.4363 13.7264 16.2485C14.752 15.8519 15.5629 15.0411 15.9594 14.0155C16.1472 13.5296 16.2784 12.975 16.3142 12.1641C16.3499 11.3502 16.3589 11.0908 16.3589 9.01884C16.3589 6.94684 16.3559 6.68749 16.3201 5.87357ZM14.9458 12.1045C14.913 12.8498 14.7878 13.2523 14.6834 13.5206C14.427 14.1854 13.8993 14.7131 13.2345 14.9696C12.9661 15.0739 12.5608 15.1991 11.8183 15.2318C11.0134 15.2677 10.772 15.2765 8.73573 15.2765C6.69948 15.2765 6.45504 15.2677 5.653 15.2318C4.90768 15.1991 4.5052 15.0739 4.23689 14.9696C3.90603 14.8473 3.60488 14.6535 3.36043 14.4001C3.10702 14.1526 2.91324 13.8545 2.79096 13.5236C2.68661 13.2553 2.56142 12.8498 2.5287 12.1075C2.49283 11.3026 2.48398 11.061 2.48398 9.02478C2.48398 6.98853 2.49283 6.74409 2.5287 5.94216C2.56142 5.19684 2.68661 4.79436 2.79096 4.52605C2.91324 4.19508 3.10702 3.89404 3.36346 3.64948C3.61081 3.39607 3.90894 3.20228 4.23991 3.08012C4.50823 2.97577 4.91373 2.85058 5.65603 2.81774C6.46098 2.78199 6.70251 2.77302 8.73865 2.77302C10.7779 2.77302 11.0193 2.78199 11.8214 2.81774C12.5667 2.85058 12.9692 2.97577 13.2375 3.08012C13.5683 3.20228 13.8695 3.39607 14.1139 3.64948C14.3674 3.89695 14.5611 4.19508 14.6834 4.52605C14.7878 4.79436 14.913 5.19975 14.9458 5.94216C14.9816 6.74711 14.9905 6.98853 14.9905 9.02478C14.9905 11.061 14.9816 11.2995 14.9458 12.1045Z" fill="#1B75BC"/>
<path d="M8.73291 5.09863C6.56855 5.09863 4.8125 6.85457 4.8125 9.01904C4.8125 11.1835 6.56855 12.9394 8.73291 12.9394C10.8974 12.9394 12.6533 11.1835 12.6533 9.01904C12.6533 6.85457 10.8974 5.09863 8.73291 5.09863ZM8.73291 11.5621C7.32878 11.5621 6.18984 10.4233 6.18984 9.01904C6.18984 7.6148 7.32878 6.47597 8.73291 6.47597C10.1371 6.47597 11.276 7.6148 11.276 9.01904C11.276 10.4233 10.1371 11.5621 8.73291 11.5621Z" fill="#1B75BC"/>
<path d="M13.7232 4.94355C13.7232 5.44898 13.3134 5.85879 12.8078 5.85879C12.3024 5.85879 11.8926 5.44898 11.8926 4.94355C11.8926 4.43802 12.3024 4.02832 12.8078 4.02832C13.3134 4.02832 13.7232 4.43802 13.7232 4.94355Z" fill="#1B75BC"/>
</svg>
