<svg width="14" height="14" viewBox="0 0 14 14" fill="none" xmlns="http://www.w3.org/2000/svg">
<path d="M0.292893 12.2929C-0.0976311 12.6834 -0.0976311 13.3166 0.292893 13.7071C0.683418 14.0976 1.31658 14.0976 1.70711 13.7071L0.292893 12.2929ZM13.5824 1.41759C13.5824 0.865307 13.1347 0.417591 12.5824 0.417591L3.58241 0.417592C3.03012 0.417592 2.58241 0.865307 2.58241 1.41759C2.58241 1.96988 3.03012 2.41759 3.58241 2.41759L11.5824 2.41759L11.5824 10.4176C11.5824 10.9699 12.0301 11.4176 12.5824 11.4176C13.1347 11.4176 13.5824 10.9699 13.5824 10.4176L13.5824 1.41759ZM1.70711 13.7071L13.2895 2.1247L11.8753 0.710485L0.292893 12.2929L1.70711 13.7071Z" fill="#1B75BC"/>
</svg>
