<svg width="22" height="20" viewBox="0 0 22 20" fill="none" xmlns="http://www.w3.org/2000/svg">
<path d="M21.7553 7.48337C21.5854 6.96209 21.1346 6.58311 20.5914 6.504L15.0893 5.7045L12.6307 0.736687C12.1439 -0.245562 10.5349 -0.245562 10.0481 0.736687L7.5895 5.7045L2.1004 6.504C1.55878 6.58311 1.10798 6.96341 0.938051 7.48492C0.768118 8.00488 0.909327 8.57678 1.30245 8.95973L5.28359 12.8401L4.34443 18.3149C4.25229 18.8549 4.47415 19.4023 4.91765 19.7249C5.3627 20.046 5.95183 20.088 6.43577 19.833L11.3386 17.2475L16.256 19.833C16.4664 19.9439 16.6969 19.9987 16.9258 19.9987C17.2239 19.9987 17.522 19.905 17.7742 19.7251C18.2179 19.401 18.4395 18.8551 18.3474 18.3151L17.4098 12.8403L21.3909 8.95995C21.784 8.5781 21.9252 8.00488 21.7553 7.48337Z" fill="#F5E8BF"/>
</svg>
