<svg width="17" height="17" viewBox="0 0 17 17" fill="none" xmlns="http://www.w3.org/2000/svg">
<path d="M0.999999 1L15.7373 6.3218C15.8157 6.35772 15.8821 6.41539 15.9287 6.48796C15.9752 6.56053 16 6.64494 16 6.73117C16 6.81739 15.9752 6.90181 15.9287 6.97437C15.8821 7.04694 15.8157 7.10462 15.7373 7.14054L10.0061 10.0061L7.14054 15.7373C7.10462 15.8157 7.04694 15.8821 6.97438 15.9287C6.90181 15.9752 6.81739 16 6.73117 16C6.64494 16 6.56053 15.9752 6.48796 15.9287C6.41539 15.8821 6.35772 15.8157 6.3218 15.7373L0.999999 1Z" stroke="#8695A2" stroke-width="1.5" stroke-linecap="round" stroke-linejoin="round"/>
</svg>
