<svg width="26" height="30" viewBox="0 0 26 30" fill="none" xmlns="http://www.w3.org/2000/svg">
<path fill-rule="evenodd" clip-rule="evenodd" d="M0.958984 12.6165C0.958984 6.10002 6.40448 0.833008 12.9914 0.833008C19.5968 0.833008 25.0423 6.10002 25.0423 12.6165C25.0423 15.9002 23.8481 18.9488 21.8824 21.5327C19.714 24.383 17.0412 26.8663 14.0328 28.8156C13.3442 29.2661 12.7228 29.3001 11.9671 28.8156C8.94153 26.8663 6.26877 24.383 4.11886 21.5327C2.15179 18.9488 0.958984 15.9002 0.958984 12.6165ZM9.02581 12.9834C9.02581 15.1664 10.8072 16.8834 12.9914 16.8834C15.177 16.8834 16.9755 15.1664 16.9755 12.9834C16.9755 10.8174 15.177 9.01685 12.9914 9.01685C10.8072 9.01685 9.02581 10.8174 9.02581 12.9834Z" fill="white"/>
</svg>
