<svg width="16" height="18" viewBox="0 0 16 18" fill="none" xmlns="http://www.w3.org/2000/svg">
<path fill-rule="evenodd" clip-rule="evenodd" d="M12.6021 5.16366V6.44145C14.0374 6.88946 15.0832 8.18877 15.0832 9.74066V13.8547C15.0832 15.776 13.4904 17.3337 11.5267 17.3337H4.47384C2.5093 17.3337 0.916504 15.776 0.916504 13.8547V9.74066C0.916504 8.18877 1.96313 6.88946 3.39758 6.44145V5.16366C3.40604 2.67931 5.46373 0.666992 7.98714 0.666992C10.5444 0.666992 12.6021 2.67931 12.6021 5.16366ZM8.00407 2.1162C9.72304 2.1162 11.1202 3.48259 11.1202 5.16366V6.26175H4.87944V5.1471C4.88791 3.47431 6.2851 2.1162 8.00407 2.1162ZM8.74077 12.7128C8.74077 13.1185 8.41053 13.4415 7.9956 13.4415C7.58915 13.4415 7.2589 13.1185 7.2589 12.7128V10.8744C7.2589 10.4769 7.58915 10.1539 7.9956 10.1539C8.41053 10.1539 8.74077 10.4769 8.74077 10.8744V12.7128Z" fill="#1F73BB"/>
</svg>
