<svg width="20" height="20" viewBox="0 0 20 20" fill="none" xmlns="http://www.w3.org/2000/svg">
<path d="M13.2501 10.7501C12.8354 10.7501 12.5002 11.0861 12.5002 11.5V14.5002C12.5002 14.9134 12.1641 15.2501 11.7501 15.2501H9.50004V3.99999C9.50004 3.35948 9.09203 2.78722 8.47858 2.57422L8.25651 2.49993H11.7501C12.1641 2.49993 12.5002 2.83666 12.5002 3.25003V5.50005C12.5002 5.91397 12.8354 6.25002 13.2501 6.25002C13.6649 6.25002 14.0001 5.91397 14.0001 5.50005V3.25003C14.0001 2.00952 12.9906 1 11.7501 1H3.68752C3.65895 1 3.63506 1.01277 3.60732 1.01648C3.5712 1.01346 3.53673 1 3.50006 1C2.67278 1 2 1.67265 2 2.49993V16.0001C2 16.6406 2.40801 17.2129 3.02147 17.4258L7.53511 18.9304C7.6881 18.9777 7.84026 19.0002 8.00012 19.0002C8.8274 19.0002 9.50004 18.3274 9.50004 17.5001V16.7502H11.7501C12.9906 16.7502 14.0001 15.7407 14.0001 14.5002V11.5C14.0001 11.0861 13.6649 10.7501 13.2501 10.7501Z" fill="#1F73BB"/>
<path d="M19.7799 7.96995L16.7798 4.96996C16.5654 4.75545 16.2428 4.6909 15.9624 4.80708C15.6827 4.9234 15.4996 5.1971 15.4996 5.50019V7.75022H12.4996C12.0856 7.75022 11.7495 8.08613 11.7495 8.50018C11.7495 8.91423 12.0856 9.25014 12.4996 9.25014H15.4996V11.5002C15.4996 11.8033 15.6827 12.077 15.9624 12.1933C16.2428 12.3095 16.5654 12.2449 16.7798 12.0305L19.7799 9.03041C20.0731 8.73721 20.0731 8.26315 19.7799 7.96995Z" fill="#1F73BB"/>
</svg>
