<svg width="120" height="72" viewBox="0 0 120 72" fill="none" xmlns="http://www.w3.org/2000/svg">
<path d="M0 71.7175V67.9805C0.514472 68.1091 0.900322 68.1091 1.41479 68.1091C2.70097 68.1091 3.72991 67.3362 3.72991 65.5318V44.2683H8.36013V65.7894C8.36013 70.0425 6.17366 71.9755 2.31512 71.9755C1.41479 71.9755 0.771708 71.8465 0 71.7175Z" fill="#00142D"/>
<path d="M13.8906 54.9633C13.8906 48.9067 18.6495 43.8806 25.0804 43.8806C31.5112 43.8806 36.2701 48.7776 36.2701 54.8347V54.9633C36.2701 61.0204 31.5112 65.9174 25.0804 65.9174C18.5209 65.7884 13.8906 60.8914 13.8906 54.9633ZM31.6399 54.9633C31.6399 51.0973 28.9389 47.8757 25.0804 47.8757C21.0932 47.8757 18.5209 51.0973 18.5209 54.7057V54.8347C18.5209 58.5717 21.2219 61.7938 25.0804 61.7938C29.0675 61.7938 31.6399 58.7007 31.6399 54.9633Z" fill="#00142D"/>
<path d="M46.0442 62.0533V65.404H41.4141V36.1501H46.0442V47.8776C47.5879 45.5579 49.9028 43.8825 53.3757 43.8825C58.3915 43.8825 63.1506 47.8776 63.1506 54.8366V54.9653C63.1506 61.9243 58.3915 65.9193 53.3757 65.9193C49.9028 65.7903 47.5879 63.9863 46.0442 62.0533ZM58.5204 54.8366C58.5204 50.5835 55.6906 47.8776 52.3466 47.8776C49.0026 47.8776 46.0442 50.5835 46.0442 54.8366V54.9653C46.0442 59.0893 49.0026 61.9243 52.3466 61.9243C55.6906 61.7957 58.5204 59.0893 58.5204 54.8366Z" fill="#00142D"/>
<path d="M68.8096 44.2683H73.4397V65.4031H68.8096V44.2683Z" fill="#00142D"/>
<path d="M79.2285 62.1811L91.5758 48.1343H79.6141V44.2683H97.3636V47.49L85.0163 61.5367H97.3636V65.4031H79.2285V62.1811Z" fill="#00142D"/>
<path d="M101.864 62.1811L114.212 48.1343H102.25V44.2683H119.999V47.49L107.652 61.5367H119.999V65.4031H101.864V62.1811Z" fill="#00142D"/>
<path d="M3.72949 40.92V37.0537H8.48833L3.72949 40.92Z" fill="#00142D"/>
<path d="M68.8096 40.92V37.0537H73.6968L68.8096 40.92Z" fill="#00142D"/>
<path d="M64.6934 20.0434V10.1204H76.9121L64.6934 20.0434Z" fill="#1B75BC"/>
<path d="M64.6949 10.1184V0.195312H52.3477L64.6949 10.1184Z" fill="#EC008C"/>
<path d="M52.3466 0.195312V10.1184H40.1279L52.3466 0.195312Z" fill="#FBB040"/>
<path d="M52.3477 10.1204V20.0434H64.6949L52.3477 10.1204Z" fill="#8DC63F"/>
</svg>
