<svg width="20" height="20" viewBox="0 0 20 20" fill="none" xmlns="http://www.w3.org/2000/svg">
<path d="M19 6.77273V5.54545C19 4.13964 18.1186 3 17.0312 3H2.96875C1.88144 3 1 4.13964 1 5.54545V6.77273C1 6.89823 1.07871 7 1.17578 7H18.8242C18.9213 7 19 6.89823 19 6.77273Z" fill="#1F73BB"/>
<path d="M1 8.19397V14.8276C1 16.0274 1.88144 17 2.96875 17H17.0312C18.1186 17 19 16.0274 19 14.8276V8.19397C19 8.08686 18.9213 8 18.8242 8H1.17578C1.07871 8 1 8.08686 1 8.19397ZM5.5 13.2759C5.5 13.6186 5.24814 13.8966 4.9375 13.8966H4.375C4.06436 13.8966 3.8125 13.6186 3.8125 13.2759V12.6552C3.8125 12.3124 4.06436 12.0345 4.375 12.0345H4.9375C5.24814 12.0345 5.5 12.3124 5.5 12.6552V13.2759Z" fill="#1F73BB"/>
</svg>
