<svg width="155" height="158" viewBox="0 0 155 158" fill="none" xmlns="http://www.w3.org/2000/svg">
<path d="M154.63 0H0V154.63H154.63V0Z" fill="#EBF5FF"/>
<path d="M108.271 111.148L88.8591 106.262V99.254C95.5711 95.388 100.944 88.264 103.805 79.398C104.419 79.927 105.121 80.228 105.868 80.228C108.266 80.228 110.21 77.128 110.21 73.304C110.21 69.571 108.356 66.536 106.037 66.393C106.056 65.831 106.07 65.268 106.07 64.7C106.07 63.93 106.047 63.188 106.012 62.458C107.62 57.171 108.806 51.466 106.56 46.184C105.469 43.617 102.141 41.609 101.283 39.396C101.078 38.867 100.975 38.447 100.945 38.099C100.797 36.378 102.443 36.412 102.494 33.798C102.586 29.087 97.9501 28.178 94.1921 26.662C88.1441 24.223 80.3741 21.558 73.8511 21.564C71.6001 21.566 69.4441 21.902 67.4481 22.517C63.3631 23.775 60.9451 27.726 58.0191 30.532C54.8111 33.61 50.8301 34.548 47.4011 37.317C39.0281 44.077 43.5881 58.349 46.5631 66.553C46.5631 66.553 46.9801 66.672 47.6351 66.648C45.8141 67.471 44.4781 70.136 44.4781 73.305C44.4781 77.129 46.4221 80.229 48.8201 80.229C49.5491 80.229 50.2341 79.939 50.8371 79.434C53.7011 88.283 59.0691 95.394 65.7711 99.255V106.263L46.3591 111.149C36.0671 114.202 29.0081 123.659 29.0081 134.394V157.629H125.624V134.394C125.622 123.658 118.563 114.201 108.271 111.148Z" fill="#1B75BC"/>
</svg>
