<svg width="30" height="26" viewBox="0 0 30 26" fill="none" xmlns="http://www.w3.org/2000/svg">
<path fill-rule="evenodd" clip-rule="evenodd" d="M21.9976 0.25C23.8973 0.25 25.7248 1.00083 27.0692 2.34808C28.4151 3.6925 29.1673 5.50583 29.1673 7.40417V18.5958C29.1673 22.5483 25.9515 25.75 21.9976 25.75H8.00232C4.0484 25.75 0.833984 22.5483 0.833984 18.5958V7.40417C0.833984 3.45167 4.03423 0.25 8.00232 0.25H21.9976ZM24.2515 9.515L24.3648 9.40167C24.7034 8.99083 24.7034 8.39583 24.3492 7.985C24.1523 7.77392 23.8817 7.645 23.5998 7.61667C23.3023 7.60108 23.019 7.70167 22.8051 7.9L16.4173 13C15.5957 13.6814 14.4184 13.6814 13.584 13L7.20898 7.9C6.7684 7.57417 6.15923 7.61667 5.79232 7.99917C5.40982 8.38167 5.36732 8.99083 5.69173 9.41583L5.87732 9.6L12.3232 14.6292C13.1165 15.2525 14.0784 15.5925 15.0857 15.5925C16.0901 15.5925 17.069 15.2525 17.8609 14.6292L24.2515 9.515Z" fill="white"/>
</svg>
