<svg width="21" height="21" viewBox="0 0 21 21" fill="none" xmlns="http://www.w3.org/2000/svg">
<path d="M10.5004 0.149414C4.80789 0.149414 0.150391 4.80691 0.150391 10.4994C0.150391 16.1919 4.80789 20.8494 10.5004 20.8494C16.1929 20.8494 20.8504 16.1919 20.8504 10.4994C20.8504 4.80691 16.1929 0.149414 10.5004 0.149414ZM11.3629 11.2757V13.0869C11.3629 13.6044 11.0179 13.9494 10.5004 13.9494C9.98289 13.9494 9.63789 13.6044 9.63789 13.0869V10.4994C9.63789 9.98191 9.98289 9.63691 10.5004 9.63691C11.4491 9.63691 12.2254 8.86066 12.2254 7.91191C12.2254 6.96316 11.4491 6.18691 10.5004 6.18691C9.55164 6.18691 8.77539 6.96316 8.77539 7.91191C8.77539 8.42941 8.43039 8.77441 7.91289 8.77441C7.39539 8.77441 7.05039 8.42941 7.05039 7.91191C7.05039 6.01441 8.60289 4.46191 10.5004 4.46191C12.3979 4.46191 13.9504 6.01441 13.9504 7.91191C13.9504 9.55066 12.8291 10.8444 11.3629 11.2757ZM11.3629 16.5369C11.3629 17.0544 11.0179 17.3994 10.5004 17.3994C9.98289 17.3994 9.63789 17.0544 9.63789 16.5369C9.63789 16.0194 9.98289 15.6744 10.5004 15.6744C11.0179 15.6744 11.3629 16.0194 11.3629 16.5369Z" fill="#4D5A65"/>
</svg>
