<svg width="93" height="93" viewBox="0 0 93 93" fill="none" xmlns="http://www.w3.org/2000/svg">
<circle cx="46.5" cy="46.5" r="46.5" fill="#F0F8FF"/>
<path d="M62.3693 35.1429C62.4489 34.4962 62.4905 33.8377 62.4905 33.1695C62.4905 27.5531 57.9374 23 52.3209 23H35.3255C34.2564 23 33.3437 23.772 33.1663 24.8262L26.9039 62.0475C26.6792 63.3832 27.7088 64.6003 29.0631 64.6003H35.2788C36.3478 64.6003 37.2777 63.8289 37.455 62.7746C37.455 62.7746 37.4654 62.7128 37.4841 62.6015H37.4842L36.618 67.7501C36.4201 68.9272 37.3275 70 38.5211 70H43.9589C44.9012 70 45.7057 69.3195 45.8619 68.3903L47.4068 59.2088C47.6731 57.6261 49.0433 56.4671 50.6482 56.4671H52.0768C59.8363 56.4671 66.1266 50.1767 66.1266 42.4172C66.1266 39.4147 64.6425 36.7605 62.3693 35.1429Z" fill="#002987"/>
<path d="M62.3683 35.1426C61.3958 43.0535 54.6533 49.1792 46.4795 49.1792H41.7369C40.6664 49.1792 39.7419 49.8922 39.4519 50.9003L36.6171 67.7496C36.4191 68.9268 37.3265 69.9997 38.5201 69.9997H43.9579C44.9002 69.9997 45.7047 69.3192 45.8609 68.39L47.4058 59.2085C47.6721 57.6257 49.0423 56.4668 50.6472 56.4668H52.0757C59.8353 56.4668 66.1256 50.1764 66.1256 42.4169C66.1256 39.4143 64.6415 36.7602 62.3683 35.1426Z" fill="#0085CC"/>
<path d="M41.7381 49.1791H46.4808C54.6547 49.1791 61.3972 43.0534 62.3696 35.1425C60.9111 34.1047 59.1288 33.4922 57.2023 33.4922H44.8235C43.4142 33.4922 42.2108 34.5099 41.9769 35.8997L39.4531 50.9001C39.7431 49.892 40.6677 49.1791 41.7381 49.1791Z" fill="#00186A"/>
</svg>
