<svg width="25" height="27" viewBox="0 0 25 27" fill="none" xmlns="http://www.w3.org/2000/svg">
<path d="M12.5 3.45312C10.5117 3.45576 8.60556 4.24679 7.19961 5.65274C5.79366 7.05869 5.00264 8.96481 5 10.9531C5 16.3375 11.9875 22.0813 12.2844 22.3656C12.3421 22.4218 12.4195 22.4531 12.5 22.4531C12.5805 22.4531 12.6579 22.4218 12.7156 22.3656C13.0125 22.0813 20 16.3375 20 10.9531C19.9974 8.96481 19.2063 7.05869 17.8004 5.65274C16.3944 4.24679 14.4883 3.45576 12.5 3.45312ZM12.5 14.3906C11.8201 14.3906 11.1555 14.189 10.5902 13.8113C10.0249 13.4336 9.58434 12.8967 9.32416 12.2686C9.06399 11.6405 8.99591 10.9493 9.12855 10.2825C9.26119 9.61569 9.58858 9.00319 10.0693 8.52245C10.5501 8.0417 11.1626 7.71431 11.8294 7.58168C12.4962 7.44904 13.1874 7.51711 13.8155 7.77729C14.4436 8.03747 14.9805 8.47806 15.3582 9.04335C15.7359 9.60865 15.9375 10.2733 15.9375 10.9531C15.937 11.8646 15.5746 12.7387 14.9301 13.3832C14.2855 14.0277 13.4115 14.3901 12.5 14.3906Z" fill="#EC008C"/>
</svg>
