<svg width="132" height="34" viewBox="0 0 132 34" fill="none" xmlns="http://www.w3.org/2000/svg">
<rect x="0.660156" y="0.94043" width="131" height="33" rx="10" fill="white"/>
<rect x="0.660156" y="0.94043" width="131" height="33" rx="10" fill="#1B75BC" fill-opacity="0.1"/>
<g clip-path="url(#clip0_1685_1587)">
<path d="M23.8606 16.7585C23.8606 16.361 23.5383 16.0387 23.1408 16.0387H16.7561C16.3585 16.0387 16.0362 16.361 16.0362 16.7585C16.0362 17.1561 16.3585 17.4784 16.7561 17.4784H23.1408C23.5383 17.4784 23.8606 17.1561 23.8606 16.7585Z" fill="#1B75BC" stroke="#1B75BC" stroke-width="0.2"/>
<path d="M16.7561 18.5182C16.3585 18.5182 16.0362 18.8405 16.0362 19.238C16.0362 19.6356 16.3585 19.9579 16.7561 19.9579H20.6337C21.0313 19.9579 21.3536 19.6356 21.3536 19.238C21.3536 18.8405 21.0313 18.5182 20.6337 18.5182H16.7561Z" fill="#1B75BC" stroke="#1B75BC" stroke-width="0.2"/>
<path d="M18.2128 24.4693H16.1396C15.5113 24.4693 14.9999 23.958 14.9999 23.3296V12.4199C14.9999 11.7915 15.5113 11.2802 16.1396 11.2802H23.7606C24.3889 11.2802 24.9003 11.7915 24.9003 12.4199V16.2321C24.9003 16.6297 25.2226 16.952 25.6202 16.952C26.0178 16.952 26.3401 16.6297 26.3401 16.2321V12.4199C26.3401 10.9975 25.183 9.84043 23.7606 9.84043H16.1396C14.7172 9.84043 13.5602 10.9975 13.5602 12.4199V23.3296C13.5602 24.752 14.7172 25.9091 16.1396 25.9091H18.2128C18.6103 25.9091 18.9326 25.5868 18.9326 25.1892C18.9326 24.7916 18.6103 24.4693 18.2128 24.4693Z" fill="#1B75BC" stroke="#1B75BC" stroke-width="0.2"/>
<path d="M27.338 18.9156L27.4083 18.8452C28.1725 19.6094 28.1725 20.8525 27.4083 21.6166L27.4083 21.6166L24.0122 25.0063C24.0122 25.0063 24.0122 25.0063 24.0122 25.0063C23.9244 25.094 23.8154 25.1574 23.6959 25.1905L23.6958 25.1905M27.338 18.9156L23.6692 25.0942L23.6958 25.1905M27.338 18.9156L27.4083 18.8452C26.6442 18.0812 25.4013 18.0811 24.6376 18.8447M27.338 18.9156L24.6376 18.8447M23.6958 25.1905L21.1939 25.8836L23.6958 25.1905ZM24.6376 18.8447L24.6375 18.8447L21.2344 22.2403L21.2344 22.2403C21.1505 22.3241 21.0886 22.4272 21.0541 22.5406L21.0541 22.5407L20.3129 24.9806L20.4086 25.0097L20.3129 24.9806C20.2366 25.2319 20.3031 25.5046 20.4865 25.6926L20.5579 25.6228L20.4865 25.6926C20.6238 25.8334 20.8104 25.9098 21.0018 25.9098C21.0658 25.9098 21.1305 25.9012 21.1939 25.8836L27.3376 21.5459C28.0627 20.8208 28.0627 19.6411 27.3376 18.9159C26.6125 18.1909 25.4328 18.1908 24.7082 18.9154L24.6376 18.8447ZM25.6062 19.9121L25.655 19.8634L25.6551 19.8633C25.8577 19.6607 26.1877 19.6607 26.3903 19.8633C26.593 20.066 26.5929 20.3959 26.3907 20.5982L26.3414 20.6474L25.6062 19.9121ZM25.3224 21.6644L23.1291 23.8536L22.071 24.1467L22.3792 23.132L24.587 20.929L25.3224 21.6644Z" fill="#1B75BC" stroke="#1B75BC" stroke-width="0.2"/>
<path d="M23.1408 13.5592H16.7561C16.3585 13.5592 16.0362 13.8815 16.0362 14.279C16.0362 14.6766 16.3585 14.9989 16.7561 14.9989H23.1408C23.5383 14.9989 23.8606 14.6766 23.8606 14.279C23.8606 13.8815 23.5383 13.5592 23.1408 13.5592Z" fill="#1B75BC" stroke="#1B75BC" stroke-width="0.2"/>
</g>
<path d="M39.632 17.7044C39.944 17.7044 40.218 17.6644 40.454 17.5844C40.694 17.5044 40.892 17.3924 41.048 17.2484C41.208 17.1004 41.328 16.9224 41.408 16.7144C41.488 16.5064 41.528 16.2744 41.528 16.0184C41.528 15.7664 41.488 15.5404 41.408 15.3404C41.332 15.1404 41.216 14.9704 41.06 14.8304C40.904 14.6904 40.706 14.5844 40.466 14.5124C40.23 14.4364 39.952 14.3984 39.632 14.3984H38.348V17.7044H39.632ZM39.632 13.3004C40.196 13.3004 40.684 13.3664 41.096 13.4984C41.512 13.6304 41.854 13.8164 42.122 14.0564C42.394 14.2924 42.596 14.5784 42.728 14.9144C42.86 15.2464 42.926 15.6144 42.926 16.0184C42.926 16.4304 42.856 16.8084 42.716 17.1524C42.576 17.4924 42.368 17.7864 42.092 18.0344C41.816 18.2784 41.472 18.4704 41.06 18.6104C40.652 18.7464 40.176 18.8144 39.632 18.8144H38.348V21.9404H36.944V13.3004H39.632ZM45.1407 16.9544C45.3327 16.5664 45.5647 16.2624 45.8367 16.0424C46.1087 15.8184 46.4347 15.7064 46.8147 15.7064C46.9467 15.7064 47.0707 15.7224 47.1867 15.7544C47.3027 15.7824 47.4067 15.8264 47.4987 15.8864L47.4087 16.8584C47.3927 16.9264 47.3667 16.9744 47.3307 17.0024C47.2987 17.0264 47.2547 17.0384 47.1987 17.0384C47.1387 17.0384 47.0527 17.0284 46.9407 17.0084C46.8287 16.9844 46.7107 16.9724 46.5867 16.9724C46.4067 16.9724 46.2467 16.9984 46.1067 17.0504C45.9707 17.1024 45.8467 17.1784 45.7347 17.2784C45.6267 17.3784 45.5307 17.5004 45.4467 17.6444C45.3627 17.7884 45.2847 17.9524 45.2127 18.1364V21.9404H43.9227V15.8204H44.6727C44.8087 15.8204 44.9027 15.8464 44.9547 15.8984C45.0067 15.9464 45.0427 16.0324 45.0627 16.1564L45.1407 16.9544ZM49.6964 15.8204V21.9404H48.4064V15.8204H49.6964ZM49.9124 13.9724C49.9124 14.0884 49.8884 14.1984 49.8404 14.3024C49.7964 14.4064 49.7344 14.4984 49.6544 14.5784C49.5744 14.6544 49.4804 14.7164 49.3724 14.7644C49.2684 14.8084 49.1564 14.8304 49.0364 14.8304C48.9204 14.8304 48.8104 14.8084 48.7064 14.7644C48.6064 14.7164 48.5184 14.6544 48.4424 14.5784C48.3664 14.4984 48.3044 14.4064 48.2564 14.3024C48.2124 14.1984 48.1904 14.0884 48.1904 13.9724C48.1904 13.8524 48.2124 13.7404 48.2564 13.6364C48.3044 13.5324 48.3664 13.4424 48.4424 13.3664C48.5184 13.2864 48.6064 13.2244 48.7064 13.1804C48.8104 13.1324 48.9204 13.1084 49.0364 13.1084C49.1564 13.1084 49.2684 13.1324 49.3724 13.1804C49.4804 13.2244 49.5744 13.2864 49.6544 13.3664C49.7344 13.4424 49.7964 13.5324 49.8404 13.6364C49.8884 13.7404 49.9124 13.8524 49.9124 13.9724ZM56.7053 15.8204L54.2453 21.9404H53.0813L50.6213 15.8204H51.6833C51.7833 15.8204 51.8653 15.8464 51.9293 15.8984C51.9973 15.9464 52.0413 16.0044 52.0613 16.0724L53.4173 19.6364C53.4733 19.8044 53.5233 19.9704 53.5673 20.1344C53.6113 20.2984 53.6493 20.4644 53.6813 20.6324C53.7133 20.4644 53.7513 20.3004 53.7953 20.1404C53.8433 19.9764 53.8953 19.8084 53.9513 19.6364L55.3313 16.0724C55.3553 16.0004 55.3993 15.9404 55.4633 15.8924C55.5273 15.8444 55.6053 15.8204 55.6973 15.8204H56.7053ZM60.7162 19.2644C60.2562 19.2804 59.8682 19.3184 59.5522 19.3784C59.2362 19.4344 58.9802 19.5084 58.7842 19.6004C58.5882 19.6884 58.4462 19.7944 58.3582 19.9184C58.2742 20.0424 58.2322 20.1784 58.2322 20.3264C58.2322 20.4704 58.2542 20.5944 58.2982 20.6984C58.3462 20.7984 58.4102 20.8824 58.4902 20.9504C58.5742 21.0144 58.6702 21.0624 58.7782 21.0944C58.8902 21.1224 59.0122 21.1364 59.1442 21.1364C59.4802 21.1364 59.7682 21.0744 60.0082 20.9504C60.2522 20.8224 60.4882 20.6384 60.7162 20.3984V19.2644ZM57.2962 16.6724C57.9882 16.0284 58.8122 15.7064 59.7682 15.7064C60.1202 15.7064 60.4322 15.7644 60.7042 15.8804C60.9802 15.9924 61.2102 16.1524 61.3942 16.3604C61.5822 16.5684 61.7242 16.8164 61.8202 17.1044C61.9202 17.3884 61.9702 17.7044 61.9702 18.0524V21.9404H61.3942C61.2702 21.9404 61.1762 21.9224 61.1122 21.8864C61.0482 21.8464 60.9942 21.7684 60.9502 21.6524L60.8242 21.1544C60.6682 21.2944 60.5142 21.4204 60.3622 21.5324C60.2102 21.6404 60.0522 21.7324 59.8882 21.8084C59.7282 21.8844 59.5542 21.9404 59.3662 21.9764C59.1822 22.0164 58.9782 22.0364 58.7542 22.0364C58.5062 22.0364 58.2742 22.0024 58.0582 21.9344C57.8462 21.8664 57.6622 21.7644 57.5062 21.6284C57.3502 21.4884 57.2262 21.3164 57.1342 21.1124C57.0462 20.9084 57.0022 20.6684 57.0022 20.3924C57.0022 20.1564 57.0642 19.9264 57.1882 19.7024C57.3162 19.4784 57.5242 19.2784 57.8122 19.1024C58.1042 18.9224 58.4862 18.7744 58.9582 18.6584C59.4342 18.5424 60.0202 18.4764 60.7162 18.4604V18.0524C60.7162 17.6124 60.6222 17.2844 60.4342 17.0684C60.2462 16.8524 59.9702 16.7444 59.6062 16.7444C59.3582 16.7444 59.1502 16.7764 58.9822 16.8404C58.8142 16.9004 58.6682 16.9664 58.5442 17.0384C58.4202 17.1104 58.3102 17.1784 58.2142 17.2424C58.1182 17.3024 58.0162 17.3324 57.9082 17.3324C57.8202 17.3324 57.7442 17.3104 57.6802 17.2664C57.6202 17.2184 57.5702 17.1604 57.5302 17.0924L57.2962 16.6724ZM65.3613 22.0364C64.8533 22.0364 64.4613 21.8944 64.1853 21.6104C63.9133 21.3224 63.7773 20.9184 63.7773 20.3984V16.8344H63.1053C63.0333 16.8344 62.9713 16.8124 62.9193 16.7684C62.8673 16.7204 62.8413 16.6504 62.8413 16.5584V16.0364L63.8313 15.8924L64.1133 14.1224C64.1333 14.0544 64.1673 14.0004 64.2153 13.9604C64.2633 13.9164 64.3273 13.8944 64.4073 13.8944H65.0673V15.9044H66.7653V16.8344H65.0673V20.3084C65.0673 20.5284 65.1213 20.6964 65.2293 20.8124C65.3373 20.9284 65.4813 20.9864 65.6613 20.9864C65.7613 20.9864 65.8473 20.9744 65.9193 20.9504C65.9913 20.9224 66.0533 20.8944 66.1053 20.8664C66.1573 20.8344 66.2013 20.8064 66.2373 20.7824C66.2773 20.7544 66.3153 20.7404 66.3513 20.7404C66.4233 20.7404 66.4813 20.7804 66.5253 20.8604L66.9093 21.4904C66.7093 21.6664 66.4733 21.8024 66.2013 21.8984C65.9293 21.9904 65.6493 22.0364 65.3613 22.0364ZM71.7492 18.1904C71.7492 17.9744 71.7172 17.7744 71.6532 17.5904C71.5932 17.4024 71.5032 17.2404 71.3832 17.1044C71.2632 16.9644 71.1132 16.8564 70.9332 16.7804C70.7572 16.7004 70.5532 16.6604 70.3212 16.6604C69.8532 16.6604 69.4852 16.7944 69.2172 17.0624C68.9492 17.3304 68.7792 17.7064 68.7072 18.1904H71.7492ZM68.6712 18.9824C68.6872 19.3304 68.7412 19.6324 68.8332 19.8884C68.9252 20.1404 69.0472 20.3504 69.1992 20.5184C69.3552 20.6864 69.5392 20.8124 69.7512 20.8964C69.9672 20.9764 70.2072 21.0164 70.4712 21.0164C70.7232 21.0164 70.9412 20.9884 71.1252 20.9324C71.3092 20.8724 71.4692 20.8084 71.6052 20.7404C71.7412 20.6684 71.8572 20.6044 71.9532 20.5484C72.0492 20.4884 72.1372 20.4584 72.2172 20.4584C72.3212 20.4584 72.4012 20.4984 72.4572 20.5784L72.8232 21.0524C72.6712 21.2324 72.4992 21.3844 72.3072 21.5084C72.1152 21.6324 71.9112 21.7344 71.6952 21.8144C71.4792 21.8904 71.2572 21.9444 71.0292 21.9764C70.8012 22.0124 70.5792 22.0304 70.3632 22.0304C69.9392 22.0304 69.5452 21.9604 69.1812 21.8204C68.8212 21.6764 68.5072 21.4664 68.2392 21.1904C67.9752 20.9144 67.7672 20.5724 67.6152 20.1644C67.4672 19.7564 67.3932 19.2864 67.3932 18.7544C67.3932 18.3304 67.4592 17.9344 67.5912 17.5664C67.7272 17.1984 67.9192 16.8784 68.1672 16.6064C68.4192 16.3344 68.7232 16.1204 69.0792 15.9644C69.4392 15.8044 69.8452 15.7244 70.2972 15.7244C70.6732 15.7244 71.0212 15.7864 71.3412 15.9104C71.6612 16.0304 71.9372 16.2084 72.1692 16.4444C72.4012 16.6804 72.5812 16.9704 72.7092 17.3144C72.8412 17.6544 72.9072 18.0424 72.9072 18.4784C72.9072 18.6784 72.8852 18.8124 72.8412 18.8804C72.7972 18.9484 72.7172 18.9824 72.6012 18.9824H68.6712ZM79.8465 17.4404C80.1665 17.4404 80.4465 17.4024 80.6865 17.3264C80.9265 17.2464 81.1265 17.1364 81.2865 16.9964C81.4465 16.8564 81.5665 16.6904 81.6465 16.4984C81.7265 16.3024 81.7665 16.0864 81.7665 15.8504C81.7665 15.3784 81.6105 15.0184 81.2985 14.7704C80.9865 14.5224 80.5145 14.3984 79.8825 14.3984H78.7425V17.4404H79.8465ZM83.9145 21.9404H82.6605C82.4125 21.9404 82.2325 21.8444 82.1205 21.6524L80.1045 18.7424C80.0365 18.6424 79.9625 18.5704 79.8825 18.5264C79.8025 18.4824 79.6825 18.4604 79.5225 18.4604H78.7425V21.9404H77.3385V13.3004H79.8825C80.4505 13.3004 80.9385 13.3584 81.3465 13.4744C81.7585 13.5904 82.0965 13.7564 82.3605 13.9724C82.6245 14.1844 82.8185 14.4404 82.9425 14.7404C83.0705 15.0404 83.1345 15.3744 83.1345 15.7424C83.1345 16.0424 83.0885 16.3224 82.9965 16.5824C82.9085 16.8424 82.7785 17.0784 82.6065 17.2904C82.4385 17.5024 82.2305 17.6864 81.9825 17.8424C81.7345 17.9984 81.4525 18.1204 81.1365 18.2084C81.3085 18.3124 81.4565 18.4584 81.5805 18.6464L83.9145 21.9404ZM88.3313 18.1904C88.3313 17.9744 88.2993 17.7744 88.2353 17.5904C88.1753 17.4024 88.0853 17.2404 87.9653 17.1044C87.8453 16.9644 87.6953 16.8564 87.5153 16.7804C87.3393 16.7004 87.1353 16.6604 86.9033 16.6604C86.4353 16.6604 86.0673 16.7944 85.7993 17.0624C85.5313 17.3304 85.3613 17.7064 85.2893 18.1904H88.3313ZM85.2533 18.9824C85.2693 19.3304 85.3233 19.6324 85.4153 19.8884C85.5073 20.1404 85.6293 20.3504 85.7813 20.5184C85.9373 20.6864 86.1213 20.8124 86.3333 20.8964C86.5493 20.9764 86.7893 21.0164 87.0533 21.0164C87.3053 21.0164 87.5233 20.9884 87.7073 20.9324C87.8913 20.8724 88.0513 20.8084 88.1873 20.7404C88.3233 20.6684 88.4393 20.6044 88.5353 20.5484C88.6313 20.4884 88.7193 20.4584 88.7993 20.4584C88.9033 20.4584 88.9833 20.4984 89.0393 20.5784L89.4053 21.0524C89.2533 21.2324 89.0813 21.3844 88.8893 21.5084C88.6973 21.6324 88.4933 21.7344 88.2773 21.8144C88.0613 21.8904 87.8393 21.9444 87.6113 21.9764C87.3833 22.0124 87.1613 22.0304 86.9453 22.0304C86.5213 22.0304 86.1273 21.9604 85.7633 21.8204C85.4033 21.6764 85.0893 21.4664 84.8213 21.1904C84.5573 20.9144 84.3493 20.5724 84.1973 20.1644C84.0493 19.7564 83.9753 19.2864 83.9753 18.7544C83.9753 18.3304 84.0413 17.9344 84.1733 17.5664C84.3093 17.1984 84.5013 16.8784 84.7493 16.6064C85.0013 16.3344 85.3053 16.1204 85.6613 15.9644C86.0213 15.8044 86.4273 15.7244 86.8793 15.7244C87.2553 15.7244 87.6033 15.7864 87.9233 15.9104C88.2433 16.0304 88.5193 16.2084 88.7513 16.4444C88.9833 16.6804 89.1633 16.9704 89.2913 17.3144C89.4233 17.6544 89.4893 18.0424 89.4893 18.4784C89.4893 18.6784 89.4673 18.8124 89.4233 18.8804C89.3793 18.9484 89.2993 18.9824 89.1833 18.9824H85.2533ZM94.5983 17.3264C94.4183 17.0984 94.2203 16.9384 94.0043 16.8464C93.7883 16.7504 93.5543 16.7024 93.3023 16.7024C92.7983 16.7024 92.4043 16.8884 92.1203 17.2604C91.8363 17.6284 91.6943 18.1744 91.6943 18.8984C91.6943 19.2744 91.7263 19.5964 91.7903 19.8644C91.8543 20.1284 91.9463 20.3444 92.0663 20.5124C92.1863 20.6804 92.3323 20.8024 92.5043 20.8784C92.6763 20.9544 92.8703 20.9924 93.0863 20.9924C93.4143 20.9924 93.6963 20.9224 93.9323 20.7824C94.1723 20.6384 94.3943 20.4364 94.5983 20.1764V17.3264ZM95.8883 15.8204V23.9744H94.5983V21.1064C94.3463 21.3824 94.0623 21.6064 93.7463 21.7784C93.4343 21.9464 93.0703 22.0304 92.6543 22.0304C92.3103 22.0304 91.9983 21.9624 91.7183 21.8264C91.4383 21.6864 91.1983 21.4844 90.9983 21.2204C90.7983 20.9564 90.6423 20.6304 90.5303 20.2424C90.4223 19.8504 90.3683 19.4024 90.3683 18.8984C90.3683 18.4424 90.4283 18.0204 90.5483 17.6324C90.6723 17.2444 90.8483 16.9084 91.0763 16.6244C91.3043 16.3364 91.5803 16.1124 91.9043 15.9524C92.2323 15.7884 92.5983 15.7064 93.0023 15.7064C93.1983 15.7064 93.3763 15.7244 93.5363 15.7604C93.7003 15.7924 93.8503 15.8424 93.9863 15.9104C94.1263 15.9744 94.2543 16.0544 94.3703 16.1504C94.4863 16.2424 94.5963 16.3484 94.7003 16.4684L94.7783 16.0664C94.8263 15.9024 94.9363 15.8204 95.1083 15.8204H95.8883ZM102.626 15.8204V21.9404H101.846C101.674 21.9404 101.564 21.8584 101.516 21.6944L101.42 21.1244C101.292 21.2604 101.156 21.3844 101.012 21.4964C100.872 21.6084 100.722 21.7044 100.562 21.7844C100.402 21.8644 100.23 21.9264 100.046 21.9704C99.8657 22.0144 99.6717 22.0364 99.4637 22.0364C99.1277 22.0364 98.8317 21.9804 98.5757 21.8684C98.3197 21.7564 98.1037 21.5984 97.9277 21.3944C97.7557 21.1904 97.6257 20.9464 97.5377 20.6624C97.4497 20.3744 97.4057 20.0584 97.4057 19.7144V15.8204H98.6957V19.7144C98.6957 20.1264 98.7897 20.4464 98.9777 20.6744C99.1697 20.9024 99.4597 21.0164 99.8477 21.0164C100.132 21.0164 100.396 20.9524 100.64 20.8244C100.888 20.6924 101.12 20.5124 101.336 20.2844V15.8204H102.626ZM108.206 18.1904C108.206 17.9744 108.174 17.7744 108.11 17.5904C108.05 17.4024 107.96 17.2404 107.84 17.1044C107.72 16.9644 107.57 16.8564 107.39 16.7804C107.214 16.7004 107.01 16.6604 106.778 16.6604C106.31 16.6604 105.942 16.7944 105.674 17.0624C105.406 17.3304 105.236 17.7064 105.164 18.1904H108.206ZM105.128 18.9824C105.144 19.3304 105.198 19.6324 105.29 19.8884C105.382 20.1404 105.504 20.3504 105.656 20.5184C105.812 20.6864 105.996 20.8124 106.208 20.8964C106.424 20.9764 106.664 21.0164 106.928 21.0164C107.18 21.0164 107.398 20.9884 107.582 20.9324C107.766 20.8724 107.926 20.8084 108.062 20.7404C108.198 20.6684 108.314 20.6044 108.41 20.5484C108.506 20.4884 108.594 20.4584 108.674 20.4584C108.778 20.4584 108.858 20.4984 108.914 20.5784L109.28 21.0524C109.128 21.2324 108.956 21.3844 108.764 21.5084C108.572 21.6324 108.368 21.7344 108.152 21.8144C107.936 21.8904 107.714 21.9444 107.486 21.9764C107.258 22.0124 107.036 22.0304 106.82 22.0304C106.396 22.0304 106.002 21.9604 105.638 21.8204C105.278 21.6764 104.964 21.4664 104.696 21.1904C104.432 20.9144 104.224 20.5724 104.072 20.1644C103.924 19.7564 103.85 19.2864 103.85 18.7544C103.85 18.3304 103.916 17.9344 104.048 17.5664C104.184 17.1984 104.376 16.8784 104.624 16.6064C104.876 16.3344 105.18 16.1204 105.536 15.9644C105.896 15.8044 106.302 15.7244 106.754 15.7244C107.13 15.7244 107.478 15.7864 107.798 15.9104C108.118 16.0304 108.394 16.2084 108.626 16.4444C108.858 16.6804 109.038 16.9704 109.166 17.3144C109.298 17.6544 109.364 18.0424 109.364 18.4784C109.364 18.6784 109.342 18.8124 109.298 18.8804C109.254 18.9484 109.174 18.9824 109.058 18.9824H105.128ZM114.221 16.9304C114.189 16.9864 114.153 17.0264 114.113 17.0504C114.073 17.0744 114.023 17.0864 113.963 17.0864C113.895 17.0864 113.821 17.0664 113.741 17.0264C113.661 16.9824 113.567 16.9344 113.459 16.8824C113.351 16.8304 113.223 16.7844 113.075 16.7444C112.931 16.7004 112.761 16.6784 112.565 16.6784C112.405 16.6784 112.259 16.6984 112.127 16.7384C111.999 16.7744 111.889 16.8284 111.797 16.9004C111.709 16.9684 111.641 17.0504 111.593 17.1464C111.545 17.2384 111.521 17.3384 111.521 17.4464C111.521 17.5904 111.565 17.7104 111.653 17.8064C111.741 17.9024 111.857 17.9864 112.001 18.0584C112.145 18.1264 112.309 18.1884 112.493 18.2444C112.677 18.3004 112.865 18.3604 113.057 18.4244C113.249 18.4884 113.437 18.5624 113.621 18.6464C113.805 18.7304 113.969 18.8344 114.113 18.9584C114.257 19.0784 114.373 19.2264 114.461 19.4024C114.549 19.5744 114.593 19.7844 114.593 20.0324C114.593 20.3204 114.541 20.5864 114.437 20.8304C114.333 21.0744 114.181 21.2864 113.981 21.4664C113.781 21.6464 113.531 21.7864 113.231 21.8864C112.935 21.9864 112.595 22.0364 112.211 22.0364C111.999 22.0364 111.793 22.0164 111.593 21.9764C111.397 21.9404 111.209 21.8904 111.029 21.8264C110.853 21.7584 110.687 21.6784 110.531 21.5864C110.379 21.4944 110.243 21.3944 110.123 21.2864L110.423 20.7944C110.459 20.7344 110.503 20.6884 110.555 20.6564C110.611 20.6204 110.679 20.6024 110.759 20.6024C110.843 20.6024 110.925 20.6304 111.005 20.6864C111.089 20.7384 111.185 20.7964 111.293 20.8604C111.405 20.9244 111.539 20.9844 111.695 21.0404C111.851 21.0924 112.045 21.1184 112.277 21.1184C112.469 21.1184 112.635 21.0964 112.775 21.0524C112.915 21.0044 113.031 20.9404 113.123 20.8604C113.215 20.7804 113.283 20.6904 113.327 20.5904C113.371 20.4864 113.393 20.3764 113.393 20.2604C113.393 20.1044 113.349 19.9764 113.261 19.8764C113.173 19.7764 113.055 19.6904 112.907 19.6184C112.763 19.5464 112.597 19.4824 112.409 19.4264C112.225 19.3704 112.037 19.3104 111.845 19.2464C111.653 19.1824 111.463 19.1084 111.275 19.0244C111.091 18.9404 110.925 18.8344 110.777 18.7064C110.633 18.5744 110.517 18.4164 110.429 18.2324C110.341 18.0444 110.297 17.8164 110.297 17.5484C110.297 17.3044 110.345 17.0724 110.441 16.8524C110.541 16.6324 110.685 16.4384 110.873 16.2704C111.065 16.1024 111.299 15.9704 111.575 15.8744C111.855 15.7744 112.177 15.7244 112.541 15.7244C112.953 15.7244 113.327 15.7904 113.663 15.9224C113.999 16.0544 114.281 16.2344 114.509 16.4624L114.221 16.9304ZM117.768 22.0364C117.26 22.0364 116.868 21.8944 116.592 21.6104C116.32 21.3224 116.184 20.9184 116.184 20.3984V16.8344H115.512C115.44 16.8344 115.378 16.8124 115.326 16.7684C115.274 16.7204 115.248 16.6504 115.248 16.5584V16.0364L116.238 15.8924L116.52 14.1224C116.54 14.0544 116.574 14.0004 116.622 13.9604C116.67 13.9164 116.734 13.8944 116.814 13.8944H117.474V15.9044H119.172V16.8344H117.474V20.3084C117.474 20.5284 117.528 20.6964 117.636 20.8124C117.744 20.9284 117.888 20.9864 118.068 20.9864C118.168 20.9864 118.254 20.9744 118.326 20.9504C118.398 20.9224 118.46 20.8944 118.512 20.8664C118.564 20.8344 118.608 20.8064 118.644 20.7824C118.684 20.7544 118.722 20.7404 118.758 20.7404C118.83 20.7404 118.888 20.7804 118.932 20.8604L119.316 21.4904C119.116 21.6664 118.88 21.8024 118.608 21.8984C118.336 21.9904 118.056 22.0364 117.768 22.0364Z" fill="#4D5A65"/>
<defs>
<clipPath id="clip0_1685_1587">
<rect width="17" height="17" fill="white" transform="translate(12.6602 8.94043)"/>
</clipPath>
</defs>
</svg>
