<svg width="45" height="51" viewBox="0 0 45 51" fill="none" xmlns="http://www.w3.org/2000/svg">
<g filter="url(#filter0_b_552_614)">
<path d="M27.361 8.82853C27.0223 7.75071 26.2408 5.33724 23.8946 3.41569C21.265 1.23626 18.2911 1.07147 17.1979 1.07208C17.1512 1.0721 17.1079 1.07243 17.0682 1.07291C16.5817 1.02303 16.113 1.00006 15.6626 1C10.5055 0.999201 7.73148 4.00202 7.73148 4.00202C5.51402 5.57219 6.92586 7.93867 6.92586 7.93867C6.70424 8.13192 6.48252 8.32232 6.2608 8.51271C6.03912 8.70307 5.8173 8.89356 5.59572 9.08677C5.54365 9.21123 5.46957 9.39708 5.39125 9.62484C5.02269 10.6997 4.90205 11.7237 4.90214 12.6495C4.90213 13.2801 4.95818 13.8652 5.0302 14.3897L5.03691 14.4382H5.01786C5.05806 14.6794 5.10284 14.9142 5.14749 15.1482L5.1546 15.1854L5.15825 15.206L5.176 15.3093L5.01931 15.1522C3.49697 15.8926 2.72945 17.6308 3.19343 19.2184C3.63329 20.7255 5.08196 21.755 6.68261 21.6725L5.76354 17.7867C6.72992 21.2651 8.07746 23.8277 9.10861 25.4891C11.4391 29.2425 13.196 30.09 14.2319 30.4448C14.7454 30.6205 16.6826 31.1945 18.8416 30.4448C20.129 29.9977 21.5934 29.03 23.5797 25.6881C24.3917 24.3224 25.3971 22.378 26.2556 19.8464C26.2534 19.8767 26.2512 19.9095 26.2492 19.9414L26.245 20.0039C26.7848 18.8041 27.471 16.9313 27.7229 14.5462L27.7301 14.4784C27.8807 13.0513 28.0835 11.1304 27.361 8.82853Z" fill="url(#paint0_linear_552_614)"/>
<path d="M3.68252 46.9968H30.0837C30.9821 46.9968 31.7104 46.2685 31.7104 45.37V43.9637C31.7104 38.47 27.8132 33.7425 22.4422 32.7231C22.4156 32.7176 22.3745 32.7121 22.3605 32.7155L22.2894 32.7157L20.1611 30.0542L18.4406 30.6918C17.7806 30.936 17.0902 31.0677 16.3946 31.1011C15.2859 31.1545 14.1877 30.8603 13.1819 30.3891L12.2107 29.8582L10.619 32.7457L10.1869 32.7468C10.1581 32.7468 10.1294 32.7502 10.101 32.7561C4.82743 33.8399 1 38.5538 1 43.9637V44.3143C1 45.7958 2.20101 46.9968 3.68252 46.9968Z" fill="url(#paint1_linear_552_614)"/>
<path d="M29.3756 19.1531C29.8371 17.3678 29.1987 15.6571 27.9511 15.3324L25.8403 21.7968C27.0887 22.122 28.9146 20.9383 29.3756 19.1531Z" fill="url(#paint2_linear_552_614)"/>
</g>
<ellipse cx="16.4921" cy="15.7189" rx="8.75679" ry="13.8088" fill="#2C8BD7"/>
<g filter="url(#filter1_b_552_614)">
<path d="M27.361 8.82853C27.0223 7.75071 26.2408 5.33724 23.8946 3.41569C21.265 1.23626 18.2911 1.07147 17.1979 1.07208C17.1512 1.0721 17.1079 1.07243 17.0682 1.07291C16.5817 1.02303 16.113 1.00006 15.6626 1C10.5055 0.999201 7.73148 4.00202 7.73148 4.00202C5.51402 5.57219 6.92586 7.93867 6.92586 7.93867C6.70424 8.13192 6.48252 8.32232 6.2608 8.51271C6.03912 8.70307 5.8173 8.89355 5.59572 9.08677C5.54365 9.21123 5.46957 9.39708 5.39125 9.62484C5.02269 10.6997 4.90205 11.7237 4.90214 12.6495C4.90213 13.2801 4.95818 13.8652 5.0302 14.3897L5.03691 14.4382H5.01786C5.05806 14.6794 5.10284 14.9142 5.14749 15.1482L5.1546 15.1854L5.15825 15.206L5.176 15.3093L5.01931 15.1522C3.49697 15.8926 2.72945 17.6308 3.19343 19.2184C3.63329 20.7255 5.08196 21.755 6.68261 21.6725L5.76354 17.7867C6.72992 21.2651 8.07746 23.8277 9.10861 25.4891C11.4391 29.2425 13.196 30.09 14.2319 30.4448C14.7454 30.6205 16.6826 31.1945 18.8416 30.4448C20.129 29.9977 21.5934 29.03 23.5797 25.6881C24.3917 24.3224 25.3971 22.378 26.2556 19.8464C26.2534 19.8767 26.2512 19.9095 26.2492 19.9414L26.245 20.0039C26.7848 18.8041 27.471 16.9313 27.7229 14.5462L27.7301 14.4784C27.8807 13.0513 28.0835 11.1304 27.361 8.82853Z" fill="white" fill-opacity="0.15"/>
<path d="M3.68253 46.9968H30.0837C30.9821 46.9968 31.7104 46.2685 31.7104 45.37V43.9636C31.7104 38.4699 27.8132 33.7425 22.4422 32.7231C22.4156 32.7176 22.3745 32.7121 22.3605 32.7155L22.2894 32.7157L20.1611 30.0542L18.4406 30.6918C17.7806 30.936 17.0902 31.0677 16.3946 31.1011C15.2859 31.1545 14.1877 30.8603 13.1819 30.3891L12.2107 29.8582L10.619 32.7457L10.1869 32.7468C10.1581 32.7468 10.1294 32.7502 10.101 32.7561C4.82743 33.8399 1 38.5538 1 43.9636V44.3143C1 45.7958 2.20101 46.9968 3.68253 46.9968Z" fill="white" fill-opacity="0.15"/>
<path d="M29.3756 19.1531C29.8371 17.3678 29.1987 15.6571 27.9511 15.3324L25.8403 21.7968C27.0887 22.122 28.9146 20.9383 29.3756 19.1531Z" fill="white" fill-opacity="0.15"/>
<path d="M27.361 8.82853C27.0223 7.75071 26.2408 5.33724 23.8946 3.41569C21.265 1.23626 18.2911 1.07147 17.1979 1.07208C17.1512 1.0721 17.1079 1.07243 17.0682 1.07291C16.5817 1.02303 16.113 1.00006 15.6626 1C10.5055 0.999201 7.73148 4.00202 7.73148 4.00202C5.51402 5.57219 6.92586 7.93867 6.92586 7.93867C6.70424 8.13192 6.48252 8.32232 6.2608 8.51271C6.03912 8.70307 5.8173 8.89355 5.59572 9.08677C5.54365 9.21123 5.46957 9.39708 5.39125 9.62484C5.02269 10.6997 4.90205 11.7237 4.90214 12.6495C4.90213 13.2801 4.95818 13.8652 5.0302 14.3897L5.03691 14.4382H5.01786C5.05806 14.6794 5.10284 14.9142 5.14749 15.1482L5.1546 15.1854L5.15825 15.206L5.176 15.3093L5.01931 15.1522C3.49697 15.8926 2.72945 17.6308 3.19343 19.2184C3.63329 20.7255 5.08196 21.755 6.68261 21.6725L5.76354 17.7867C6.72992 21.2651 8.07746 23.8277 9.10861 25.4891C11.4391 29.2425 13.196 30.09 14.2319 30.4448C14.7454 30.6205 16.6826 31.1945 18.8416 30.4448C20.129 29.9977 21.5934 29.03 23.5797 25.6881C24.3917 24.3224 25.3971 22.378 26.2556 19.8464C26.2534 19.8767 26.2512 19.9095 26.2492 19.9414L26.245 20.0039C26.7848 18.8041 27.471 16.9313 27.7229 14.5462L27.7301 14.4784C27.8807 13.0513 28.0835 11.1304 27.361 8.82853Z" stroke="white" stroke-opacity="0.5"/>
<path d="M3.68253 46.9968H30.0837C30.9821 46.9968 31.7104 46.2685 31.7104 45.37V43.9636C31.7104 38.4699 27.8132 33.7425 22.4422 32.7231C22.4156 32.7176 22.3745 32.7121 22.3605 32.7155L22.2894 32.7157L20.1611 30.0542L18.4406 30.6918C17.7806 30.936 17.0902 31.0677 16.3946 31.1011C15.2859 31.1545 14.1877 30.8603 13.1819 30.3891L12.2107 29.8582L10.619 32.7457L10.1869 32.7468C10.1581 32.7468 10.1294 32.7502 10.101 32.7561C4.82743 33.8399 1 38.5538 1 43.9636V44.3143C1 45.7958 2.20101 46.9968 3.68253 46.9968Z" stroke="white" stroke-opacity="0.5"/>
<path d="M29.3756 19.1531C29.8371 17.3678 29.1987 15.6571 27.9511 15.3324L25.8403 21.7968C27.0887 22.122 28.9146 20.9383 29.3756 19.1531Z" stroke="white" stroke-opacity="0.5"/>
</g>
<rect x="21.25" y="32.0938" width="23.6262" height="18.3759" rx="4" fill="white"/>
<path fill-rule="evenodd" clip-rule="evenodd" d="M30.4598 33.1394V31.4319C30.4598 31.0622 30.7509 30.7615 31.1084 30.7615H35.4297C35.7872 30.7615 36.0781 31.0621 36.0781 31.4319V33.1394H37.3313V31.4319C37.3313 30.3486 36.4782 29.4668 35.4297 29.4668H31.1084C30.0598 29.4668 29.2067 30.3488 29.2067 31.4319V33.1394H30.4598ZM41.23 42.2243C42.1094 42.2243 42.9147 41.8934 43.5363 41.3455V46.6856C43.5363 47.9996 42.5016 49.0678 41.23 49.0678H25.3083C24.0365 49.0678 23.002 47.9998 23.002 46.6856V41.3455C23.6237 41.8934 24.4288 42.2243 25.3083 42.2243H41.23ZM41.23 34.4341C42.5018 34.4341 43.5363 35.5021 43.5363 36.8163V38.548C43.5363 39.8609 42.5016 40.9302 41.23 40.9302H25.3083C24.0365 40.9302 23.002 39.8609 23.002 38.548V36.8163C23.002 35.5022 24.0365 34.4341 25.3083 34.4341H41.23Z" fill="#1B75BC"/>
<g filter="url(#filter2_b_552_614)">
<path fill-rule="evenodd" clip-rule="evenodd" d="M30.4598 33.1394V31.4319C30.4598 31.0622 30.7509 30.7615 31.1084 30.7615H35.4297C35.7872 30.7615 36.0781 31.0621 36.0781 31.4319V33.1394H37.3313V31.4319C37.3313 30.3486 36.4782 29.4668 35.4297 29.4668H31.1084C30.0598 29.4668 29.2067 30.3488 29.2067 31.4319V33.1394H30.4598ZM41.23 42.2243C42.1094 42.2243 42.9147 41.8934 43.5363 41.3455V46.6856C43.5363 47.9996 42.5016 49.0678 41.23 49.0678H25.3083C24.0365 49.0678 23.002 47.9998 23.002 46.6856V41.3455C23.6237 41.8934 24.4288 42.2243 25.3083 42.2243H41.23ZM41.23 34.4341C42.5018 34.4341 43.5363 35.5021 43.5363 36.8163V38.548C43.5363 39.8609 42.5016 40.9302 41.23 40.9302H25.3083C24.0365 40.9302 23.002 39.8609 23.002 38.548V36.8163C23.002 35.5022 24.0365 34.4341 25.3083 34.4341H41.23Z" fill="white" fill-opacity="0.5"/>
<path d="M29.9598 31.4319V32.6394H29.7067V31.4319C29.7067 30.6092 30.3514 29.9668 31.1084 29.9668H35.4297C36.1866 29.9668 36.8313 30.6091 36.8313 31.4319V32.6394H36.5781V31.4319C36.5781 30.8018 36.0789 30.2615 35.4297 30.2615H31.1084C30.4594 30.2615 29.9598 30.8017 29.9598 31.4319ZM41.23 42.7243C41.8794 42.7243 42.4928 42.5666 43.0363 42.2876V46.6856C43.0363 47.7388 42.2104 48.5678 41.23 48.5678H25.3083C24.3277 48.5678 23.502 47.7389 23.502 46.6856V42.2876C24.0455 42.5666 24.6588 42.7243 25.3083 42.7243H41.23ZM41.23 34.9341C42.2106 34.9341 43.0363 35.7629 43.0363 36.8163V38.548C43.0363 39.6002 42.2103 40.4302 41.23 40.4302H25.3083C24.3279 40.4302 23.502 39.6002 23.502 38.548V36.8163C23.502 35.763 24.3277 34.9341 25.3083 34.9341H41.23Z" stroke="white" stroke-opacity="0.5"/>
</g>
<g filter="url(#filter3_b_552_614)">
<path fill-rule="evenodd" clip-rule="evenodd" d="M30.4601 33.1394V31.4319C30.4601 31.0622 30.7512 30.7615 31.1087 30.7615H35.43C35.7875 30.7615 36.0783 31.0621 36.0783 31.4319V33.1394H37.3316V31.4319C37.3316 30.3486 36.4785 29.4668 35.43 29.4668H31.1087C30.0601 29.4668 29.207 30.3488 29.207 31.4319V33.1394H30.4601Z" fill="#B3D2E9"/>
</g>
<defs>
<filter id="filter0_b_552_614" x="-19" y="-19" width="70.71" height="85.9966" filterUnits="userSpaceOnUse" color-interpolation-filters="sRGB">
<feFlood flood-opacity="0" result="BackgroundImageFix"/>
<feGaussianBlur in="BackgroundImageFix" stdDeviation="10"/>
<feComposite in2="SourceAlpha" operator="in" result="effect1_backgroundBlur_552_614"/>
<feBlend mode="normal" in="SourceGraphic" in2="effect1_backgroundBlur_552_614" result="shape"/>
</filter>
<filter id="filter1_b_552_614" x="-19.2" y="-19.2" width="71.11" height="86.3966" filterUnits="userSpaceOnUse" color-interpolation-filters="sRGB">
<feFlood flood-opacity="0" result="BackgroundImageFix"/>
<feGaussianBlur in="BackgroundImageFix" stdDeviation="9.85"/>
<feComposite in2="SourceAlpha" operator="in" result="effect1_backgroundBlur_552_614"/>
<feBlend mode="normal" in="SourceGraphic" in2="effect1_backgroundBlur_552_614" result="shape"/>
</filter>
<filter id="filter2_b_552_614" x="15.002" y="21.4668" width="36.5342" height="35.6011" filterUnits="userSpaceOnUse" color-interpolation-filters="sRGB">
<feFlood flood-opacity="0" result="BackgroundImageFix"/>
<feGaussianBlur in="BackgroundImageFix" stdDeviation="4"/>
<feComposite in2="SourceAlpha" operator="in" result="effect1_backgroundBlur_552_614"/>
<feBlend mode="normal" in="SourceGraphic" in2="effect1_backgroundBlur_552_614" result="shape"/>
</filter>
<filter id="filter3_b_552_614" x="21.207" y="21.4668" width="24.125" height="19.6724" filterUnits="userSpaceOnUse" color-interpolation-filters="sRGB">
<feFlood flood-opacity="0" result="BackgroundImageFix"/>
<feGaussianBlur in="BackgroundImageFix" stdDeviation="4"/>
<feComposite in2="SourceAlpha" operator="in" result="effect1_backgroundBlur_552_614"/>
<feBlend mode="normal" in="SourceGraphic" in2="effect1_backgroundBlur_552_614" result="shape"/>
</filter>
<linearGradient id="paint0_linear_552_614" x1="16.4928" y1="20.0989" x2="16.4928" y2="47.3797" gradientUnits="userSpaceOnUse">
<stop stop-color="#1B75BC"/>
<stop offset="1" stop-color="#CCE9FF"/>
</linearGradient>
<linearGradient id="paint1_linear_552_614" x1="16.4928" y1="20.0989" x2="16.4928" y2="47.3797" gradientUnits="userSpaceOnUse">
<stop stop-color="#1B75BC"/>
<stop offset="1" stop-color="#CCE9FF"/>
</linearGradient>
<linearGradient id="paint2_linear_552_614" x1="16.4928" y1="20.0989" x2="16.4928" y2="47.3797" gradientUnits="userSpaceOnUse">
<stop stop-color="#1B75BC"/>
<stop offset="1" stop-color="#CCE9FF"/>
</linearGradient>
</defs>
</svg>
