<svg width="28" height="30" viewBox="0 0 28 30" fill="none" xmlns="http://www.w3.org/2000/svg">
<path d="M5.20833 13.584L13 0.833984L20.7917 13.584H5.20833ZM20.7917 29.1673C19.0208 29.1673 17.5159 28.5478 16.2767 27.3086C15.0376 26.0695 14.4176 24.5641 14.4167 22.7923C14.4157 21.0205 15.0357 19.5156 16.2767 18.2774C17.5177 17.0392 19.0227 16.4192 20.7917 16.4173C22.5606 16.4154 24.0661 17.0355 25.308 18.2774C26.5499 19.5193 27.1695 21.0243 27.1667 22.7923C27.1638 24.5603 26.5443 26.0658 25.308 27.3086C24.0717 28.5515 22.5663 29.1711 20.7917 29.1673ZM0.25 28.459V17.1257H11.5833V28.459H0.25Z" fill="white"/>
</svg>
