<svg width="20" height="20" viewBox="0 0 20 20" fill="none" xmlns="http://www.w3.org/2000/svg">
<path d="M10 10.625C9.25832 10.625 8.5333 10.4051 7.91661 9.99301C7.29993 9.58096 6.81928 8.99529 6.53545 8.31006C6.25162 7.62484 6.17736 6.87084 6.32206 6.14341C6.46675 5.41598 6.8239 4.7478 7.34835 4.22335C7.8728 3.6989 8.54098 3.34175 9.26841 3.19706C9.99584 3.05236 10.7498 3.12662 11.4351 3.41045C12.1203 3.69428 12.706 4.17493 13.118 4.79161C13.5301 5.4083 13.75 6.13332 13.75 6.875C13.75 7.86956 13.3549 8.82339 12.6517 9.52665C11.9484 10.2299 10.9946 10.625 10 10.625ZM10 4.375C9.50555 4.375 9.0222 4.52162 8.61108 4.79633C8.19995 5.07103 7.87952 5.46148 7.6903 5.91829C7.50108 6.37511 7.45158 6.87777 7.54804 7.36273C7.6445 7.84768 7.8826 8.29314 8.23223 8.64277C8.58187 8.9924 9.02732 9.2305 9.51228 9.32697C9.99723 9.42343 10.4999 9.37392 10.9567 9.1847C11.4135 8.99548 11.804 8.67505 12.0787 8.26393C12.3534 7.8528 12.5 7.36945 12.5 6.875C12.5 6.21196 12.2366 5.57608 11.7678 5.10723C11.2989 4.63839 10.663 4.375 10 4.375Z" fill="#1F73BB"/>
<path d="M9.9999 19.3752C8.61393 19.3743 7.2454 19.0661 5.99284 18.4727C4.74028 17.8794 3.63486 17.0158 2.75615 15.944L2.43115 15.544L2.75615 15.1502C3.6356 14.0798 4.74135 13.2176 5.99387 12.6256C7.24639 12.0336 8.61453 11.7266 9.9999 11.7266C11.3853 11.7266 12.7534 12.0336 14.0059 12.6256C15.2585 13.2176 16.3642 14.0798 17.2437 15.1502L17.5687 15.544L17.2437 15.944C16.3649 17.0158 15.2595 17.8794 14.007 18.4727C12.7544 19.0661 11.3859 19.3743 9.9999 19.3752ZM4.06865 15.5502C4.8288 16.364 5.74811 17.0128 6.76951 17.4564C7.7909 17.9 8.89259 18.1289 10.0062 18.1289C11.1197 18.1289 12.2214 17.9 13.2428 17.4564C14.2642 17.0128 15.1835 16.364 15.9437 15.5502C15.1835 14.7364 14.2642 14.0876 13.2428 13.644C12.2214 13.2004 11.1197 12.9715 10.0062 12.9715C8.89259 12.9715 7.7909 13.2004 6.76951 13.644C5.74811 14.0876 4.8288 14.7364 4.06865 15.5502Z" fill="#1F73BB"/>
<path d="M9.99991 19.375C7.87038 19.3764 5.80381 18.6528 4.14034 17.3232C2.47687 15.9936 1.31563 14.1373 0.847745 12.0598C0.379858 9.98232 0.633207 7.80743 1.56609 5.8931C2.49898 3.97877 4.05581 2.43909 5.98035 1.52747C7.9049 0.615841 10.0825 0.386598 12.1547 0.877468C14.2268 1.36834 16.0702 2.55007 17.3812 4.22816C18.6923 5.90625 19.393 7.98071 19.368 10.1101C19.343 12.2395 18.5938 14.2969 17.2437 15.9438C16.365 17.0156 15.2595 17.8792 14.007 18.4726C12.7544 19.0659 11.3859 19.3741 9.99991 19.375ZM9.99991 1.87501C8.39294 1.87501 6.82205 2.35153 5.4859 3.24432C4.14975 4.1371 3.10835 5.40605 2.49339 6.8907C1.87843 8.37535 1.71753 10.009 2.03103 11.5851C2.34454 13.1612 3.11837 14.6089 4.25467 15.7453C5.39097 16.8816 6.83871 17.6554 8.4148 17.9689C9.9909 18.2824 11.6246 18.1215 13.1092 17.5065C14.5939 16.8916 15.8628 15.8502 16.7556 14.514C17.6484 13.1779 18.1249 11.607 18.1249 10C18.1249 7.84512 17.2689 5.7785 15.7452 4.25476C14.2214 2.73103 12.1548 1.87501 9.99991 1.87501Z" fill="#1F73BB"/>
<path d="M3.2373 15.8001C3.2373 15.8001 9.53105 22.8313 15.9373 16.5001L16.7623 15.8001C16.7623 15.8001 11.4123 10.2501 5.98105 13.5813L3.2373 15.8001Z" fill="#1F73BB"/>
<path d="M10 10.25C11.7259 10.25 13.125 8.85089 13.125 7.125C13.125 5.39911 11.7259 4 10 4C8.27411 4 6.875 5.39911 6.875 7.125C6.875 8.85089 8.27411 10.25 10 10.25Z" fill="#1F73BB"/>
</svg>
