<svg width="105" height="34" viewBox="0 0 105 34" fill="none" xmlns="http://www.w3.org/2000/svg">
<rect x="0.662109" y="0.94043" width="104" height="33" rx="10" fill="white"/>
<rect x="0.662109" y="0.94043" width="104" height="33" rx="10" fill="#FFC107" fill-opacity="0.1"/>
<g clip-path="url(#clip0_1667_716)">
<path d="M23.8626 16.7585C23.8626 16.361 23.5403 16.0387 23.1427 16.0387H16.7581C16.3605 16.0387 16.0382 16.361 16.0382 16.7585C16.0382 17.1561 16.3605 17.4784 16.7581 17.4784H23.1427C23.5403 17.4784 23.8626 17.1561 23.8626 16.7585Z" fill="#FFC107" stroke="#FFC107" stroke-width="0.2"/>
<path d="M16.7581 18.5182C16.3605 18.5182 16.0382 18.8405 16.0382 19.238C16.0382 19.6356 16.3605 19.9579 16.7581 19.9579H20.6357C21.0333 19.9579 21.3555 19.6356 21.3555 19.238C21.3555 18.8405 21.0333 18.5182 20.6357 18.5182H16.7581Z" fill="#FFC107" stroke="#FFC107" stroke-width="0.2"/>
<path d="M18.2147 24.4693H16.1416C15.5132 24.4693 15.0018 23.958 15.0018 23.3296V12.4199C15.0018 11.7915 15.5132 11.2802 16.1416 11.2802H23.7625C24.3909 11.2802 24.9023 11.7915 24.9023 12.4199V16.2321C24.9023 16.6297 25.2246 16.952 25.6221 16.952C26.0197 16.952 26.342 16.6297 26.342 16.2321V12.4199C26.342 10.9975 25.1849 9.84043 23.7625 9.84043H16.1416C14.7192 9.84043 13.5621 10.9975 13.5621 12.4199V23.3296C13.5621 24.752 14.7192 25.9091 16.1416 25.9091H18.2147C18.6123 25.9091 18.9346 25.5868 18.9346 25.1892C18.9346 24.7916 18.6123 24.4693 18.2147 24.4693Z" fill="#FFC107" stroke="#FFC107" stroke-width="0.2"/>
<path d="M27.3399 18.9156L27.4103 18.8452C28.1744 19.6094 28.1744 20.8525 27.4103 21.6166L27.4102 21.6166L24.0142 25.0063C24.0142 25.0063 24.0142 25.0063 24.0142 25.0063C23.9264 25.094 23.8174 25.1574 23.6978 25.1905L23.6978 25.1905M27.3399 18.9156L23.6711 25.0942L23.6978 25.1905M27.3399 18.9156L27.4103 18.8452C26.6462 18.0812 25.4032 18.0811 24.6395 18.8447M27.3399 18.9156L24.6395 18.8447M23.6978 25.1905L21.1959 25.8836L23.6978 25.1905ZM24.6395 18.8447L24.6395 18.8447L21.2364 22.2403L21.2364 22.2403C21.1524 22.3241 21.0905 22.4272 21.056 22.5406L21.056 22.5407L20.3149 24.9806L20.4106 25.0097L20.3149 24.9806C20.2386 25.2319 20.3051 25.5046 20.4884 25.6926L20.5599 25.6228L20.4884 25.6926C20.6258 25.8334 20.8124 25.9098 21.0037 25.9098C21.0678 25.9098 21.1324 25.9012 21.1959 25.8836L27.3396 21.5459C28.0647 20.8208 28.0647 19.6411 27.3396 18.9159C26.6145 18.1909 25.4348 18.1908 24.7102 18.9154L24.6395 18.8447ZM25.6081 19.9121L25.657 19.8634L25.6571 19.8633C25.8597 19.6607 26.1896 19.6607 26.3923 19.8633C26.5949 20.066 26.5949 20.3959 26.3927 20.5982L26.3434 20.6474L25.6081 19.9121ZM25.3243 21.6644L23.1311 23.8536L22.0729 24.1467L22.3811 23.132L24.5889 20.929L25.3243 21.6644Z" fill="#FFC107" stroke="#FFC107" stroke-width="0.2"/>
<path d="M23.1427 13.5592H16.7581C16.3605 13.5592 16.0382 13.8815 16.0382 14.279C16.0382 14.6766 16.3605 14.9989 16.7581 14.9989H23.1427C23.5403 14.9989 23.8626 14.6766 23.8626 14.279C23.8626 13.8815 23.5403 13.5592 23.1427 13.5592Z" fill="#FFC107" stroke="#FFC107" stroke-width="0.2"/>
</g>
<path d="M39.6004 17.4404C39.9204 17.4404 40.2004 17.4024 40.4404 17.3264C40.6804 17.2464 40.8804 17.1364 41.0404 16.9964C41.2004 16.8564 41.3204 16.6904 41.4004 16.4984C41.4804 16.3024 41.5204 16.0864 41.5204 15.8504C41.5204 15.3784 41.3644 15.0184 41.0524 14.7704C40.7404 14.5224 40.2684 14.3984 39.6364 14.3984H38.4964V17.4404H39.6004ZM43.6684 21.9404H42.4144C42.1664 21.9404 41.9864 21.8444 41.8744 21.6524L39.8584 18.7424C39.7904 18.6424 39.7164 18.5704 39.6364 18.5264C39.5564 18.4824 39.4364 18.4604 39.2764 18.4604H38.4964V21.9404H37.0924V13.3004H39.6364C40.2044 13.3004 40.6924 13.3584 41.1004 13.4744C41.5124 13.5904 41.8504 13.7564 42.1144 13.9724C42.3784 14.1844 42.5724 14.4404 42.6964 14.7404C42.8244 15.0404 42.8884 15.3744 42.8884 15.7424C42.8884 16.0424 42.8424 16.3224 42.7504 16.5824C42.6624 16.8424 42.5324 17.0784 42.3604 17.2904C42.1924 17.5024 41.9844 17.6864 41.7364 17.8424C41.4884 17.9984 41.2064 18.1204 40.8904 18.2084C41.0624 18.3124 41.2104 18.4584 41.3344 18.6464L43.6684 21.9404ZM48.0852 18.1904C48.0852 17.9744 48.0532 17.7744 47.9892 17.5904C47.9292 17.4024 47.8392 17.2404 47.7192 17.1044C47.5992 16.9644 47.4492 16.8564 47.2692 16.7804C47.0932 16.7004 46.8892 16.6604 46.6572 16.6604C46.1892 16.6604 45.8212 16.7944 45.5532 17.0624C45.2852 17.3304 45.1152 17.7064 45.0432 18.1904H48.0852ZM45.0072 18.9824C45.0232 19.3304 45.0772 19.6324 45.1692 19.8884C45.2612 20.1404 45.3832 20.3504 45.5352 20.5184C45.6912 20.6864 45.8752 20.8124 46.0872 20.8964C46.3032 20.9764 46.5432 21.0164 46.8072 21.0164C47.0592 21.0164 47.2772 20.9884 47.4612 20.9324C47.6452 20.8724 47.8052 20.8084 47.9412 20.7404C48.0772 20.6684 48.1932 20.6044 48.2892 20.5484C48.3852 20.4884 48.4732 20.4584 48.5532 20.4584C48.6572 20.4584 48.7372 20.4984 48.7932 20.5784L49.1592 21.0524C49.0072 21.2324 48.8352 21.3844 48.6432 21.5084C48.4512 21.6324 48.2472 21.7344 48.0312 21.8144C47.8152 21.8904 47.5932 21.9444 47.3652 21.9764C47.1372 22.0124 46.9152 22.0304 46.6992 22.0304C46.2752 22.0304 45.8812 21.9604 45.5172 21.8204C45.1572 21.6764 44.8432 21.4664 44.5752 21.1904C44.3112 20.9144 44.1032 20.5724 43.9512 20.1644C43.8032 19.7564 43.7292 19.2864 43.7292 18.7544C43.7292 18.3304 43.7952 17.9344 43.9272 17.5664C44.0632 17.1984 44.2552 16.8784 44.5032 16.6064C44.7552 16.3344 45.0592 16.1204 45.4152 15.9644C45.7752 15.8044 46.1812 15.7244 46.6332 15.7244C47.0092 15.7244 47.3572 15.7864 47.6772 15.9104C47.9972 16.0304 48.2732 16.2084 48.5052 16.4444C48.7372 16.6804 48.9172 16.9704 49.0452 17.3144C49.1772 17.6544 49.2432 18.0424 49.2432 18.4784C49.2432 18.6784 49.2212 18.8124 49.1772 18.8804C49.1332 18.9484 49.0532 18.9824 48.9372 18.9824H45.0072ZM54.3522 17.3264C54.1722 17.0984 53.9742 16.9384 53.7582 16.8464C53.5422 16.7504 53.3082 16.7024 53.0562 16.7024C52.5522 16.7024 52.1582 16.8884 51.8742 17.2604C51.5902 17.6284 51.4482 18.1744 51.4482 18.8984C51.4482 19.2744 51.4802 19.5964 51.5442 19.8644C51.6082 20.1284 51.7002 20.3444 51.8202 20.5124C51.9402 20.6804 52.0862 20.8024 52.2582 20.8784C52.4302 20.9544 52.6242 20.9924 52.8402 20.9924C53.1682 20.9924 53.4502 20.9224 53.6862 20.7824C53.9262 20.6384 54.1482 20.4364 54.3522 20.1764V17.3264ZM55.6422 15.8204V23.9744H54.3522V21.1064C54.1002 21.3824 53.8162 21.6064 53.5002 21.7784C53.1882 21.9464 52.8242 22.0304 52.4082 22.0304C52.0642 22.0304 51.7522 21.9624 51.4722 21.8264C51.1922 21.6864 50.9522 21.4844 50.7522 21.2204C50.5522 20.9564 50.3962 20.6304 50.2842 20.2424C50.1762 19.8504 50.1222 19.4024 50.1222 18.8984C50.1222 18.4424 50.1822 18.0204 50.3022 17.6324C50.4262 17.2444 50.6022 16.9084 50.8302 16.6244C51.0582 16.3364 51.3342 16.1124 51.6582 15.9524C51.9862 15.7884 52.3522 15.7064 52.7562 15.7064C52.9522 15.7064 53.1302 15.7244 53.2902 15.7604C53.4542 15.7924 53.6042 15.8424 53.7402 15.9104C53.8802 15.9744 54.0082 16.0544 54.1242 16.1504C54.2402 16.2424 54.3502 16.3484 54.4542 16.4684L54.5322 16.0664C54.5802 15.9024 54.6902 15.8204 54.8622 15.8204H55.6422ZM62.3796 15.8204V21.9404H61.5996C61.4276 21.9404 61.3176 21.8584 61.2696 21.6944L61.1736 21.1244C61.0456 21.2604 60.9096 21.3844 60.7656 21.4964C60.6256 21.6084 60.4756 21.7044 60.3156 21.7844C60.1556 21.8644 59.9836 21.9264 59.7996 21.9704C59.6196 22.0144 59.4256 22.0364 59.2176 22.0364C58.8816 22.0364 58.5856 21.9804 58.3296 21.8684C58.0736 21.7564 57.8576 21.5984 57.6816 21.3944C57.5096 21.1904 57.3796 20.9464 57.2916 20.6624C57.2036 20.3744 57.1596 20.0584 57.1596 19.7144V15.8204H58.4496V19.7144C58.4496 20.1264 58.5436 20.4464 58.7316 20.6744C58.9236 20.9024 59.2136 21.0164 59.6016 21.0164C59.8856 21.0164 60.1496 20.9524 60.3936 20.8244C60.6416 20.6924 60.8736 20.5124 61.0896 20.2844V15.8204H62.3796ZM67.9602 18.1904C67.9602 17.9744 67.9282 17.7744 67.8642 17.5904C67.8042 17.4024 67.7142 17.2404 67.5942 17.1044C67.4742 16.9644 67.3242 16.8564 67.1442 16.7804C66.9682 16.7004 66.7642 16.6604 66.5322 16.6604C66.0642 16.6604 65.6962 16.7944 65.4282 17.0624C65.1602 17.3304 64.9902 17.7064 64.9182 18.1904H67.9602ZM64.8822 18.9824C64.8982 19.3304 64.9522 19.6324 65.0442 19.8884C65.1362 20.1404 65.2582 20.3504 65.4102 20.5184C65.5662 20.6864 65.7502 20.8124 65.9622 20.8964C66.1782 20.9764 66.4182 21.0164 66.6822 21.0164C66.9342 21.0164 67.1522 20.9884 67.3362 20.9324C67.5202 20.8724 67.6802 20.8084 67.8162 20.7404C67.9522 20.6684 68.0682 20.6044 68.1642 20.5484C68.2602 20.4884 68.3482 20.4584 68.4282 20.4584C68.5322 20.4584 68.6122 20.4984 68.6682 20.5784L69.0342 21.0524C68.8822 21.2324 68.7102 21.3844 68.5182 21.5084C68.3262 21.6324 68.1222 21.7344 67.9062 21.8144C67.6902 21.8904 67.4682 21.9444 67.2402 21.9764C67.0122 22.0124 66.7902 22.0304 66.5742 22.0304C66.1502 22.0304 65.7562 21.9604 65.3922 21.8204C65.0322 21.6764 64.7182 21.4664 64.4502 21.1904C64.1862 20.9144 63.9782 20.5724 63.8262 20.1644C63.6782 19.7564 63.6042 19.2864 63.6042 18.7544C63.6042 18.3304 63.6702 17.9344 63.8022 17.5664C63.9382 17.1984 64.1302 16.8784 64.3782 16.6064C64.6302 16.3344 64.9342 16.1204 65.2902 15.9644C65.6502 15.8044 66.0562 15.7244 66.5082 15.7244C66.8842 15.7244 67.2322 15.7864 67.5522 15.9104C67.8722 16.0304 68.1482 16.2084 68.3802 16.4444C68.6122 16.6804 68.7922 16.9704 68.9202 17.3144C69.0522 17.6544 69.1182 18.0424 69.1182 18.4784C69.1182 18.6784 69.0962 18.8124 69.0522 18.8804C69.0082 18.9484 68.9282 18.9824 68.8122 18.9824H64.8822ZM73.9752 16.9304C73.9432 16.9864 73.9072 17.0264 73.8672 17.0504C73.8272 17.0744 73.7772 17.0864 73.7172 17.0864C73.6492 17.0864 73.5752 17.0664 73.4952 17.0264C73.4152 16.9824 73.3212 16.9344 73.2132 16.8824C73.1052 16.8304 72.9772 16.7844 72.8292 16.7444C72.6852 16.7004 72.5152 16.6784 72.3192 16.6784C72.1592 16.6784 72.0132 16.6984 71.8812 16.7384C71.7532 16.7744 71.6432 16.8284 71.5512 16.9004C71.4632 16.9684 71.3952 17.0504 71.3472 17.1464C71.2992 17.2384 71.2752 17.3384 71.2752 17.4464C71.2752 17.5904 71.3192 17.7104 71.4072 17.8064C71.4952 17.9024 71.6112 17.9864 71.7552 18.0584C71.8992 18.1264 72.0632 18.1884 72.2472 18.2444C72.4312 18.3004 72.6192 18.3604 72.8112 18.4244C73.0032 18.4884 73.1912 18.5624 73.3752 18.6464C73.5592 18.7304 73.7232 18.8344 73.8672 18.9584C74.0112 19.0784 74.1272 19.2264 74.2152 19.4024C74.3032 19.5744 74.3472 19.7844 74.3472 20.0324C74.3472 20.3204 74.2952 20.5864 74.1912 20.8304C74.0872 21.0744 73.9352 21.2864 73.7352 21.4664C73.5352 21.6464 73.2852 21.7864 72.9852 21.8864C72.6892 21.9864 72.3492 22.0364 71.9652 22.0364C71.7532 22.0364 71.5472 22.0164 71.3472 21.9764C71.1512 21.9404 70.9632 21.8904 70.7832 21.8264C70.6072 21.7584 70.4412 21.6784 70.2852 21.5864C70.1332 21.4944 69.9972 21.3944 69.8772 21.2864L70.1772 20.7944C70.2132 20.7344 70.2572 20.6884 70.3092 20.6564C70.3652 20.6204 70.4332 20.6024 70.5132 20.6024C70.5972 20.6024 70.6792 20.6304 70.7592 20.6864C70.8432 20.7384 70.9392 20.7964 71.0472 20.8604C71.1592 20.9244 71.2932 20.9844 71.4492 21.0404C71.6052 21.0924 71.7992 21.1184 72.0312 21.1184C72.2232 21.1184 72.3892 21.0964 72.5292 21.0524C72.6692 21.0044 72.7852 20.9404 72.8772 20.8604C72.9692 20.7804 73.0372 20.6904 73.0812 20.5904C73.1252 20.4864 73.1472 20.3764 73.1472 20.2604C73.1472 20.1044 73.1032 19.9764 73.0152 19.8764C72.9272 19.7764 72.8092 19.6904 72.6612 19.6184C72.5172 19.5464 72.3512 19.4824 72.1632 19.4264C71.9792 19.3704 71.7912 19.3104 71.5992 19.2464C71.4072 19.1824 71.2172 19.1084 71.0292 19.0244C70.8452 18.9404 70.6792 18.8344 70.5312 18.7064C70.3872 18.5744 70.2712 18.4164 70.1832 18.2324C70.0952 18.0444 70.0512 17.8164 70.0512 17.5484C70.0512 17.3044 70.0992 17.0724 70.1952 16.8524C70.2952 16.6324 70.4392 16.4384 70.6272 16.2704C70.8192 16.1024 71.0532 15.9704 71.3292 15.8744C71.6092 15.7744 71.9312 15.7244 72.2952 15.7244C72.7072 15.7244 73.0812 15.7904 73.4172 15.9224C73.7532 16.0544 74.0352 16.2344 74.2632 16.4624L73.9752 16.9304ZM77.5214 22.0364C77.0134 22.0364 76.6214 21.8944 76.3454 21.6104C76.0734 21.3224 75.9374 20.9184 75.9374 20.3984V16.8344H75.2654C75.1934 16.8344 75.1314 16.8124 75.0794 16.7684C75.0274 16.7204 75.0014 16.6504 75.0014 16.5584V16.0364L75.9914 15.8924L76.2734 14.1224C76.2934 14.0544 76.3274 14.0004 76.3754 13.9604C76.4234 13.9164 76.4874 13.8944 76.5674 13.8944H77.2274V15.9044H78.9254V16.8344H77.2274V20.3084C77.2274 20.5284 77.2814 20.6964 77.3894 20.8124C77.4974 20.9284 77.6414 20.9864 77.8214 20.9864C77.9214 20.9864 78.0074 20.9744 78.0794 20.9504C78.1514 20.9224 78.2134 20.8944 78.2654 20.8664C78.3174 20.8344 78.3614 20.8064 78.3974 20.7824C78.4374 20.7544 78.4754 20.7404 78.5114 20.7404C78.5834 20.7404 78.6414 20.7804 78.6854 20.8604L79.0694 21.4904C78.8694 21.6664 78.6334 21.8024 78.3614 21.8984C78.0894 21.9904 77.8094 22.0364 77.5214 22.0364ZM83.9094 18.1904C83.9094 17.9744 83.8774 17.7744 83.8134 17.5904C83.7534 17.4024 83.6634 17.2404 83.5434 17.1044C83.4234 16.9644 83.2734 16.8564 83.0934 16.7804C82.9174 16.7004 82.7134 16.6604 82.4814 16.6604C82.0134 16.6604 81.6454 16.7944 81.3774 17.0624C81.1094 17.3304 80.9394 17.7064 80.8674 18.1904H83.9094ZM80.8314 18.9824C80.8474 19.3304 80.9014 19.6324 80.9934 19.8884C81.0854 20.1404 81.2074 20.3504 81.3594 20.5184C81.5154 20.6864 81.6994 20.8124 81.9114 20.8964C82.1274 20.9764 82.3674 21.0164 82.6314 21.0164C82.8834 21.0164 83.1014 20.9884 83.2854 20.9324C83.4694 20.8724 83.6294 20.8084 83.7654 20.7404C83.9014 20.6684 84.0174 20.6044 84.1134 20.5484C84.2094 20.4884 84.2974 20.4584 84.3774 20.4584C84.4814 20.4584 84.5614 20.4984 84.6174 20.5784L84.9834 21.0524C84.8314 21.2324 84.6594 21.3844 84.4674 21.5084C84.2754 21.6324 84.0714 21.7344 83.8554 21.8144C83.6394 21.8904 83.4174 21.9444 83.1894 21.9764C82.9614 22.0124 82.7394 22.0304 82.5234 22.0304C82.0994 22.0304 81.7054 21.9604 81.3414 21.8204C80.9814 21.6764 80.6674 21.4664 80.3994 21.1904C80.1354 20.9144 79.9274 20.5724 79.7754 20.1644C79.6274 19.7564 79.5534 19.2864 79.5534 18.7544C79.5534 18.3304 79.6194 17.9344 79.7514 17.5664C79.8874 17.1984 80.0794 16.8784 80.3274 16.6064C80.5794 16.3344 80.8834 16.1204 81.2394 15.9644C81.5994 15.8044 82.0054 15.7244 82.4574 15.7244C82.8334 15.7244 83.1814 15.7864 83.5014 15.9104C83.8214 16.0304 84.0974 16.2084 84.3294 16.4444C84.5614 16.6804 84.7414 16.9704 84.8694 17.3144C85.0014 17.6544 85.0674 18.0424 85.0674 18.4784C85.0674 18.6784 85.0454 18.8124 85.0014 18.8804C84.9574 18.9484 84.8774 18.9824 84.7614 18.9824H80.8314ZM90.1764 17.3264C89.9964 17.0944 89.7984 16.9324 89.5824 16.8404C89.3664 16.7484 89.1324 16.7024 88.8804 16.7024C88.3764 16.7024 87.9824 16.8884 87.6984 17.2604C87.4144 17.6284 87.2724 18.1744 87.2724 18.8984C87.2724 19.2744 87.3044 19.5964 87.3684 19.8644C87.4324 20.1284 87.5244 20.3444 87.6444 20.5124C87.7644 20.6804 87.9104 20.8024 88.0824 20.8784C88.2544 20.9544 88.4484 20.9924 88.6644 20.9924C88.9924 20.9924 89.2744 20.9224 89.5104 20.7824C89.7504 20.6384 89.9724 20.4364 90.1764 20.1764V17.3264ZM91.4664 13.0604V21.9404H90.6864C90.5144 21.9404 90.4044 21.8584 90.3564 21.6944L90.2424 21.0284C89.9864 21.3284 89.6944 21.5704 89.3664 21.7544C89.0424 21.9384 88.6644 22.0304 88.2324 22.0304C87.8884 22.0304 87.5764 21.9624 87.2964 21.8264C87.0164 21.6864 86.7764 21.4844 86.5764 21.2204C86.3764 20.9564 86.2204 20.6304 86.1084 20.2424C86.0004 19.8504 85.9464 19.4024 85.9464 18.8984C85.9464 18.4424 86.0064 18.0204 86.1264 17.6324C86.2504 17.2444 86.4264 16.9084 86.6544 16.6244C86.8824 16.3364 87.1584 16.1124 87.4824 15.9524C87.8104 15.7884 88.1764 15.7064 88.5804 15.7064C88.9404 15.7064 89.2464 15.7644 89.4984 15.8804C89.7504 15.9924 89.9764 16.1504 90.1764 16.3544V13.0604H91.4664Z" fill="#4D5A65"/>
<defs>
<clipPath id="clip0_1667_716">
<rect width="17" height="17" fill="white" transform="translate(12.6621 8.94043)"/>
</clipPath>
</defs>
</svg>
