<svg width="20" height="20" viewBox="0 0 20 20" fill="none" xmlns="http://www.w3.org/2000/svg">
<path fill-rule="evenodd" clip-rule="evenodd" d="M9.13331 2.48559C5.56462 2.48559 2.67163 5.37858 2.67163 8.94727C2.67163 12.516 5.56462 15.4089 9.13331 15.4089C12.702 15.4089 15.595 12.516 15.595 8.94727C15.595 5.37858 12.702 2.48559 9.13331 2.48559ZM1.3418 8.94727C1.3418 4.64414 4.83017 1.15576 9.13331 1.15576C13.4364 1.15576 16.9248 4.64414 16.9248 8.94727C16.9248 13.2504 13.4364 16.7388 9.13331 16.7388C4.83017 16.7388 1.3418 13.2504 1.3418 8.94727Z" fill="#1B75BC"/>
<path fill-rule="evenodd" clip-rule="evenodd" d="M13.9977 13.255L17.5287 16.7746C17.7888 17.0339 17.7894 17.455 17.53 17.715C17.2708 17.975 16.8499 17.9756 16.5899 17.7164L13.0586 14.1966L13.9977 13.255Z" fill="#1B75BC"/>
</svg>
