<svg width="18" height="16" viewBox="0 0 18 16" fill="none" xmlns="http://www.w3.org/2000/svg">
<path d="M3.48005 6.64868C3.69063 6.85959 4.03403 6.85959 4.2446 6.64868L4.94391 5.94937C5.15482 5.7388 5.15482 5.39539 4.94391 5.18482L4.2446 4.48551H13.867C14.7617 4.48551 15.4894 5.21321 15.4894 6.10789C15.4894 6.55506 15.8534 6.91908 16.3006 6.91908H16.8414C17.2885 6.91908 17.6526 6.55506 17.6526 6.10789C17.6526 4.02043 15.9545 2.32233 13.867 2.32233H4.2446L4.94391 1.62302C5.15482 1.41245 5.15482 1.06904 4.94391 0.858473L4.2446 0.159159C4.03403 -0.0517508 3.69063 -0.0517508 3.48005 0.159159L0.426259 3.21262C0.320804 3.31841 0.320804 3.48943 0.426259 3.59523L3.48005 6.64868Z" fill="#1F73BB"/>
<path d="M14.5197 9.35243C14.3091 9.14152 13.966 9.14152 13.7551 9.35243L13.0558 10.0517C12.8445 10.2631 12.8442 10.6046 13.0558 10.8163L13.7551 11.5156H4.13272C3.23805 11.5156 2.51034 10.7879 2.51034 9.89322C2.51034 9.44605 2.14632 9.08203 1.69915 9.08203H1.15836C0.71119 9.08203 0.347168 9.44605 0.347168 9.89322C0.347168 11.9807 2.04526 13.6788 4.13272 13.6788H13.7551L13.0558 14.3781C12.8445 14.5894 12.8442 14.931 13.0558 15.1426L13.7551 15.842C13.9661 16.0529 14.3088 16.0529 14.5197 15.842L17.5735 12.7885C17.6789 12.6827 17.6789 12.5117 17.5735 12.4059L14.5197 9.35243Z" fill="#1F73BB"/>
</svg>
