<svg width="69" height="58" viewBox="0 0 69 58" fill="none" xmlns="http://www.w3.org/2000/svg">
<path fill-rule="evenodd" clip-rule="evenodd" d="M21.4756 20.8735C21.4331 20.7755 21.3908 20.6771 21.3488 20.5769C20.9105 19.5311 20.4993 18.3754 20.2105 17.201C19.8042 15.5499 19.641 13.8634 19.9996 12.3969C21.064 8.04298 23.747 6.87714 24.6795 6.59804C24.714 7.0944 25.6366 8.29346 26.3051 9.10385C25.5657 7.69645 25.1388 6.19817 25.3145 5.09416C26.3483 2.0871 29 1.99998 29 1.99998L28.6936 2.76938C28.3661 3.83543 28.116 5.00429 28.2655 6.15359C28.3238 6.71811 28.4457 7.27457 28.6229 7.81205C28.7505 8.1987 28.9159 8.57054 29.0992 8.93289C29.1193 8.97256 29.139 9.01242 29.1588 9.05227C29.2138 9.16351 29.2689 9.27469 29.3316 9.38151C29.916 10.3561 30.666 11.2377 31.5887 11.8998C30.7993 11.1002 30.1835 10.17 29.7177 9.19358C29.6876 9.1235 29.6603 9.05252 29.6331 8.98153L29.6331 8.98141C29.6167 8.93882 29.6004 8.89622 29.5834 8.8538C29.4329 8.47736 29.2961 8.09661 29.1921 7.70924C29.0506 7.18269 28.9597 6.64708 28.9466 6.10442C28.8838 5.05131 29.1006 4.01962 29.4415 2.98909C29.5464 2.64817 29.6657 2.30911 29.7903 1.97135C29.9937 1.69304 30.108 1.49958 30.1987 1.34622C30.4246 0.964325 30.5033 0.83113 31.442 0.255493C31.1694 0.422643 31.1793 1.37722 31.1868 2.10945V2.10948V2.10953C31.1899 2.41154 31.1927 2.67572 31.175 2.83121C31.0525 3.91034 31.1879 5.02255 31.6273 6.02131C31.842 6.51378 32.1252 7.00885 32.4516 7.41103C32.4802 7.44584 32.5099 7.48072 32.5397 7.51562L32.5863 7.57049C32.8827 7.92248 33.2099 8.26916 33.6647 8.47679C33.5968 8.34565 33.5308 8.21595 33.4653 8.08742L33.4652 8.08711L33.4649 8.08655L33.4642 8.08522C33.3892 7.93785 33.315 7.79204 33.2397 7.64741C33.1435 7.46279 33.0473 7.27888 32.9381 7.10073C32.661 6.65628 32.4159 6.2518 32.2393 5.78866C31.8736 4.88063 31.7884 3.88245 31.9279 2.92726C32.3131 1.68707 32.4982 1.68707 32.4982 1.68707C32.8489 1.17389 33.4076 0.803343 34.024 0.546249C33.8713 0.849499 33.7268 1.1667 33.6042 1.5C33.1297 2.78945 33.3622 3.13569 34.0806 4.20584C34.1435 4.29955 34.2101 4.39882 34.2803 4.50477C35.0192 5.61927 36.5246 6.59129 36.5246 6.59129C36.5246 6.59129 38.5561 6.75636 40.5826 9.12197C41.7402 10.4732 42.4392 12.1412 42.3605 14.3695C42.3166 15.6114 42.2267 16.354 41.8638 17.2666C40.7613 20.0398 38.9724 22.0645 38.9724 22.0645C38.9724 22.0645 39.2494 14.0945 37.3418 11.0522C37.1243 10.7054 36.8801 10.4192 36.6022 10.2197C36.3601 10.0457 36.1433 9.93308 35.9437 9.86291C35.7844 9.80698 35.6352 9.77635 35.4975 9.77621C34.8137 9.77602 34.3673 10.4112 33.8608 11.1317C33.1971 12.076 32.4303 13.1669 30.891 13.1669C29.5065 13.1669 27.9459 11.7451 26.8205 9.9906C26.0982 10.3734 23.2866 12.191 23.211 17.5566C23.2052 17.964 23.1853 18.4158 23.1644 18.89L23.1644 18.8901C23.136 19.5365 23.1057 20.2243 23.1069 20.8974L21.4756 20.8735ZM34.6055 15.0456L37.2335 15.9885L37.0173 16.5466L34.3893 15.6038L34.6055 15.0456ZM24.7426 16.4552L24.7426 16.4553L24.7426 16.4557C24.7368 16.5467 24.7309 16.6379 24.7263 16.7274L26.8422 15.6861L26.5608 15.1558L24.7661 16.0391L24.7636 16.087L24.762 16.1199C24.7572 16.2285 24.7499 16.3414 24.7426 16.4548L24.7426 16.455L24.7426 16.4551L24.7426 16.4552ZM26.9484 18.4634C25.3933 18.4634 24.7306 19.4962 24.5767 20.0922L24.5761 20.1562L25.1646 20.2724C25.1749 20.2226 25.44 19.0588 26.9484 19.0588C28.4419 19.0588 28.722 20.2243 28.7323 20.2724L29.3385 20.1526C29.2134 19.5684 28.5541 18.4634 26.9484 18.4634ZM55.2258 42.5549C56.7028 44.8928 57.0381 46.2468 57.052 46.3032L57.1547 46.7308L56.7604 46.9518C56.5882 47.0483 54.047 48.4508 49.8981 49.6864L48.0116 46.7553L48.7078 50.0241C46.1606 50.7079 43.1072 51.2918 39.6897 51.4975C36.4035 51.6951 33.5242 51.7611 31.1456 51.7611C30.3269 51.7611 29.6685 51.0935 29.6685 50.2749V43.8475L30.9015 40.4198L29.6685 41.9248V38.5325L31.4429 39.7589L31.3189 39.9102L35.6396 44.6443L36.5022 45.6973L40.8103 39.8542L36.6107 43.9066L32.9573 39.447L32.9521 39.4407L37.7168 36.1475L36.6343 35.4297C36.3813 34.7676 36.2308 34.0645 36.2308 33.3364V31.5269C35.0552 32.8031 33.4874 33.7267 31.4058 33.7267C30.7649 33.7267 30.1911 33.6584 29.6685 33.5536V32.2498C30.0295 32.3719 30.4146 32.4578 30.8249 32.5018C30.866 32.5049 30.9068 32.5082 30.9476 32.5116H30.9476H30.9477C31.0959 32.5238 31.2442 32.536 31.4058 32.536C31.5993 32.536 31.7825 32.5158 31.9654 32.4956H31.9655H31.9655H31.9656H31.9656H31.9656H31.9657H31.9657H31.9658H31.9658L31.966 32.4955L31.9801 32.494C34.0997 32.2148 35.5726 30.4673 36.0988 29.7411C37.1072 28.2506 37.6903 26.4825 37.9998 25.269L39.5128 23.1955C39.8305 23.1106 40.2657 22.8761 40.685 22.2611C40.8222 22.0597 40.8925 21.7108 40.9159 21.2724C40.9159 21.2724 41.9952 19.6506 42.0744 19.4876C42.223 20.8744 42.197 22.2122 41.7188 22.9143C40.9368 24.0619 40.016 24.3544 39.4549 24.4158C39.2766 25.359 38.7305 27.7349 37.4676 29.8506V33.3366C37.5212 34.6039 37.8092 35.4033 38.0331 35.929L39.3417 35.0244L42.4335 38.2878L42.2949 38.4215C44.5042 39.9873 48.1311 40.4257 50.3575 40.5614C52.3062 40.68 54.2452 41.004 55.2258 42.5549ZM19.9791 20.8372L19.9942 20.8735H19.9676V20.8093L19.9791 20.8372ZM37.4285 20.1526L36.8228 20.2738C36.812 20.2243 36.5319 19.0588 35.0386 19.0588C33.53 19.0588 33.2649 20.2226 33.2548 20.2724L32.6484 20.1526C32.7733 19.5685 33.4327 18.4634 35.0385 18.4634C36.6441 18.4634 37.3035 19.5685 37.4285 20.1526ZM31.3114 27.0806C30.6168 27.0806 30.0763 26.9075 29.6682 26.7003V27.3525C30.1116 27.536 30.6504 27.6759 31.3114 27.6759C33.3392 27.6759 34.4793 26.4106 34.527 26.3568L34.056 25.9711C34.0463 25.9824 33.0566 27.0806 31.3114 27.0806ZM25.4511 22.0645H14.5473C12.9012 22.0645 11.567 23.3494 11.567 24.9346V35.8365L9.02233 38.0616C7.89604 39.0457 7.15761 40.3862 6.94267 41.8352L6.59111 44.206L4.58548 45.3449L3.83319 46.7007L3.22967 45.3951L0.641246 46.3908C0.122991 46.5902 -0.133597 47.1736 0.0697268 47.6903L2.61172 54.1503C2.80902 54.6517 3.36809 54.9067 3.87601 54.7268L7.0247 53.6121L6.66785 52.8342L11.2089 51.4151L15.3949 51.1098C16.0302 51.0637 16.6504 50.9183 17.2119 50.6874L17.2408 50.6769L21.2849 48.8836C22.0982 48.0322 21.883 47.1601 21.7684 46.6959C21.7237 46.515 21.6944 46.396 21.747 46.3643L25.4474 44.5579C27.0934 44.5579 28.4277 43.273 28.4277 41.6878L28.4315 24.9344C28.4314 23.3494 27.097 22.0645 25.4511 22.0645ZM22.5378 41.968C22.5378 41.968 14.9343 45.4853 15.0541 45.8147C15.134 46.0345 17.0398 45.4711 18.5737 45.0177L18.5738 45.0177L18.574 45.0176L18.574 45.0176L18.5742 45.0176C19.3378 44.7918 20.0093 44.5933 20.3172 44.5324C20.393 44.5173 20.473 44.5009 20.5558 44.484L20.5559 44.4839C21.3798 44.3149 22.4835 44.0886 22.5147 44.5941C22.5498 45.1655 21.9693 45.3951 21.2849 45.6485C21.1354 45.7038 20.9109 45.7842 20.6411 45.8809L20.641 45.881C19.3063 46.3593 16.8646 47.2344 16.9319 47.4201C16.994 47.5912 19.3486 46.9802 20.4439 46.6859C20.6944 46.6186 20.9209 46.8722 20.82 47.1125C20.5259 47.813 19.9607 48.3848 19.2321 48.6838L16.752 49.5824C16.29 49.7716 15.8021 49.8859 15.3016 49.9224L11.0564 50.2322L7.2768 51.2138L6.49407 52.4573L3.99925 47.0603L7.73097 44.9412L8.167 42.004C8.34092 40.8285 8.94001 39.7418 9.85308 38.9433L11.0445 37.902L11.1111 38.7608C11.1419 39.1551 11.2893 39.5302 11.5303 39.8428C11.6803 40.0374 11.8511 40.2184 12.0664 40.3586C12.6231 40.7205 13.3085 40.8161 13.9492 40.6217L19.2174 39.0156H14.9051C14.6237 39.0156 14.3961 38.7167 14.3961 38.3474C14.3961 37.9781 14.6237 37.6792 14.9051 37.6792H24.5761C24.8575 37.6792 25.0852 37.9781 25.0852 38.3474C25.0852 38.7167 24.8575 39.0156 24.5761 39.0156H20.5091C20.5209 39.0307 20.5319 39.0466 20.5422 39.0631C20.7034 39.3225 20.6238 39.6549 20.3611 39.8204L19.5159 40.3512H22.5401C22.8215 40.3512 23.0491 40.6501 23.0491 41.0194C23.0491 41.2585 22.9537 41.4681 22.8101 41.5862C22.7773 41.7388 22.6828 41.8773 22.5378 41.968ZM15.3166 42.9885L17.388 41.6876H19.7136L15.4102 43.1855C15.2872 43.2283 15.2063 43.0578 15.3166 42.9885ZM20.4087 36.3432C23.7294 36.3432 26.4213 33.6513 26.4213 30.3306C26.4213 27.0099 23.7294 24.318 20.4087 24.318C17.088 24.318 14.3961 27.0099 14.3961 30.3306C14.3961 33.6513 17.088 36.3432 20.4087 36.3432Z" fill="url(#paint0_linear_320_1065)"/>
<path d="M18.7689 29.7437C18.8726 27.2379 19.6964 25.6541 20.2821 25.6541C20.8678 25.6541 21.6915 27.2379 21.7952 29.7437H18.7689Z" fill="#3692DA"/>
<path d="M17.7361 29.7437H15.7324C15.9247 28.0346 17.0378 26.6066 18.5795 25.9891C18.0803 26.9663 17.7927 28.3512 17.7361 29.7437Z" fill="#3692DA"/>
<path d="M21.7952 30.7661C21.6915 33.272 20.8678 34.8558 20.2821 34.8558C19.6964 34.8558 18.8726 33.272 18.7689 30.7661H21.7952Z" fill="#3692DA"/>
<path d="M21.9834 25.9891C22.4826 26.9664 22.7702 28.3512 22.8268 29.7437H24.8305C24.6382 28.0346 23.5251 26.6066 21.9834 25.9891Z" fill="#3692DA"/>
<path d="M15.7324 30.7661C15.9247 32.4753 17.0378 33.9033 18.5795 34.5207C18.0803 33.5435 17.7927 32.1587 17.7361 30.7661H15.7324Z" fill="#3692DA"/>
<path d="M24.8305 30.7661C24.6382 32.4753 23.5251 33.9033 21.9834 34.5207C22.4826 33.5435 22.7702 32.1587 22.8268 30.7661H24.8305Z" fill="#3692DA"/>
<g opacity="0.4" filter="url(#filter0_b_320_1065)">
<circle cx="54.3315" cy="41.8822" r="14.1176" fill="#3A96DF"/>
</g>
<g filter="url(#filter1_d_320_1065)">
<g filter="url(#filter2_b_320_1065)">
<circle cx="54.3315" cy="41.8822" r="14.1176" fill="white" fill-opacity="0.5"/>
</g>
<g filter="url(#filter3_d_320_1065)">
<path fill-rule="evenodd" clip-rule="evenodd" d="M57.6629 40.7181C57.3512 40.7181 57.0952 40.4651 57.0952 40.1534C57.0952 39.8417 57.3444 39.5887 57.6562 39.5887H57.6629C57.9747 39.5887 58.2276 39.8417 58.2276 40.1534C58.2276 40.4651 57.9747 40.7181 57.6629 40.7181ZM53.9577 45.7207C52.3404 45.7207 51.025 44.4045 51.025 42.7872C51.025 41.1707 52.3404 39.8553 53.9577 39.8553C55.575 39.8553 56.8904 41.1707 56.8904 42.7872C56.8904 44.4045 55.575 45.7207 53.9577 45.7207ZM58.1885 37.613C58.0612 37.5731 57.876 37.4895 57.7202 37.3186C57.6554 37.2478 57.5681 37.0709 57.4837 36.9007C57.2563 36.4407 56.9454 35.8112 56.3197 35.5477C55.5155 35.2104 52.4285 35.2089 51.598 35.5462C50.9806 35.7999 50.6659 36.4324 50.4362 36.8939C50.3496 37.0671 50.2608 37.2463 50.1945 37.3186C50.0394 37.4903 49.8542 37.5731 49.739 37.61C47.2565 38.2967 46.8018 39.9102 46.8018 42.8392C46.8018 47.0737 47.8348 48.9628 53.9577 48.9628C60.0799 48.9628 61.1129 47.0737 61.1129 42.8392C61.1129 39.9102 60.6589 38.2967 58.1885 37.613Z" fill="white"/>
<path fill-rule="evenodd" clip-rule="evenodd" d="M53.9578 40.9843C52.9632 40.9843 52.1545 41.793 52.1545 42.7876C52.1545 43.7822 52.9632 44.5909 53.9578 44.5909C54.9524 44.5909 55.7611 43.7822 55.7611 42.7876C55.7611 41.793 54.9524 40.9843 53.9578 40.9843Z" fill="white"/>
</g>
</g>
<defs>
<filter id="filter0_b_320_1065" x="31.0139" y="18.5645" width="46.6354" height="46.6354" filterUnits="userSpaceOnUse" color-interpolation-filters="sRGB">
<feFlood flood-opacity="0" result="BackgroundImageFix"/>
<feGaussianBlur in="BackgroundImageFix" stdDeviation="4.6"/>
<feComposite in2="SourceAlpha" operator="in" result="effect1_backgroundBlur_320_1065"/>
<feBlend mode="normal" in="SourceGraphic" in2="effect1_backgroundBlur_320_1065" result="shape"/>
</filter>
<filter id="filter1_d_320_1065" x="34.2139" y="23.7645" width="34.2354" height="34.2354" filterUnits="userSpaceOnUse" color-interpolation-filters="sRGB">
<feFlood flood-opacity="0" result="BackgroundImageFix"/>
<feColorMatrix in="SourceAlpha" type="matrix" values="0 0 0 0 0 0 0 0 0 0 0 0 0 0 0 0 0 0 127 0" result="hardAlpha"/>
<feOffset dx="-3" dy="-1"/>
<feGaussianBlur stdDeviation="1.5"/>
<feComposite in2="hardAlpha" operator="out"/>
<feColorMatrix type="matrix" values="0 0 0 0 0.184314 0 0 0 0 0.545098 0 0 0 0 0.827451 0 0 0 0.5 0"/>
<feBlend mode="normal" in2="BackgroundImageFix" result="effect1_dropShadow_320_1065"/>
<feBlend mode="normal" in="SourceGraphic" in2="effect1_dropShadow_320_1065" result="shape"/>
</filter>
<filter id="filter2_b_320_1065" x="31.0139" y="18.5645" width="46.6354" height="46.6354" filterUnits="userSpaceOnUse" color-interpolation-filters="sRGB">
<feFlood flood-opacity="0" result="BackgroundImageFix"/>
<feGaussianBlur in="BackgroundImageFix" stdDeviation="4.6"/>
<feComposite in2="SourceAlpha" operator="in" result="effect1_backgroundBlur_320_1065"/>
<feBlend mode="normal" in="SourceGraphic" in2="effect1_backgroundBlur_320_1065" result="shape"/>
</filter>
<filter id="filter3_d_320_1065" x="43.8018" y="33.2939" width="20.3115" height="19.6689" filterUnits="userSpaceOnUse" color-interpolation-filters="sRGB">
<feFlood flood-opacity="0" result="BackgroundImageFix"/>
<feColorMatrix in="SourceAlpha" type="matrix" values="0 0 0 0 0 0 0 0 0 0 0 0 0 0 0 0 0 0 127 0" result="hardAlpha"/>
<feOffset dy="1"/>
<feGaussianBlur stdDeviation="1.5"/>
<feComposite in2="hardAlpha" operator="out"/>
<feColorMatrix type="matrix" values="0 0 0 0 0.203922 0 0 0 0 0.564706 0 0 0 0 0.85098 0 0 0 0.2 0"/>
<feBlend mode="normal" in2="BackgroundImageFix" result="effect1_dropShadow_320_1065"/>
<feBlend mode="normal" in="SourceGraphic" in2="effect1_dropShadow_320_1065" result="shape"/>
</filter>
<linearGradient id="paint0_linear_320_1065" x1="3.9417" y1="-21.383" x2="38.636" y2="70.1849" gradientUnits="userSpaceOnUse">
<stop offset="0.15" stop-color="#1B75BC"/>
<stop offset="1" stop-color="#4EACF7"/>
</linearGradient>
</defs>
</svg>
