<svg width="3" height="14" viewBox="0 0 3 14" fill="none" xmlns="http://www.w3.org/2000/svg">
<path d="M1.50037 2.67894C1.14512 2.67894 0.804426 2.53782 0.553226 2.28662C0.302027 2.03542 0.160905 1.69472 0.160905 1.33947C0.160905 0.98422 0.302027 0.643521 0.553226 0.392321C0.804426 0.141122 1.14512 -7.40785e-08 1.50037 -5.85501e-08C1.85562 -4.30216e-08 2.19632 0.141122 2.44752 0.392321C2.69872 0.643521 2.83984 0.98422 2.83984 1.33947C2.83984 1.69472 2.69872 2.03542 2.44752 2.28662C2.19632 2.53782 1.85562 2.67894 1.50037 2.67894ZM1.50037 8.03682C1.14512 8.03682 0.804425 7.89569 0.553226 7.6445C0.302027 7.3933 0.160904 7.0526 0.160904 6.69735C0.160904 6.3421 0.302027 6.0014 0.553226 5.7502C0.804425 5.499 1.14512 5.35788 1.50037 5.35788C1.85562 5.35788 2.19632 5.499 2.44752 5.7502C2.69872 6.0014 2.83984 6.3421 2.83984 6.69735C2.83984 7.0526 2.69872 7.3933 2.44752 7.6445C2.19632 7.89569 1.85562 8.03682 1.50037 8.03682ZM0.160904 12.0552C0.160904 12.4105 0.302027 12.7512 0.553226 13.0024C0.804425 13.2536 1.14512 13.3947 1.50037 13.3947C1.85562 13.3947 2.19632 13.2536 2.44752 13.0024C2.69872 12.7512 2.83984 12.4105 2.83984 12.0552C2.83984 11.7 2.69872 11.3593 2.44752 11.1081C2.19632 10.8569 1.85562 10.7158 1.50037 10.7158C1.14512 10.7158 0.804425 10.8569 0.553226 11.1081C0.302027 11.3593 0.160904 11.7 0.160904 12.0552Z" fill="#637381"/>
</svg>
