<svg width="111" height="34" viewBox="0 0 111 34" fill="none" xmlns="http://www.w3.org/2000/svg">
<rect x="0.666504" y="0.94043" width="110" height="33" rx="10" fill="white"/>
<rect x="0.666504" y="0.94043" width="110" height="33" rx="10" fill="#EC008C" fill-opacity="0.05"/>
<g clip-path="url(#clip0_2545_3253)">
<path d="M23.867 16.7585C23.867 16.361 23.5447 16.0387 23.1471 16.0387H16.7624C16.3649 16.0387 16.0426 16.361 16.0426 16.7585C16.0426 17.1561 16.3649 17.4784 16.7624 17.4784H23.1471C23.5447 17.4784 23.867 17.1561 23.867 16.7585Z" fill="#EC008C" stroke="#EC008C" stroke-width="0.2"/>
<path d="M16.7624 18.5182C16.3649 18.5182 16.0426 18.8405 16.0426 19.238C16.0426 19.6356 16.3649 19.9579 16.7624 19.9579H20.6401C21.0377 19.9579 21.3599 19.6356 21.3599 19.238C21.3599 18.8405 21.0377 18.5182 20.6401 18.5182H16.7624Z" fill="#EC008C" stroke="#EC008C" stroke-width="0.2"/>
<path d="M18.2191 24.4693H16.146C15.5176 24.4693 15.0062 23.958 15.0062 23.3296V12.4199C15.0062 11.7915 15.5176 11.2802 16.146 11.2802H23.7669C24.3953 11.2802 24.9067 11.7915 24.9067 12.4199V16.2321C24.9067 16.6297 25.229 16.952 25.6265 16.952C26.0241 16.952 26.3464 16.6297 26.3464 16.2321V12.4199C26.3464 10.9975 25.1893 9.84043 23.7669 9.84043H16.146C14.7236 9.84043 13.5665 10.9975 13.5665 12.4199V23.3296C13.5665 24.752 14.7236 25.9091 16.146 25.9091H18.2191C18.6167 25.9091 18.939 25.5868 18.939 25.1892C18.939 24.7916 18.6167 24.4693 18.2191 24.4693Z" fill="#EC008C" stroke="#EC008C" stroke-width="0.2"/>
<path d="M27.3448 18.9156L27.4152 18.8452C28.1793 19.6094 28.1793 20.8525 27.4152 21.6166L27.4151 21.6166L24.0191 25.0063C24.0191 25.0063 24.0191 25.0063 24.0191 25.0063C23.9312 25.094 23.8223 25.1574 23.7027 25.1905L23.7027 25.1905M27.3448 18.9156L23.676 25.0942L23.7027 25.1905M27.3448 18.9156L27.4152 18.8452C26.6511 18.0812 25.4081 18.0811 24.6444 18.8447M27.3448 18.9156L24.6444 18.8447M23.7027 25.1905L21.2008 25.8836L23.7027 25.1905ZM24.6444 18.8447L24.6443 18.8447L21.2412 22.2403L21.2412 22.2403C21.1573 22.3241 21.0954 22.4272 21.0609 22.5406L21.0609 22.5407L20.3198 24.9806L20.4154 25.0097L20.3198 24.9806C20.2435 25.2319 20.3099 25.5046 20.4933 25.6926L20.5648 25.6228L20.4933 25.6926C20.6307 25.8334 20.8173 25.9098 21.0086 25.9098C21.0726 25.9098 21.1373 25.9012 21.2007 25.8836L27.3445 21.5459C28.0695 20.8208 28.0695 19.6411 27.3444 18.9159C26.6194 18.1909 25.4396 18.1908 24.715 18.9154L24.6444 18.8447ZM25.613 19.9121L25.6619 19.8634L25.6619 19.8633C25.8646 19.6607 26.1945 19.6607 26.3971 19.8633C26.5998 20.066 26.5997 20.3959 26.3976 20.5982L26.3483 20.6474L25.613 19.9121ZM25.3292 21.6644L23.1359 23.8536L22.0778 24.1467L22.386 23.132L24.5938 20.929L25.3292 21.6644Z" fill="#EC008C" stroke="#EC008C" stroke-width="0.2"/>
<path d="M23.1471 13.5592H16.7624C16.3649 13.5592 16.0426 13.8815 16.0426 14.279C16.0426 14.6766 16.3649 14.9989 16.7624 14.9989H23.1471C23.5447 14.9989 23.867 14.6766 23.867 14.279C23.867 13.8815 23.5447 13.5592 23.1471 13.5592Z" fill="#EC008C" stroke="#EC008C" stroke-width="0.2"/>
</g>
<path d="M40.3173 20.8064C40.6493 20.8064 40.9453 20.7504 41.2053 20.6384C41.4693 20.5264 41.6913 20.3704 41.8713 20.1704C42.0553 19.9704 42.1953 19.7304 42.2913 19.4504C42.3873 19.1664 42.4353 18.8524 42.4353 18.5084V13.3004H43.8333V18.5084C43.8333 19.0164 43.7513 19.4864 43.5873 19.9184C43.4273 20.3504 43.1953 20.7244 42.8913 21.0404C42.5873 21.3524 42.2173 21.5984 41.7813 21.7784C41.3493 21.9544 40.8613 22.0424 40.3173 22.0424C39.7733 22.0424 39.2833 21.9544 38.8473 21.7784C38.4153 21.5984 38.0473 21.3524 37.7433 21.0404C37.4393 20.7244 37.2053 20.3504 37.0413 19.9184C36.8813 19.4864 36.8013 19.0164 36.8013 18.5084V13.3004H38.2053V18.5024C38.2053 18.8464 38.2533 19.1604 38.3493 19.4444C38.4453 19.7244 38.5833 19.9664 38.7633 20.1704C38.9433 20.3704 39.1633 20.5264 39.4233 20.6384C39.6873 20.7504 39.9853 20.8064 40.3173 20.8064ZM46.5709 16.9544C46.7629 16.5664 46.9949 16.2624 47.2669 16.0424C47.5389 15.8184 47.8649 15.7064 48.2449 15.7064C48.3769 15.7064 48.5009 15.7224 48.6169 15.7544C48.7329 15.7824 48.8369 15.8264 48.9289 15.8864L48.8389 16.8584C48.8229 16.9264 48.7969 16.9744 48.7609 17.0024C48.7289 17.0264 48.6849 17.0384 48.6289 17.0384C48.5689 17.0384 48.4829 17.0284 48.3709 17.0084C48.2589 16.9844 48.1409 16.9724 48.0169 16.9724C47.8369 16.9724 47.6769 16.9984 47.5369 17.0504C47.4009 17.1024 47.2769 17.1784 47.1649 17.2784C47.0569 17.3784 46.9609 17.5004 46.8769 17.6444C46.7929 17.7884 46.7149 17.9524 46.6429 18.1364V21.9404H45.3529V15.8204H46.1029C46.2389 15.8204 46.3329 15.8464 46.3849 15.8984C46.4369 15.9464 46.4729 16.0324 46.4929 16.1564L46.5709 16.9544ZM51.8611 18.8264C52.2611 18.8264 52.5611 18.7244 52.7611 18.5204C52.9611 18.3164 53.0611 18.0504 53.0611 17.7224C53.0611 17.3864 52.9611 17.1204 52.7611 16.9244C52.5611 16.7284 52.2611 16.6304 51.8611 16.6304C51.4651 16.6304 51.1651 16.7284 50.9611 16.9244C50.7611 17.1204 50.6611 17.3864 50.6611 17.7224C50.6611 17.8824 50.6871 18.0304 50.7391 18.1664C50.7911 18.3024 50.8671 18.4204 50.9671 18.5204C51.0671 18.6164 51.1911 18.6924 51.3391 18.7484C51.4911 18.8004 51.6651 18.8264 51.8611 18.8264ZM53.6551 22.2404C53.6551 22.1044 53.6151 21.9964 53.5351 21.9164C53.4591 21.8324 53.3551 21.7684 53.2231 21.7244C53.0911 21.6764 52.9371 21.6424 52.7611 21.6224C52.5851 21.5984 52.3971 21.5824 52.1971 21.5744C52.0011 21.5624 51.7991 21.5524 51.5911 21.5444C51.3871 21.5324 51.1891 21.5124 50.9971 21.4844C50.8051 21.5844 50.6471 21.7044 50.5231 21.8444C50.4031 21.9844 50.3431 22.1464 50.3431 22.3304C50.3431 22.4504 50.3731 22.5624 50.4331 22.6664C50.4971 22.7704 50.5931 22.8604 50.7211 22.9364C50.8531 23.0124 51.0191 23.0724 51.2191 23.1164C51.4231 23.1604 51.6671 23.1824 51.9511 23.1824C52.5191 23.1824 52.9451 23.0944 53.2291 22.9184C53.5131 22.7424 53.6551 22.5164 53.6551 22.2404ZM54.9511 16.0424V16.5224C54.9511 16.6824 54.8551 16.7804 54.6631 16.8164L54.0511 16.9184C54.1551 17.1504 54.2071 17.4084 54.2071 17.6924C54.2071 17.9924 54.1471 18.2644 54.0271 18.5084C53.9111 18.7524 53.7491 18.9604 53.5411 19.1324C53.3331 19.3044 53.0851 19.4364 52.7971 19.5284C52.5091 19.6204 52.1971 19.6664 51.8611 19.6664C51.7331 19.6664 51.6071 19.6604 51.4831 19.6484C51.3631 19.6324 51.2451 19.6124 51.1291 19.5884C51.0131 19.6564 50.9271 19.7284 50.8711 19.8044C50.8151 19.8804 50.7871 19.9584 50.7871 20.0384C50.7871 20.1704 50.8451 20.2684 50.9611 20.3324C51.0771 20.3964 51.2291 20.4424 51.4171 20.4704C51.6091 20.4984 51.8271 20.5164 52.0711 20.5244C52.3151 20.5324 52.5631 20.5464 52.8151 20.5664C53.0671 20.5864 53.3151 20.6204 53.5591 20.6684C53.8031 20.7124 54.0191 20.7884 54.2071 20.8964C54.3991 21.0004 54.5531 21.1424 54.6691 21.3224C54.7851 21.5024 54.8431 21.7364 54.8431 22.0244C54.8431 22.2884 54.7771 22.5464 54.6451 22.7984C54.5131 23.0504 54.3211 23.2744 54.0691 23.4704C53.8211 23.6664 53.5171 23.8224 53.1571 23.9384C52.7971 24.0584 52.3871 24.1184 51.9271 24.1184C51.4711 24.1184 51.0731 24.0744 50.7331 23.9864C50.3971 23.8984 50.1151 23.7784 49.8871 23.6264C49.6631 23.4784 49.4951 23.3064 49.3831 23.1104C49.2751 22.9144 49.2211 22.7104 49.2211 22.4984C49.2211 22.2104 49.3111 21.9644 49.4911 21.7604C49.6751 21.5564 49.9231 21.3964 50.2351 21.2804C50.0671 21.2004 49.9311 21.0904 49.8271 20.9504C49.7271 20.8104 49.6771 20.6264 49.6771 20.3984C49.6771 20.2184 49.7431 20.0304 49.8751 19.8344C50.0071 19.6384 50.2051 19.4724 50.4691 19.3364C50.1651 19.1684 49.9251 18.9464 49.7491 18.6704C49.5731 18.3904 49.4851 18.0644 49.4851 17.6924C49.4851 17.3884 49.5431 17.1144 49.6591 16.8704C49.7791 16.6264 49.9451 16.4184 50.1571 16.2464C50.3691 16.0744 50.6191 15.9424 50.9071 15.8504C51.1991 15.7584 51.5171 15.7124 51.8611 15.7124C52.3891 15.7124 52.8491 15.8224 53.2411 16.0424H54.9511ZM59.8786 18.1904C59.8786 17.9744 59.8466 17.7744 59.7826 17.5904C59.7226 17.4024 59.6326 17.2404 59.5126 17.1044C59.3926 16.9644 59.2426 16.8564 59.0626 16.7804C58.8866 16.7004 58.6826 16.6604 58.4506 16.6604C57.9826 16.6604 57.6146 16.7944 57.3466 17.0624C57.0786 17.3304 56.9086 17.7064 56.8366 18.1904H59.8786ZM56.8006 18.9824C56.8166 19.3304 56.8706 19.6324 56.9626 19.8884C57.0546 20.1404 57.1766 20.3504 57.3286 20.5184C57.4846 20.6864 57.6686 20.8124 57.8806 20.8964C58.0966 20.9764 58.3366 21.0164 58.6006 21.0164C58.8526 21.0164 59.0706 20.9884 59.2546 20.9324C59.4386 20.8724 59.5986 20.8084 59.7346 20.7404C59.8706 20.6684 59.9866 20.6044 60.0826 20.5484C60.1786 20.4884 60.2666 20.4584 60.3466 20.4584C60.4506 20.4584 60.5306 20.4984 60.5866 20.5784L60.9526 21.0524C60.8006 21.2324 60.6286 21.3844 60.4366 21.5084C60.2446 21.6324 60.0406 21.7344 59.8246 21.8144C59.6086 21.8904 59.3866 21.9444 59.1586 21.9764C58.9306 22.0124 58.7086 22.0304 58.4926 22.0304C58.0686 22.0304 57.6746 21.9604 57.3106 21.8204C56.9506 21.6764 56.6366 21.4664 56.3686 21.1904C56.1046 20.9144 55.8966 20.5724 55.7446 20.1644C55.5966 19.7564 55.5226 19.2864 55.5226 18.7544C55.5226 18.3304 55.5886 17.9344 55.7206 17.5664C55.8566 17.1984 56.0486 16.8784 56.2966 16.6064C56.5486 16.3344 56.8526 16.1204 57.2086 15.9644C57.5686 15.8044 57.9746 15.7244 58.4266 15.7244C58.8026 15.7244 59.1506 15.7864 59.4706 15.9104C59.7906 16.0304 60.0666 16.2084 60.2986 16.4444C60.5306 16.6804 60.7106 16.9704 60.8386 17.3144C60.9706 17.6544 61.0366 18.0424 61.0366 18.4784C61.0366 18.6784 61.0146 18.8124 60.9706 18.8804C60.9266 18.9484 60.8466 18.9824 60.7306 18.9824H56.8006ZM63.4456 16.6304C63.5776 16.4944 63.7136 16.3724 63.8536 16.2644C63.9976 16.1524 64.1496 16.0564 64.3096 15.9764C64.4696 15.8964 64.6396 15.8344 64.8196 15.7904C64.9996 15.7464 65.1956 15.7244 65.4076 15.7244C65.7436 15.7244 66.0376 15.7804 66.2896 15.8924C66.5456 16.0044 66.7596 16.1624 66.9316 16.3664C67.1076 16.5704 67.2396 16.8164 67.3276 17.1044C67.4156 17.3884 67.4596 17.7024 67.4596 18.0464V21.9404H66.1756V18.0464C66.1756 17.6344 66.0796 17.3144 65.8876 17.0864C65.6996 16.8584 65.4116 16.7444 65.0236 16.7444C64.7356 16.7444 64.4676 16.8104 64.2196 16.9424C63.9756 17.0744 63.7456 17.2544 63.5296 17.4824V21.9404H62.2396V15.8204H63.0196C63.1956 15.8204 63.3076 15.9024 63.3556 16.0664L63.4456 16.6304ZM70.8461 22.0364C70.3381 22.0364 69.9461 21.8944 69.6701 21.6104C69.3981 21.3224 69.2621 20.9184 69.2621 20.3984V16.8344H68.5901C68.5181 16.8344 68.4561 16.8124 68.4041 16.7684C68.3521 16.7204 68.3261 16.6504 68.3261 16.5584V16.0364L69.3161 15.8924L69.5981 14.1224C69.6181 14.0544 69.6521 14.0004 69.7001 13.9604C69.7481 13.9164 69.8121 13.8944 69.8921 13.8944H70.5521V15.9044H72.2501V16.8344H70.5521V20.3084C70.5521 20.5284 70.6061 20.6964 70.7141 20.8124C70.8221 20.9284 70.9661 20.9864 71.1461 20.9864C71.2461 20.9864 71.3321 20.9744 71.4041 20.9504C71.4761 20.9224 71.5381 20.8944 71.5901 20.8664C71.6421 20.8344 71.6861 20.8064 71.7221 20.7824C71.7621 20.7544 71.8001 20.7404 71.8361 20.7404C71.9081 20.7404 71.9661 20.7804 72.0101 20.8604L72.3941 21.4904C72.1941 21.6664 71.9581 21.8024 71.6861 21.8984C71.4141 21.9904 71.1341 22.0364 70.8461 22.0364ZM82.078 14.4704H79.384V21.9404H77.986V14.4704H75.286V13.3004H82.078V14.4704ZM84.9627 19.2644C84.5027 19.2804 84.1147 19.3184 83.7987 19.3784C83.4827 19.4344 83.2267 19.5084 83.0307 19.6004C82.8347 19.6884 82.6927 19.7944 82.6047 19.9184C82.5207 20.0424 82.4787 20.1784 82.4787 20.3264C82.4787 20.4704 82.5007 20.5944 82.5447 20.6984C82.5927 20.7984 82.6567 20.8824 82.7367 20.9504C82.8207 21.0144 82.9167 21.0624 83.0247 21.0944C83.1367 21.1224 83.2587 21.1364 83.3907 21.1364C83.7267 21.1364 84.0147 21.0744 84.2547 20.9504C84.4987 20.8224 84.7347 20.6384 84.9627 20.3984V19.2644ZM81.5427 16.6724C82.2347 16.0284 83.0587 15.7064 84.0147 15.7064C84.3667 15.7064 84.6787 15.7644 84.9507 15.8804C85.2267 15.9924 85.4567 16.1524 85.6407 16.3604C85.8287 16.5684 85.9707 16.8164 86.0667 17.1044C86.1667 17.3884 86.2167 17.7044 86.2167 18.0524V21.9404H85.6407C85.5167 21.9404 85.4227 21.9224 85.3587 21.8864C85.2947 21.8464 85.2407 21.7684 85.1967 21.6524L85.0707 21.1544C84.9147 21.2944 84.7607 21.4204 84.6087 21.5324C84.4567 21.6404 84.2987 21.7324 84.1347 21.8084C83.9747 21.8844 83.8007 21.9404 83.6127 21.9764C83.4287 22.0164 83.2247 22.0364 83.0007 22.0364C82.7527 22.0364 82.5207 22.0024 82.3047 21.9344C82.0927 21.8664 81.9087 21.7644 81.7527 21.6284C81.5967 21.4884 81.4727 21.3164 81.3807 21.1124C81.2927 20.9084 81.2487 20.6684 81.2487 20.3924C81.2487 20.1564 81.3107 19.9264 81.4347 19.7024C81.5627 19.4784 81.7707 19.2784 82.0587 19.1024C82.3507 18.9224 82.7327 18.7744 83.2047 18.6584C83.6807 18.5424 84.2667 18.4764 84.9627 18.4604V18.0524C84.9627 17.6124 84.8687 17.2844 84.6807 17.0684C84.4927 16.8524 84.2167 16.7444 83.8527 16.7444C83.6047 16.7444 83.3967 16.7764 83.2287 16.8404C83.0607 16.9004 82.9147 16.9664 82.7907 17.0384C82.6667 17.1104 82.5567 17.1784 82.4607 17.2424C82.3647 17.3024 82.2627 17.3324 82.1547 17.3324C82.0667 17.3324 81.9907 17.3104 81.9267 17.2664C81.8667 17.2184 81.8167 17.1604 81.7767 17.0924L81.5427 16.6724ZM91.3819 16.9304C91.3499 16.9864 91.3139 17.0264 91.2739 17.0504C91.2339 17.0744 91.1839 17.0864 91.1239 17.0864C91.0559 17.0864 90.9819 17.0664 90.9019 17.0264C90.8219 16.9824 90.7279 16.9344 90.6199 16.8824C90.5119 16.8304 90.3839 16.7844 90.2359 16.7444C90.0919 16.7004 89.9219 16.6784 89.7259 16.6784C89.5659 16.6784 89.4199 16.6984 89.2879 16.7384C89.1599 16.7744 89.0499 16.8284 88.9579 16.9004C88.8699 16.9684 88.8019 17.0504 88.7539 17.1464C88.7059 17.2384 88.6819 17.3384 88.6819 17.4464C88.6819 17.5904 88.7259 17.7104 88.8139 17.8064C88.9019 17.9024 89.0179 17.9864 89.1619 18.0584C89.3059 18.1264 89.4699 18.1884 89.6539 18.2444C89.8379 18.3004 90.0259 18.3604 90.2179 18.4244C90.4099 18.4884 90.5979 18.5624 90.7819 18.6464C90.9659 18.7304 91.1299 18.8344 91.2739 18.9584C91.4179 19.0784 91.5339 19.2264 91.6219 19.4024C91.7099 19.5744 91.7539 19.7844 91.7539 20.0324C91.7539 20.3204 91.7019 20.5864 91.5979 20.8304C91.4939 21.0744 91.3419 21.2864 91.1419 21.4664C90.9419 21.6464 90.6919 21.7864 90.3919 21.8864C90.0959 21.9864 89.7559 22.0364 89.3719 22.0364C89.1599 22.0364 88.9539 22.0164 88.7539 21.9764C88.5579 21.9404 88.3699 21.8904 88.1899 21.8264C88.0139 21.7584 87.8479 21.6784 87.6919 21.5864C87.5399 21.4944 87.4039 21.3944 87.2839 21.2864L87.5839 20.7944C87.6199 20.7344 87.6639 20.6884 87.7159 20.6564C87.7719 20.6204 87.8399 20.6024 87.9199 20.6024C88.0039 20.6024 88.0859 20.6304 88.1659 20.6864C88.2499 20.7384 88.3459 20.7964 88.4539 20.8604C88.5659 20.9244 88.6999 20.9844 88.8559 21.0404C89.0119 21.0924 89.2059 21.1184 89.4379 21.1184C89.6299 21.1184 89.7959 21.0964 89.9359 21.0524C90.0759 21.0044 90.1919 20.9404 90.2839 20.8604C90.3759 20.7804 90.4439 20.6904 90.4879 20.5904C90.5319 20.4864 90.5539 20.3764 90.5539 20.2604C90.5539 20.1044 90.5099 19.9764 90.4219 19.8764C90.3339 19.7764 90.2159 19.6904 90.0679 19.6184C89.9239 19.5464 89.7579 19.4824 89.5699 19.4264C89.3859 19.3704 89.1979 19.3104 89.0059 19.2464C88.8139 19.1824 88.6239 19.1084 88.4359 19.0244C88.2519 18.9404 88.0859 18.8344 87.9379 18.7064C87.7939 18.5744 87.6779 18.4164 87.5899 18.2324C87.5019 18.0444 87.4579 17.8164 87.4579 17.5484C87.4579 17.3044 87.5059 17.0724 87.6019 16.8524C87.7019 16.6324 87.8459 16.4384 88.0339 16.2704C88.2259 16.1024 88.4599 15.9704 88.7359 15.8744C89.0159 15.7744 89.3379 15.7244 89.7019 15.7244C90.1139 15.7244 90.4879 15.7904 90.8239 15.9224C91.1599 16.0544 91.4419 16.2344 91.6699 16.4624L91.3819 16.9304ZM94.2562 13.0604V18.2084H94.5322C94.6202 18.2084 94.6922 18.1964 94.7482 18.1724C94.8042 18.1484 94.8622 18.0984 94.9222 18.0224L96.6382 16.0604C96.6982 15.9804 96.7642 15.9204 96.8362 15.8804C96.9082 15.8404 97.0002 15.8204 97.1122 15.8204H98.2822L96.2182 18.1484C96.0982 18.3044 95.9662 18.4284 95.8222 18.5204C95.9022 18.5764 95.9722 18.6404 96.0322 18.7124C96.0922 18.7804 96.1502 18.8584 96.2062 18.9464L98.4082 21.9404H97.2562C97.1522 21.9404 97.0622 21.9244 96.9862 21.8924C96.9142 21.8564 96.8502 21.7924 96.7942 21.7004L95.0242 19.3004C94.9642 19.2084 94.9042 19.1504 94.8442 19.1264C94.7842 19.0984 94.6942 19.0844 94.5742 19.0844H94.2562V21.9404H92.9662V13.0604H94.2562Z" fill="#4D5A65"/>
<defs>
<clipPath id="clip0_2545_3253">
<rect width="17" height="17" fill="white" transform="translate(12.6665 8.94043)"/>
</clipPath>
</defs>
</svg>
