<svg width="19" height="16" viewBox="0 0 19 16" fill="none" xmlns="http://www.w3.org/2000/svg">
<path d="M3.49811 5.2467L4.50441 7.00772C4.78126 7.4922 4.91968 7.73444 4.91968 8C4.91968 8.26556 4.78126 8.5078 4.50441 8.99228L3.49811 10.7533C2.25981 12.9203 1.64066 14.0039 2.12348 14.5412C2.6063 15.0785 3.74961 14.5783 6.03623 13.5779L14.5976 9.83231L14.5976 9.83231C16.3931 9.04678 17.2908 8.65401 17.2908 8C17.2908 7.34598 16.3931 6.95322 14.5976 6.16769L6.03624 2.4221C3.74962 1.42171 2.6063 0.921508 2.12348 1.45883C1.64066 1.99615 2.25981 3.07966 3.49811 5.2467Z" stroke="#1B75BC" stroke-width="2"/>
</svg>
