<svg width="16" height="16" viewBox="0 0 16 16" fill="none" xmlns="http://www.w3.org/2000/svg">
<g clip-path="url(#clip0_1418_7979)">
<path d="M9.07826 8.17995C9.86739 8.17995 10.5071 7.54024 10.5071 6.75111C10.5071 5.96198 9.86739 5.32227 9.07826 5.32227C8.28913 5.32227 7.64941 5.96198 7.64941 6.75111C7.64941 7.54024 8.28913 8.17995 9.07826 8.17995Z" fill="#4D5A65"/>
<path d="M14.9509 1.84757L5.20508 0.0206035C4.8914 -0.0381937 4.5672 0.0300246 4.30382 0.210252C4.04043 0.390479 3.85942 0.667953 3.80061 0.981635L3.29524 3.67757H1.27024C1.1122 3.67757 0.955714 3.7087 0.80971 3.76918C0.663705 3.82967 0.531044 3.91831 0.419302 4.03007C0.307559 4.14182 0.218924 4.27449 0.158458 4.4205C0.0979914 4.56651 0.0668781 4.72301 0.0668945 4.88104V14.7967C0.0669525 15.1158 0.193759 15.4218 0.419423 15.6474C0.645087 15.873 0.95113 15.9998 1.27024 15.9998H11.1859C11.505 15.9998 11.8111 15.873 12.0368 15.6473C12.2624 15.4217 12.3892 15.1156 12.3892 14.7964V13.9042L12.6805 13.9589C12.8358 13.988 12.9953 13.9862 13.15 13.9537C13.3046 13.9211 13.4513 13.8585 13.5818 13.7692C13.7122 13.68 13.8237 13.5659 13.9101 13.4336C13.9964 13.3012 14.0558 13.1531 14.085 12.9978L15.912 3.25204C15.9411 3.09672 15.9393 2.93718 15.9068 2.78254C15.8742 2.62789 15.8115 2.48117 15.7223 2.35076C15.633 2.22034 15.519 2.10878 15.3866 2.02244C15.2543 1.93611 15.1062 1.87668 14.9509 1.84757ZM0.844613 10.4556V5.35292C0.844613 5.11482 0.939197 4.88647 1.10756 4.71811C1.27592 4.54975 1.50427 4.45517 1.74236 4.45517H10.7691C10.9925 4.45517 11.2067 4.54391 11.3647 4.70188C11.5227 4.85985 11.6114 5.07411 11.6114 5.29751V12.9331L7.84411 9.40182L6.4703 10.2399L4.36774 8.13729L0.844613 10.4556ZM15.0707 3.51832L13.6639 11.023L12.3891 9.28351V4.88104C12.3891 4.56189 12.2624 4.25582 12.0367 4.03015C11.811 3.80448 11.5049 3.6777 11.1858 3.6777H4.08649L4.47793 1.58895C4.49965 1.47307 4.54399 1.3626 4.60841 1.26385C4.67283 1.1651 4.75606 1.08001 4.85337 1.01343C4.95067 0.946858 5.06014 0.900099 5.17552 0.875828C5.29089 0.851556 5.40992 0.850249 5.5258 0.871979L14.398 2.5352C14.5067 2.55558 14.6104 2.59718 14.703 2.65761C14.7957 2.71805 14.8755 2.79615 14.938 2.88744C15.0004 2.97873 15.0443 3.08143 15.0671 3.18968C15.0899 3.29793 15.0911 3.4096 15.0707 3.51832Z" fill="#4D5A65"/>
</g>
<defs>
<clipPath id="clip0_1418_7979">
<rect width="16" height="16" fill="white"/>
</clipPath>
</defs>
</svg>
