<svg width="24" height="26" viewBox="0 0 24 26" fill="none" xmlns="http://www.w3.org/2000/svg">
<path d="M13.1214 9.76226C14.4159 9.76226 15.6575 9.248 16.5728 8.33261C17.4882 7.41722 18.0025 6.17569 18.0025 4.88113C18.0025 3.58657 17.4882 2.34504 16.5728 1.42965C15.6575 0.514261 14.4159 0 13.1214 0C11.8268 0 10.5853 0.514261 9.66988 1.42965C8.75449 2.34504 8.24023 3.58657 8.24023 4.88113C8.24023 6.17569 8.75449 7.41722 9.66988 8.33261C10.5853 9.248 11.8268 9.76226 13.1214 9.76226Z" fill="#EC008C"/>
<path d="M1.80621 4.66213C1.77849 4.54403 1.72756 4.43262 1.6564 4.33437C1.58523 4.23613 1.49525 4.15301 1.39167 4.08986C1.2881 4.0267 1.173 3.98477 1.05307 3.9665C0.933144 3.94822 0.810781 3.95398 0.693097 3.98342C0.575413 4.01286 0.464756 4.0654 0.36756 4.13799C0.270365 4.21058 0.188571 4.30177 0.126935 4.40626C0.065298 4.51075 0.0250489 4.62644 0.00852741 4.74662C-0.00799404 4.8668 -0.000458075 4.98907 0.0306972 5.10631L0.496845 6.9709C0.917579 8.65354 1.76794 10.1981 2.96473 11.4535C4.16151 12.7089 5.66371 13.6321 7.32433 14.1327V19.5911C7.32433 20.6869 7.32433 21.6021 7.42195 22.3269C7.52445 23.0933 7.75143 23.7852 8.30787 24.3404C8.8631 24.8969 9.555 25.1238 10.3213 25.2263C11.0474 25.324 11.9614 25.324 13.0572 25.324H13.1841C14.2812 25.324 15.1952 25.324 15.9212 25.2263C16.6863 25.1238 17.3782 24.8969 17.9347 24.3404C18.4899 23.7852 18.7157 23.0933 18.8194 22.3269C18.917 21.6021 18.917 20.6869 18.917 19.5911V14.4744C19.5164 14.6532 20.0504 15.0037 20.4529 15.4825C20.8554 15.9613 21.1088 16.5476 21.1819 17.1688L21.975 23.9048C22.0102 24.1399 22.1355 24.352 22.3244 24.4964C22.5133 24.6407 22.7509 24.7059 22.987 24.6782C23.2231 24.6504 23.4391 24.5319 23.5894 24.3477C23.7396 24.1635 23.8123 23.9281 23.792 23.6912L22.9989 16.9553C22.8548 15.731 22.2664 14.6022 21.3453 13.783C20.4242 12.9638 19.2345 12.5112 18.0018 12.511H8.34326C6.87936 12.1672 5.5384 11.427 4.46749 10.3713C3.39659 9.31571 2.6371 7.98554 2.27236 6.52672L1.80621 4.66213Z" fill="#EC008C"/>
</svg>
